<svg width="360" height="436" viewBox="0 0 360 436" fill="none" xmlns="http://www.w3.org/2000/svg">
<mask id="mask0_2369_1039" style="mask-type:alpha" maskUnits="userSpaceOnUse" x="0" y="0" width="360" height="436">
<rect width="360" height="436" fill="#D9D9D9"/>
</mask>
<g mask="url(#mask0_2369_1039)">
<circle cx="281" cy="352" r="84" fill="#234399"/>
<path opacity="0.1" d="M217.808 -8.29126L319.929 -11.1894L380.403 103.26L314.953 158.393L217.808 -8.29126Z" fill="url(#paint0_linear_2369_1039)"/>
<path opacity="0.1" d="M-34.3991 31.9578L-33.0513 -3.27313L-22.8991 -8.24038L-1.07622 -9.0399L98.4855 155.293L45.487 157.235L-34.3991 31.9578Z" fill="url(#paint1_linear_2369_1039)"/>
<circle cx="36" cy="199" r="83.5" stroke="#294BA6"/>
</g>
<path d="M324.293 55.7841H53.2388V236.064H324.293V55.7841Z" fill="#E0E0E0"/>
<path d="M316.078 63.846H45.0233V244.125H316.078V63.846Z" fill="#EBEBEB"/>
<path d="M61.6008 299.03C64.2648 297.781 67.2584 297.417 70.1443 297.99C71.7009 298.248 73.3132 298.688 74.3323 299.875C75.3514 301.061 75.5887 303.086 74.3742 304.063C73.5971 304.6 72.6557 304.847 71.7148 304.761C69.4533 304.761 66.9475 304.342 65.1466 305.696C64.1136 306.471 63.4296 307.79 62.2011 308.146C61.5879 308.29 60.9445 308.232 60.367 307.981C59.7896 307.729 59.309 307.297 58.9973 306.75C58.4076 305.619 58.2775 304.303 58.6343 303.079C58.7785 302.219 59.122 301.405 59.6371 300.702C60.1522 299.999 60.8247 299.427 61.6008 299.03Z" fill="#EBEBEB"/>
<path d="M55.6469 287.562C57.2383 289.83 60.3235 289.077 61.7544 287.695C63.1853 286.313 63.7925 284.295 64.344 282.383C65.6073 278.006 66.8777 273.42 65.9354 268.96C65.7108 267.61 65.1192 266.347 64.2253 265.31C63.7703 264.801 63.1902 264.42 62.5425 264.204C61.8948 263.989 61.202 263.946 60.5329 264.081C58.9763 264.493 58.0061 266.022 57.3081 267.474C55.2444 271.757 54.1641 276.448 54.1462 281.203C54.1462 283.416 54.3975 285.733 55.6469 287.562Z" fill="#EBEBEB"/>
<path d="M51.2844 290.787C53.0084 288.742 53.3365 285.754 52.5687 283.186C51.696 280.638 50.1383 278.38 48.0666 276.659C45.7151 274.562 42.9765 272.945 40.0047 271.899C38.8538 271.433 37.6152 271.223 36.3751 271.285C35.7563 271.322 35.1559 271.509 34.6257 271.83C34.0955 272.151 33.6514 272.596 33.3318 273.127C32.4872 274.747 33.2969 276.708 34.1764 278.307C35.7268 281.129 37.4983 283.825 39.4742 286.368C41.0587 288.414 42.8804 290.438 45.2955 291.359C47.7106 292.28 50.2304 292.176 51.5147 290.501" fill="#EBEBEB"/>
<path d="M55.5352 321.764C55.6257 321.427 55.6749 321.08 55.6818 320.731C55.7585 319.977 55.8493 319.035 55.954 317.939C56.096 316.552 56.308 315.173 56.5892 313.807C56.9595 312.141 57.4613 310.507 58.0899 308.921C58.7061 307.339 59.5452 305.854 60.5817 304.509C61.421 303.414 62.4941 302.52 63.7227 301.892C64.5589 301.482 65.4537 301.204 66.3751 301.068C66.721 301.052 67.0646 301.003 67.4012 300.922C67.0531 300.886 66.7022 300.886 66.3542 300.922C65.3895 300.987 64.444 301.223 63.5622 301.62C62.2664 302.232 61.1294 303.135 60.2397 304.258C59.1628 305.623 58.2948 307.14 57.6641 308.76C57.0199 310.365 56.52 312.023 56.1704 313.716C55.9032 315.1 55.7191 316.498 55.6189 317.904C55.5352 319.098 55.5003 320.068 55.4793 320.696C55.4609 321.053 55.4796 321.411 55.5352 321.764Z" fill="#E0E0E0"/>
<path d="M55.7306 319.607C55.7519 319.45 55.7519 319.29 55.7306 319.133V317.737C55.7306 316.543 55.7306 314.826 55.7865 312.704C55.8981 308.46 56.2611 303.888 56.9661 297.446C57.6641 291.394 58.5296 284.344 59.4789 279.758C59.6813 278.718 59.8837 277.783 60.0792 276.966C60.2746 276.15 60.4212 275.431 60.5678 274.872C60.7143 274.314 60.8051 273.895 60.8888 273.539C60.9357 273.387 60.9639 273.23 60.9726 273.072C60.8987 273.213 60.8424 273.363 60.8051 273.518C60.7004 273.86 60.5747 274.3 60.4142 274.831C60.2537 275.361 60.0512 276.108 59.8488 276.925C59.6464 277.741 59.4091 278.676 59.1508 279.717C57.9803 285.138 57.0973 290.618 56.5054 296.133C55.8074 302.59 55.4793 308.467 55.4514 312.718C55.4514 314.847 55.4514 316.571 55.5282 317.758C55.5282 318.316 55.591 318.77 55.612 319.154C55.6331 319.309 55.6729 319.461 55.7306 319.607Z" fill="#E0E0E0"/>
<path d="M55.7585 308.272C55.8011 307.796 55.8011 307.317 55.7585 306.841C55.7027 305.926 55.577 304.6 55.3188 302.974C55.0075 301.069 54.5881 299.184 54.0624 297.327C53.4429 295.045 52.6543 292.812 51.7031 290.647C50.0636 286.673 47.7204 283.026 44.786 279.884C44.2728 279.346 43.7274 278.841 43.1526 278.369C42.9014 278.16 42.685 277.944 42.4546 277.776L41.8264 277.343C41.4474 277.052 41.0433 276.795 40.6189 276.576C42.0074 277.652 43.3247 278.818 44.5626 280.066C47.4099 283.239 49.697 286.874 51.3262 290.815C52.2621 292.966 53.0549 295.176 53.6994 297.432C54.3137 299.526 54.7255 301.417 55.0396 303.016C55.3537 304.614 55.5003 305.94 55.605 306.848C55.6194 307.326 55.6708 307.802 55.7585 308.272Z" fill="#E0E0E0"/>
<path d="M44.8069 328.269L45.9376 343.835H65.9353L67.0661 328.269H44.8069Z" fill="#E0E0E0"/>
<path d="M69.4533 322.134H42.8735V328.269H69.4533V322.134Z" fill="#E0E0E0"/>
<path d="M42.8735 343.234V344.938H44.1229H69.0136V343.234H42.8735Z" fill="#EBEBEB"/>
<path d="M45.3444 347.932L44.1229 344.938H68.0643L66.6334 347.932H45.3444Z" fill="#E0E0E0"/>
<path d="M66.6962 333.358C66.6712 333.407 66.6408 333.454 66.6055 333.497L66.3053 333.895L65.1397 335.382L65.0908 335.452L65.035 335.382L62.1802 331.424H62.3407C61.4891 332.632 60.5399 333.972 59.5487 335.417L59.458 335.536L59.3602 335.424L56.0168 331.445H56.2123L56.0238 331.676L53.0364 335.417L52.9386 335.542L52.8479 335.417L50.0559 331.424H50.2234L46.7334 335.375L46.6776 335.445L46.6287 335.368L45.484 333.553L45.2048 333.072C45.1682 333.018 45.14 332.959 45.121 332.897C45.121 332.897 45.1629 332.946 45.2397 333.051L45.5468 333.518C45.826 333.951 46.2448 334.558 46.6846 335.312H46.5799L49.9931 331.313L50.0768 331.208L50.1606 331.32C51.0191 332.527 51.9754 333.86 53.0015 335.291H52.813C53.7553 334.098 54.7534 332.841 55.7935 331.543L55.9749 331.313L56.0657 331.194L56.1634 331.306L59.4998 335.291H59.3114L62.1592 331.32L62.236 331.208L62.3198 331.32L65.1118 335.319H65.028L66.2355 333.867L66.5636 333.49C66.6543 333.393 66.6892 333.351 66.6962 333.358Z" fill="#F5F5F5"/>
<path d="M67.3453 328.165C67.3453 328.234 62.3337 328.29 56.1773 328.29C50.021 328.29 45.0093 328.234 45.0093 328.165C45.0093 328.095 50.014 328.046 56.1773 328.046C62.3407 328.046 67.3453 328.102 67.3453 328.165Z" fill="#F5F5F5"/>
<path d="M68.3574 345.105C68.3574 345.175 62.913 345.231 56.1983 345.231C49.4835 345.231 44.0391 345.175 44.0391 345.105C44.0391 345.035 49.4835 344.979 56.1983 344.979C62.913 344.979 68.3574 345.035 68.3574 345.105Z" fill="#F5F5F5"/>
<path d="M329.088 347.925C329.088 348.03 262.08 348.114 179.507 348.114C96.9336 348.114 29.9116 348.03 29.9116 347.925C29.9116 347.82 96.8777 347.744 179.507 347.744C262.136 347.744 329.088 347.827 329.088 347.925Z" fill="white"/>
<path d="M306.815 73.1992H35.7609V252.187H306.815V73.1992Z" fill="#FAFAFA"/>
<path d="M306.815 252.187C306.815 251.008 306.759 182.387 306.669 73.1992L306.815 73.3458H35.7818L35.9633 73.1643C35.9633 136.857 35.9633 197.45 35.9633 252.152L35.7958 251.985L306.85 252.152L35.7958 252.32H35.6282V252.152C35.6282 197.45 35.6282 136.857 35.6282 73.1643V72.9828H35.8307H306.864H307.011V73.1294C306.871 182.359 306.815 251.008 306.815 252.187Z" fill="#263238"/>
<path d="M58.9414 91.5776L59.2974 90.7888C59.8179 91.1767 60.4491 91.3871 61.0982 91.3891C61.9498 91.3891 62.3127 91.082 62.3127 90.6911C62.3127 89.5115 59.0601 90.2863 59.0601 88.2551C59.0601 87.3686 59.7581 86.6218 61.2657 86.6218C61.9057 86.6122 62.5359 86.7789 63.0875 87.1034L62.7664 87.8921C62.309 87.6226 61.7896 87.4759 61.2588 87.4664C60.4142 87.4664 60.0722 87.7944 60.0722 88.2062C60.0722 89.3719 63.3109 88.6111 63.3109 90.6213C63.3109 91.4938 62.6129 92.2477 61.0982 92.2477C60.3253 92.2669 59.5674 92.0315 58.9414 91.5776Z" fill="#263238"/>
<path d="M68.141 90.377H64.8605C64.9227 90.6819 65.0954 90.9531 65.3453 91.1386C65.5951 91.3241 65.9047 91.4108 66.2146 91.3821C66.4245 91.3911 66.6338 91.3553 66.8288 91.2771C67.0238 91.1988 67.1999 91.08 67.3453 90.9284L67.8688 91.5287C67.6598 91.7633 67.4008 91.9478 67.1108 92.0686C66.8208 92.1894 66.5073 92.2435 66.1936 92.2267C65.8969 92.2577 65.5969 92.2248 65.3138 92.1304C65.0308 92.036 64.7712 91.8822 64.5524 91.6793C64.3336 91.4764 64.1608 91.2291 64.0454 90.9539C63.9299 90.6788 63.8747 90.3821 63.8832 90.0839C63.8755 89.7988 63.9261 89.5152 64.0318 89.2504C64.1376 88.9857 64.2963 88.7453 64.4982 88.544C64.7001 88.3427 64.9411 88.1848 65.2062 88.0799C65.4713 87.975 65.7551 87.9254 66.0401 87.934C66.3227 87.9258 66.6039 87.9764 66.8659 88.0827C67.1278 88.1891 67.3648 88.3487 67.5617 88.5516C67.7587 88.7544 67.9113 88.996 68.0098 89.261C68.1083 89.526 68.1506 89.8086 68.1341 90.0908C68.155 90.1676 68.148 90.2863 68.141 90.377ZM64.8535 89.7349H67.2197C67.1914 89.4461 67.0531 89.1792 66.8336 88.9896C66.614 88.7999 66.3299 88.7018 66.0401 88.7158C65.7507 88.7067 65.4685 88.8063 65.2489 88.9949C65.0293 89.1835 64.8882 89.4475 64.8535 89.7349Z" fill="#263238"/>
<path d="M71.6032 91.9265C71.3288 92.1223 70.9978 92.2228 70.6609 92.2127C70.47 92.2366 70.2762 92.2173 70.0937 92.1562C69.9113 92.0951 69.7449 91.9938 69.6069 91.8598C69.4689 91.7258 69.3627 91.5625 69.2963 91.3819C69.2298 91.2014 69.2048 91.0082 69.223 90.8167V88.7925H68.518V88.0108H69.216V87.0545H70.1932V88.0108H71.31V88.7925H70.2002V90.7818C70.2002 91.1867 70.4026 91.403 70.7795 91.403C70.9764 91.4066 71.1694 91.348 71.3309 91.2355L71.6032 91.9265Z" fill="#263238"/>
<path d="M76.4473 87.9828V92.1708H75.498V91.6404C75.3305 91.8313 75.1229 91.9829 74.89 92.0842C74.6571 92.1856 74.4047 92.2342 74.1508 92.2267C73.9047 92.2494 73.6566 92.2167 73.4248 92.1309C73.193 92.0452 72.9834 91.9085 72.8113 91.7311C72.6392 91.5537 72.5091 91.3399 72.4305 91.1056C72.3518 90.8713 72.3267 90.6223 72.357 90.377V87.9828H73.3342V90.2304C73.3342 90.9912 73.6902 91.3472 74.3114 91.3472C74.4733 91.3552 74.635 91.3271 74.7848 91.2651C74.9346 91.203 75.0687 91.1084 75.1776 90.9883C75.2864 90.8681 75.3672 90.7252 75.4142 90.57C75.4611 90.4149 75.4731 90.2512 75.4491 90.0908V87.9968L76.4473 87.9828Z" fill="#263238"/>
<path d="M82.1639 90.0699C82.1796 90.3512 82.1365 90.6328 82.0374 90.8966C81.9384 91.1604 81.7855 91.4007 81.5886 91.6022C81.3917 91.8038 81.1549 91.9621 80.8935 92.0672C80.632 92.1723 80.3516 92.2219 80.0699 92.2127C79.8188 92.2218 79.5688 92.176 79.3373 92.0783C79.1058 91.9806 78.8985 91.8335 78.7298 91.6474V93.6716H77.7526V87.9829H78.6879V88.5273C78.8596 88.3281 79.0748 88.171 79.3168 88.0681C79.5589 87.9653 79.8213 87.9194 80.0839 87.934C80.3637 87.9269 80.6421 87.9777 80.9013 88.0833C81.1606 88.1888 81.3953 88.3468 81.5906 88.5474C81.786 88.748 81.9377 88.9867 82.0364 89.2487C82.135 89.5107 82.1784 89.7903 82.1639 90.0699ZM81.1728 90.0699C81.1605 89.8269 81.0771 89.5929 80.933 89.3969C80.7889 89.2008 80.5904 89.0514 80.3622 88.9672C80.134 88.8829 79.886 88.8675 79.6491 88.9229C79.4122 88.9782 79.1968 89.1019 79.0296 89.2786C78.8623 89.4553 78.7507 89.6772 78.7084 89.9168C78.6661 90.1564 78.6951 90.4031 78.7918 90.6264C78.8884 90.8496 79.0485 91.0396 79.2521 91.1727C79.4558 91.3058 79.694 91.3762 79.9373 91.3751C80.1068 91.3796 80.2753 91.3484 80.4319 91.2834C80.5885 91.2184 80.7297 91.1212 80.8462 90.9981C80.9627 90.875 81.0521 90.7287 81.1083 90.5688C81.1646 90.4088 81.1865 90.2388 81.1728 90.0699Z" fill="#263238"/>
<path d="M93.0178 86.6846L91.1751 92.1569H90.5609L88.9624 87.4873L87.364 92.1569H86.7637L84.921 86.6846H85.5143L87.0778 91.424L88.7112 86.7195H89.2486L90.854 91.424L92.4594 86.6985L93.0178 86.6846Z" fill="#263238"/>
<path d="M93.8135 86.7474C93.8135 86.6401 93.8562 86.5371 93.9321 86.4612C94.008 86.3852 94.111 86.3426 94.2184 86.3426C94.3257 86.3426 94.4287 86.3852 94.5046 86.4612C94.5806 86.5371 94.6232 86.6401 94.6232 86.7474C94.6232 86.8548 94.5806 86.9578 94.5046 87.0337C94.4287 87.1096 94.3257 87.1523 94.2184 87.1523C94.111 87.1523 94.008 87.1096 93.9321 87.0337C93.8562 86.9578 93.8135 86.8548 93.8135 86.7474ZM93.9322 88.0457H94.4906V92.1569H93.9322V88.0457Z" fill="#263238"/>
<path d="M98.9368 91.6963V92.1569H95.5934V91.787L98.183 88.5134H95.6422V88.0457H98.8949V88.4087L96.3053 91.6963H98.9368Z" fill="#263238"/>
<path d="M103.139 89.6092V92.1569H102.608V91.5148C102.458 91.7437 102.249 91.9288 102.004 92.0514C101.759 92.1739 101.486 92.2296 101.212 92.2128C100.284 92.2128 99.7116 91.7311 99.7116 91.0192C99.7116 90.3072 100.116 89.8535 101.296 89.8535H102.601V89.6022C102.601 88.9042 102.203 88.5203 101.443 88.5203C100.934 88.506 100.438 88.6772 100.047 89.002L99.7954 88.5902C100.268 88.2135 100.859 88.0157 101.464 88.0317C101.683 87.9979 101.907 88.0145 102.119 88.0803C102.331 88.146 102.525 88.2593 102.686 88.4114C102.848 88.5635 102.973 88.7505 103.051 88.958C103.129 89.1656 103.159 89.3883 103.139 89.6092ZM102.58 90.9215V90.2235H101.324C100.521 90.2235 100.263 90.5376 100.263 90.9633C100.263 91.3891 100.647 91.7381 101.303 91.7381C101.574 91.7509 101.843 91.6792 102.072 91.5329C102.3 91.3867 102.478 91.173 102.58 90.9215Z" fill="#263238"/>
<path d="M106.72 88.0108V88.5482H106.587C106.39 88.5369 106.192 88.5696 106.009 88.6439C105.826 88.7182 105.662 88.8323 105.528 88.978C105.394 89.1236 105.295 89.2971 105.237 89.486C105.178 89.6748 105.163 89.8743 105.191 90.0699V92.1639H104.633V88.0457H105.163V88.8484C105.307 88.5674 105.533 88.3368 105.811 88.1872C106.089 88.0376 106.406 87.9761 106.72 88.0108Z" fill="#263238"/>
<path d="M111.438 86.3565V92.1569H110.901V91.3402C110.736 91.6106 110.503 91.8321 110.224 91.9819C109.946 92.1316 109.632 92.2041 109.316 92.1918C108.761 92.1918 108.228 91.9712 107.835 91.5785C107.443 91.1858 107.222 90.6532 107.222 90.0978C107.222 89.5424 107.443 89.0098 107.835 88.6171C108.228 88.2244 108.761 88.0038 109.316 88.0038C109.625 87.993 109.932 88.0626 110.206 88.2057C110.48 88.3489 110.712 88.5607 110.88 88.8204V86.3565H111.438ZM110.887 90.0978C110.872 89.7989 110.769 89.511 110.592 89.2698C110.415 89.0285 110.171 88.8446 109.89 88.7408C109.609 88.637 109.304 88.6179 109.013 88.6859C108.721 88.7538 108.456 88.9058 108.25 89.123C108.045 89.3402 107.907 89.6131 107.855 89.9078C107.803 90.2025 107.838 90.506 107.957 90.7807C108.075 91.0555 108.272 91.2893 108.522 91.4533C108.773 91.6173 109.066 91.7042 109.365 91.7032C109.573 91.7066 109.779 91.6667 109.971 91.5862C110.163 91.5056 110.336 91.386 110.479 91.2351C110.622 91.0841 110.732 90.9051 110.802 90.7093C110.872 90.5135 110.901 90.3053 110.887 90.0978Z" fill="#263238"/>
<path d="M61.7614 153.42L61.9847 152.974C62.4817 153.424 63.1288 153.673 63.7995 153.672C64.8256 153.672 65.2723 153.239 65.2723 152.701C65.2723 151.194 61.894 152.115 61.894 150.091C61.894 149.281 62.5222 148.583 63.9112 148.583C64.5144 148.576 65.1064 148.746 65.6143 149.072L65.4189 149.532C64.9702 149.24 64.4469 149.082 63.9112 149.079C62.9131 149.079 62.4663 149.526 62.4663 150.07C62.4663 151.578 65.8447 150.67 65.8447 152.667C65.8447 153.476 65.2025 154.167 63.7995 154.167C63.0501 154.185 62.3216 153.918 61.7614 153.42Z" fill="#224091"/>
<path d="M69.1602 153.839C68.9121 154.034 68.6031 154.136 68.2877 154.125C68.1258 154.144 67.9618 154.126 67.8078 154.073C67.6538 154.02 67.5137 153.933 67.3978 153.818C67.2819 153.703 67.1932 153.564 67.1382 153.411C67.0833 153.258 67.0634 153.094 67.0801 152.932V150.44H66.3821V149.965H67.0801V149.065H67.6385V149.965H68.8949V150.44H67.6385V152.897C67.6308 152.993 67.6431 153.09 67.6747 153.181C67.7063 153.272 67.7565 153.356 67.8221 153.427C67.8877 153.498 67.9673 153.554 68.0559 153.593C68.1444 153.631 68.24 153.651 68.3365 153.651C68.5597 153.656 68.7776 153.582 68.9508 153.441L69.1602 153.839Z" fill="#224091"/>
<path d="M73.6134 152.199H70.1653C70.1759 152.4 70.2264 152.597 70.3138 152.779C70.4012 152.96 70.5238 153.122 70.6745 153.256C70.8251 153.39 71.0008 153.492 71.1914 153.558C71.382 153.623 71.5836 153.65 71.7846 153.637C72.0223 153.644 72.2587 153.599 72.477 153.505C72.6954 153.411 72.8903 153.27 73.048 153.092L73.3621 153.455C73.067 153.762 72.6889 153.975 72.2741 154.07C71.8593 154.165 71.4259 154.136 71.0271 153.988C70.6283 153.839 70.2815 153.578 70.0292 153.235C69.7769 152.893 69.6301 152.484 69.6069 152.059C69.5914 151.787 69.6325 151.514 69.7274 151.258C69.8223 151.002 69.969 150.768 70.1584 150.572C70.3478 150.375 70.5757 150.22 70.8279 150.116C71.0801 150.011 71.3512 149.96 71.6241 149.965C71.8961 149.96 72.1663 150.011 72.4175 150.116C72.6687 150.22 72.8954 150.376 73.0831 150.573C73.2709 150.77 73.4156 151.004 73.5081 151.26C73.6006 151.515 73.6388 151.788 73.6204 152.059C73.6204 152.073 73.6134 152.15 73.6134 152.199ZM70.1653 151.787H73.0899C73.0643 151.417 72.8991 151.07 72.6277 150.816C72.3563 150.563 71.9988 150.422 71.6276 150.422C71.2563 150.422 70.8989 150.563 70.6275 150.816C70.3561 151.07 70.1909 151.417 70.1653 151.787Z" fill="#224091"/>
<path d="M78.9322 152.031C78.9468 152.307 78.9041 152.582 78.8067 152.84C78.7093 153.098 78.5594 153.333 78.3665 153.53C78.1735 153.726 77.9417 153.881 77.6858 153.984C77.43 154.086 77.1556 154.134 76.88 154.125C76.5718 154.136 76.266 154.067 75.9921 153.926C75.7182 153.784 75.4855 153.574 75.3165 153.316V155.64H74.7581V149.993H75.2886V150.754C75.4563 150.486 75.6917 150.267 75.9711 150.118C76.2505 149.97 76.564 149.898 76.88 149.909C77.1581 149.9 77.435 149.949 77.6929 150.053C77.9508 150.158 78.1839 150.315 78.3773 150.515C78.5707 150.715 78.72 150.953 78.8156 151.214C78.9111 151.475 78.9509 151.754 78.9322 152.031ZM78.3807 152.031C78.3684 151.729 78.2674 151.437 78.0903 151.191C77.9131 150.946 77.6677 150.758 77.3846 150.651C77.1015 150.544 76.7931 150.523 76.498 150.59C76.2028 150.657 75.9339 150.809 75.7247 151.028C75.5155 151.247 75.3753 151.522 75.3214 151.82C75.2676 152.118 75.3026 152.425 75.422 152.703C75.5415 152.981 75.7401 153.218 75.9931 153.384C76.2462 153.55 76.5425 153.638 76.8451 153.637C77.0534 153.639 77.2599 153.598 77.4518 153.518C77.6437 153.437 77.8171 153.317 77.961 153.167C78.105 153.016 78.2165 152.838 78.2887 152.643C78.3609 152.447 78.3922 152.239 78.3807 152.031Z" fill="#224091"/>
<path d="M85.3887 152.513C85.3887 153.434 84.6907 154.139 83.3994 154.139C82.6763 154.165 81.9706 153.915 81.424 153.441L81.6962 152.995C82.1606 153.418 82.7716 153.643 83.3994 153.623C84.3068 153.623 84.7954 153.204 84.7954 152.52C84.7954 151.836 84.3277 151.431 83.3086 151.431H82.9177V151.019L84.4394 149.114H81.6474V148.611H85.1793V149.009L83.6227 150.963C84.8023 151.019 85.3887 151.633 85.3887 152.513Z" fill="#224091"/>
<path d="M255.163 223.262H226.803C226.113 223.262 225.554 223.822 225.554 224.512V239.093C225.554 239.783 226.113 240.342 226.803 240.342H255.163C255.853 240.342 256.413 239.783 256.413 239.093V224.512C256.413 223.822 255.853 223.262 255.163 223.262Z" fill="#E0E0E0"/>
<path d="M239.291 232.511C239.291 233.3 238.704 233.753 237.539 233.753H235.403V229.098H237.434C238.474 229.098 239.074 229.537 239.074 230.298C239.083 230.525 239.021 230.749 238.895 230.938C238.77 231.127 238.588 231.272 238.376 231.352C238.644 231.4 238.885 231.544 239.054 231.757C239.223 231.971 239.307 232.239 239.291 232.511ZM235.891 229.502V231.192H237.378C238.118 231.192 238.551 230.905 238.551 230.347C238.551 229.789 238.118 229.502 237.378 229.502H235.891ZM238.795 232.469C238.795 231.862 238.355 231.596 237.539 231.596H235.891V233.348H237.539C238.355 233.348 238.83 233.118 238.83 232.469H238.795Z" fill="white"/>
<path d="M242.948 231.582V233.753H242.501V233.209C242.369 233.403 242.188 233.559 241.976 233.661C241.764 233.763 241.528 233.807 241.294 233.788C240.505 233.788 240.017 233.369 240.017 232.769C240.017 232.169 240.366 231.778 241.371 231.778H242.481V231.561C242.481 230.968 242.139 230.64 241.489 230.64C241.064 230.635 240.651 230.781 240.324 231.052L240.114 230.703C240.511 230.388 241.004 230.221 241.51 230.228C241.699 230.197 241.892 230.21 242.075 230.266C242.258 230.322 242.425 230.419 242.564 230.55C242.703 230.681 242.81 230.842 242.877 231.021C242.944 231.2 242.968 231.392 242.948 231.582ZM242.481 232.699V232.127H241.385C240.687 232.127 240.484 232.399 240.484 232.755C240.484 233.111 240.812 233.411 241.371 233.411C241.607 233.426 241.842 233.364 242.042 233.236C242.241 233.108 242.395 232.92 242.481 232.699Z" fill="white"/>
<path d="M243.891 232.001C243.884 231.764 243.926 231.528 244.014 231.308C244.102 231.088 244.235 230.888 244.404 230.722C244.573 230.556 244.775 230.426 244.996 230.341C245.218 230.256 245.454 230.218 245.691 230.228C245.966 230.206 246.241 230.26 246.487 230.383C246.733 230.506 246.94 230.694 247.087 230.926L246.738 231.164C246.625 230.999 246.473 230.866 246.295 230.775C246.117 230.685 245.919 230.641 245.719 230.647C245.411 230.717 245.135 230.89 244.938 231.138C244.741 231.385 244.633 231.692 244.633 232.008C244.633 232.325 244.741 232.631 244.938 232.879C245.135 233.126 245.411 233.299 245.719 233.369C245.918 233.378 246.117 233.336 246.295 233.247C246.473 233.157 246.626 233.024 246.738 232.86L247.087 233.104C246.938 233.334 246.73 233.52 246.484 233.643C246.239 233.765 245.965 233.82 245.691 233.802C245.452 233.812 245.214 233.772 244.991 233.685C244.768 233.598 244.565 233.466 244.396 233.296C244.227 233.127 244.095 232.925 244.008 232.702C243.92 232.479 243.881 232.24 243.891 232.001Z" fill="white"/>
<path d="M249.23 231.994L248.407 232.755V233.753H247.904V228.818H248.379V232.162L250.473 230.256H251.052L249.579 231.722L251.213 233.816H250.64L249.23 231.994Z" fill="white"/>
<path d="M231.648 230.361C231.279 230.842 230.857 231.279 230.391 231.666V231.506C230.86 231.886 231.284 232.32 231.655 232.797C231.148 232.477 230.679 232.1 230.259 231.673L230.175 231.589L230.259 231.513C230.674 231.075 231.14 230.688 231.648 230.361Z" fill="white"/>
<path d="M233.644 231.589C232.539 231.738 231.419 231.738 230.314 231.589C231.419 231.441 232.539 231.441 233.644 231.589Z" fill="white"/>
<path d="M291.368 223.262H263.009C262.319 223.262 261.759 223.822 261.759 224.512V239.093C261.759 239.783 262.319 240.342 263.009 240.342H291.368C292.058 240.342 292.618 239.783 292.618 239.093V224.512C292.618 223.822 292.058 223.262 291.368 223.262Z" fill="#224091"/>
<path d="M271.454 229.098V233.753H271.05L268.062 229.977V233.753H267.574V229.098H267.978L270.973 232.874V229.098H271.454Z" fill="white"/>
<path d="M275.915 232.148H272.99C273 232.32 273.044 232.489 273.12 232.643C273.196 232.798 273.302 232.936 273.432 233.05C273.562 233.163 273.713 233.249 273.877 233.303C274.041 233.356 274.214 233.377 274.386 233.362C274.587 233.369 274.788 233.331 274.973 233.253C275.159 233.175 275.325 233.057 275.461 232.909L275.726 233.216C275.475 233.478 275.151 233.66 274.797 233.74C274.442 233.819 274.072 233.792 273.732 233.663C273.393 233.533 273.099 233.307 272.888 233.011C272.676 232.716 272.556 232.364 272.543 232.001C272.529 231.769 272.561 231.536 272.64 231.317C272.719 231.098 272.842 230.897 273.001 230.727C273.16 230.557 273.353 230.422 273.566 230.329C273.78 230.237 274.01 230.189 274.243 230.189C274.476 230.189 274.706 230.237 274.92 230.329C275.134 230.422 275.326 230.557 275.485 230.727C275.645 230.897 275.767 231.098 275.846 231.317C275.925 231.536 275.958 231.769 275.943 232.001C275.922 232.043 275.915 232.099 275.915 232.148ZM272.99 231.799H275.468C275.445 231.486 275.304 231.194 275.074 230.981C274.844 230.768 274.542 230.649 274.229 230.649C273.916 230.649 273.614 230.768 273.384 230.981C273.154 231.194 273.014 231.486 272.99 231.799Z" fill="white"/>
<path d="M279.014 233.753L277.904 232.287L276.787 233.753H276.25L277.646 231.959L276.327 230.256H276.857L277.911 231.652L278.958 230.256H279.475L278.162 231.959L279.558 233.753H279.014Z" fill="white"/>
<path d="M282.176 233.537C281.964 233.722 281.69 233.822 281.408 233.816C281.27 233.831 281.131 233.816 281 233.77C280.869 233.724 280.75 233.65 280.651 233.552C280.553 233.454 280.477 233.336 280.431 233.205C280.384 233.074 280.368 232.935 280.382 232.797V230.703H279.761V230.305H280.382V229.537H280.857V230.305H281.918V230.703H280.857V232.797C280.845 232.881 280.852 232.966 280.878 233.047C280.903 233.127 280.947 233.201 281.006 233.262C281.064 233.323 281.136 233.37 281.215 233.4C281.295 233.429 281.38 233.44 281.464 233.432C281.651 233.438 281.835 233.376 281.98 233.258L282.176 233.537Z" fill="white"/>
<path d="M285.387 232.797C285.755 232.316 286.177 231.878 286.643 231.492V231.652C286.174 231.271 285.75 230.838 285.38 230.361C285.888 230.682 286.356 231.061 286.776 231.492L286.866 231.568L286.776 231.652C286.36 232.087 285.893 232.472 285.387 232.797Z" fill="white"/>
<path d="M283.39 231.568C283.94 231.466 284.5 231.43 285.059 231.464C285.614 231.43 286.172 231.465 286.72 231.568C286.174 231.68 285.615 231.718 285.059 231.68C284.5 231.717 283.939 231.68 283.39 231.568Z" fill="white"/>
<path d="M68.2597 131.329C72.053 131.329 75.1281 128.254 75.1281 124.46C75.1281 120.667 72.053 117.592 68.2597 117.592C64.4665 117.592 61.3914 120.667 61.3914 124.46C61.3914 128.254 64.4665 131.329 68.2597 131.329Z" fill="#224091"/>
<path d="M208.286 124.858C208.227 124.299 208.134 123.744 208.006 123.197C207.608 121.717 206.723 120.414 205.494 119.498C204.661 118.864 203.69 118.438 202.66 118.255C201.478 118.04 200.261 118.146 199.135 118.562C197.89 119.016 196.809 119.83 196.029 120.901C195.186 122.047 194.731 123.432 194.731 124.855C194.731 126.277 195.186 127.663 196.029 128.809C196.416 129.346 196.888 129.817 197.425 130.205C197.94 130.596 198.512 130.907 199.121 131.126C200.248 131.537 201.465 131.64 202.646 131.426C203.676 131.244 204.647 130.818 205.48 130.184C206.709 129.268 207.594 127.965 207.992 126.485C208.119 125.939 208.212 125.387 208.272 124.83C208.316 125.398 208.267 125.968 208.125 126.519C207.771 128.06 206.892 129.429 205.64 130.393C204.777 131.06 203.771 131.516 202.702 131.727C201.465 131.959 200.189 131.86 199.002 131.44C198.364 131.214 197.764 130.891 197.222 130.484C196.647 130.072 196.143 129.57 195.729 128.997C194.832 127.793 194.348 126.332 194.348 124.83C194.348 123.329 194.832 121.868 195.729 120.663C196.141 120.087 196.646 119.582 197.222 119.169C197.764 118.762 198.364 118.44 199.002 118.213C200.189 117.794 201.465 117.695 202.702 117.927C203.771 118.138 204.777 118.594 205.64 119.26C206.892 120.225 207.771 121.594 208.125 123.134C208.274 123.696 208.329 124.279 208.286 124.858Z" fill="#263238"/>
<path d="M274.833 124.062C274.784 124.062 274.833 123.448 274.547 122.401C274.145 120.924 273.263 119.623 272.041 118.702C271.143 118.026 270.089 117.586 268.977 117.423C267.865 117.26 266.73 117.378 265.675 117.767C265.068 117.986 264.496 118.294 263.979 118.681C263.444 119.071 262.973 119.542 262.583 120.077C261.739 121.224 261.284 122.611 261.284 124.035C261.284 125.458 261.739 126.845 262.583 127.992C263.363 129.063 264.444 129.877 265.689 130.331C266.744 130.719 267.879 130.837 268.991 130.674C270.103 130.511 271.157 130.071 272.055 129.395C273.277 128.474 274.159 127.173 274.561 125.696C274.833 124.649 274.798 124.035 274.847 124.035C274.887 124.604 274.837 125.176 274.7 125.731C274.39 127.028 273.714 128.208 272.75 129.13C271.787 130.052 270.579 130.678 269.27 130.931C268.036 131.17 266.76 131.071 265.577 130.645C264.936 130.422 264.334 130.102 263.79 129.695C263.214 129.283 262.709 128.778 262.297 128.202C261.4 126.997 260.916 125.536 260.916 124.035C260.916 122.533 261.4 121.072 262.297 119.867C262.709 119.291 263.214 118.786 263.79 118.374C264.334 117.967 264.936 117.647 265.577 117.424C266.76 116.998 268.036 116.899 269.27 117.138C270.579 117.392 271.787 118.017 272.75 118.939C273.714 119.861 274.39 121.041 274.7 122.338C274.835 122.902 274.88 123.484 274.833 124.062Z" fill="#263238"/>
<path d="M71.1215 122.604C70.3245 123.708 69.4297 124.738 68.4482 125.682C68.2039 125.947 67.9596 126.198 67.7502 126.436L67.6245 126.568L67.4989 126.443C66.73 125.776 66.0287 125.034 65.4049 124.23C66.2458 124.801 67.0248 125.459 67.7292 126.191H67.4849C67.7083 125.947 67.9456 125.689 68.1829 125.431C69.0766 124.403 70.06 123.457 71.1215 122.604Z" fill="white"/>
<path d="M126.152 123.064H76.4263V125.856H126.152V123.064Z" fill="#224091"/>
<path d="M134.653 131.329C138.447 131.329 141.522 128.254 141.522 124.46C141.522 120.667 138.447 117.592 134.653 117.592C130.86 117.592 127.785 120.667 127.785 124.46C127.785 128.254 130.86 131.329 134.653 131.329Z" fill="#224091"/>
<path d="M137.515 122.604C136.716 123.706 135.821 124.736 134.842 125.682C134.591 125.947 134.353 126.198 134.144 126.436L134.025 126.568L133.9 126.443C133.126 125.78 132.424 125.039 131.806 124.23C132.642 124.805 133.418 125.462 134.123 126.191H133.879L134.577 125.431C135.47 124.402 136.453 123.456 137.515 122.604Z" fill="white"/>
<path d="M192.539 123.064H142.813V125.856H192.539V123.064Z" fill="#224091"/>
<path d="M259.958 124.062C259.958 124.16 248.825 124.244 235.096 124.244C221.366 124.244 210.212 124.16 210.212 124.062C210.212 123.965 221.38 123.881 235.075 123.881C248.77 123.881 259.958 123.965 259.958 124.062Z" fill="#263238"/>
<path d="M306.815 102.313C306.815 102.411 246.131 102.494 171.292 102.494C96.452 102.494 35.7609 102.411 35.7609 102.313C35.7609 102.215 96.431 102.131 171.292 102.131C246.152 102.131 306.815 102.208 306.815 102.313Z" fill="#E0E0E0"/>
<path d="M272.18 163.367C272.18 163.465 225.889 163.548 168.8 163.548C111.71 163.548 65.3979 163.465 65.3979 163.367C65.3979 163.269 111.682 163.185 168.8 163.185C225.917 163.185 272.18 163.269 272.18 163.367Z" fill="#263238"/>
<path d="M157.59 171.526C157.511 171.535 157.431 171.535 157.352 171.526H156.654L153.967 171.561L144.09 171.617L111.501 171.666L78.9042 171.617L69.0206 171.561L66.3402 171.526H65.6422C65.5611 171.535 65.4791 171.535 65.3979 171.526H65.6422H66.3402L69.0206 171.492L78.9042 171.436L111.501 171.38L144.09 171.436L153.967 171.492L156.654 171.526H157.352H157.59Z" fill="#263238"/>
<path d="M251.066 183.399C251.066 183.497 213.262 183.581 166.608 183.581C119.954 183.581 82.1499 183.497 82.1499 183.399C82.1499 183.302 119.947 183.218 166.608 183.218C213.269 183.218 251.066 183.302 251.066 183.399Z" fill="#263238"/>
<path d="M71.6032 186.094C70.8726 186.094 70.1584 185.877 69.5511 185.471C68.9437 185.065 68.4704 184.488 68.1912 183.813C67.9119 183.138 67.8392 182.395 67.9822 181.678C68.1253 180.962 68.4776 180.304 68.9947 179.788C69.5118 179.272 70.1704 178.921 70.8871 178.779C71.6038 178.637 72.3465 178.711 73.0211 178.992C73.6956 179.273 74.2718 179.747 74.6767 180.355C75.0816 180.963 75.297 181.678 75.2956 182.408C75.2919 183.386 74.9015 184.322 74.2096 185.013C73.5178 185.703 72.5807 186.092 71.6032 186.094ZM71.6032 179.414C71.0109 179.414 70.432 179.59 69.9396 179.919C69.4471 180.248 69.0633 180.715 68.8367 181.262C68.6101 181.81 68.5508 182.412 68.6663 182.993C68.7818 183.573 69.067 184.107 69.4858 184.526C69.9046 184.944 70.4381 185.23 71.019 185.345C71.5999 185.461 72.2019 185.401 72.7491 185.175C73.2963 184.948 73.7639 184.564 74.093 184.072C74.422 183.58 74.5976 183.001 74.5976 182.408C74.5958 181.615 74.2797 180.854 73.7185 180.293C73.1574 179.732 72.3968 179.416 71.6032 179.414Z" fill="#E0E0E0"/>
<path d="M216.815 192.446C216.815 192.446 216.703 192.446 216.473 192.446H215.454L211.531 192.48L197.104 192.536L149.486 192.634L101.882 192.578L87.4548 192.522L83.539 192.487L87.4548 192.453L101.882 192.397L149.486 192.341L197.076 192.397L211.503 192.453L215.426 192.487H216.445C216.703 192.432 216.815 192.446 216.815 192.446Z" fill="#263238"/>
<path d="M71.6032 196.124C70.8729 196.124 70.159 195.907 69.5518 195.502C68.9446 195.096 68.4713 194.519 68.1918 193.845C67.9124 193.17 67.8392 192.427 67.9817 191.711C68.1242 190.995 68.4759 190.337 68.9923 189.821C69.5086 189.304 70.1666 188.953 70.8828 188.81C71.5991 188.668 72.3415 188.741 73.0162 189.02C73.6909 189.3 74.2676 189.773 74.6733 190.38C75.0791 190.987 75.2956 191.701 75.2956 192.432C75.2938 193.41 74.9042 194.348 74.2121 195.04C73.52 195.733 72.5819 196.122 71.6032 196.124ZM71.6032 189.437C71.0109 189.437 70.432 189.613 69.9396 189.942C69.4472 190.271 69.0633 190.738 68.8367 191.286C68.6101 191.833 68.5508 192.435 68.6663 193.016C68.7818 193.597 69.067 194.13 69.4858 194.549C69.9046 194.968 70.4381 195.253 71.019 195.368C71.5999 195.484 72.2019 195.425 72.7491 195.198C73.2963 194.971 73.7639 194.588 74.093 194.095C74.422 193.603 74.5976 193.024 74.5976 192.432C74.5921 191.64 74.2744 190.883 73.7136 190.325C73.1529 189.767 72.3944 189.453 71.6032 189.451V189.437Z" fill="#E0E0E0"/>
<path d="M71.6031 194.072C72.5014 194.072 73.2295 193.344 73.2295 192.446C73.2295 191.547 72.5014 190.819 71.6031 190.819C70.7049 190.819 69.9768 191.547 69.9768 192.446C69.9768 193.344 70.7049 194.072 71.6031 194.072Z" fill="#224091"/>
<path d="M251.066 203.481C251.066 203.579 213.262 203.662 166.608 203.662C119.954 203.662 82.1499 203.579 82.1499 203.481C82.1499 203.383 119.947 203.299 166.608 203.299C213.269 203.299 251.066 203.376 251.066 203.481Z" fill="#263238"/>
<path d="M71.6032 206.175C70.8729 206.175 70.159 205.959 69.5518 205.553C68.9446 205.147 68.4713 204.57 68.1918 203.896C67.9124 203.221 67.8392 202.479 67.9817 201.762C68.1242 201.046 68.4759 200.388 68.9923 199.872C69.5086 199.355 70.1666 199.004 70.8828 198.861C71.5991 198.719 72.3415 198.792 73.0162 199.071C73.6909 199.351 74.2676 199.824 74.6733 200.431C75.0791 201.039 75.2956 201.752 75.2956 202.483C75.2938 203.461 74.9042 204.4 74.2121 205.092C73.52 205.784 72.5819 206.173 71.6032 206.175ZM71.6032 199.495C71.0107 199.495 70.4314 199.671 69.9389 200C69.4463 200.33 69.0625 200.798 68.836 201.345C68.6096 201.893 68.5507 202.495 68.6668 203.076C68.7829 203.658 69.0688 204.191 69.4883 204.61C69.9078 205.028 70.442 205.313 71.0233 205.427C71.6046 205.542 72.2069 205.482 72.7539 205.254C73.301 205.027 73.7682 204.642 74.0964 204.148C74.4245 203.655 74.599 203.075 74.5976 202.483C74.5958 201.69 74.2795 200.93 73.7181 200.37C73.1567 199.81 72.3961 199.495 71.6032 199.495Z" fill="#E0E0E0"/>
<path d="M132.999 204.849C131.807 205.308 130.776 206.106 130.032 207.144C129.288 208.182 128.863 209.415 128.811 210.691C128.762 212.304 128.811 214.181 127.562 215.193C126.312 216.205 124.602 215.703 123.178 216.233C121.364 216.931 120.463 218.935 120.065 220.826C119.667 222.718 119.549 224.742 118.488 226.361C117.427 227.981 115.752 228.846 114.195 229.851C112.639 230.856 111.096 232.259 110.81 234.102C110.398 236.741 112.722 239.435 111.766 241.934C111.152 243.539 109.421 244.363 108.123 245.487C107.277 246.218 106.587 247.112 106.094 248.116C105.602 249.12 105.316 250.213 105.255 251.329C105.194 252.446 105.358 253.563 105.738 254.615C106.118 255.666 106.706 256.631 107.466 257.45C108.046 258.136 108.781 258.675 109.61 259.02C110.439 259.366 111.338 259.51 112.234 259.44C113.965 259.195 115.34 257.932 116.638 256.773C121.405 252.533 126.726 248.959 132.455 246.15C133.935 245.452 135.554 244.649 136.322 243.183C136.662 242.418 136.877 241.602 136.957 240.768C138.558 229.777 140.161 218.786 141.766 207.795" fill="#263238"/>
<path d="M149.318 194.4C148.669 191.978 150.086 189.346 152.187 187.971C154.288 186.596 156.899 186.275 159.405 186.345C161.91 186.415 164.842 187.043 166.266 189.214C167.152 190.561 167.306 192.285 168.102 193.695C170.342 197.674 176.568 197.743 178.997 201.61C181.308 205.282 178.949 210.091 179.5 214.391C179.87 217.273 181.538 219.793 182.843 222.397C184.149 225 185.112 228.078 184.009 230.773C182.822 233.648 179.486 235.512 179.123 238.604C178.711 242.436 183.255 245.947 181.859 249.542C180.826 252.208 176.973 253.22 176.534 256.047C176.31 257.562 177.232 258.986 177.615 260.459C178.648 264.2 176.219 268.311 172.729 270.042C169.239 271.773 165.051 271.501 161.387 270.238C158.456 269.222 155.758 267.628 153.454 265.551C151.15 263.474 149.286 260.956 147.972 258.146C146.659 255.335 145.923 252.29 145.808 249.19C145.692 246.09 146.2 242.998 147.301 240.098" fill="#263238"/>
<path d="M110.035 231.68C109.907 231.466 109.717 231.296 109.491 231.191C109.215 231.075 108.909 231.051 108.618 231.122C108.421 231.162 108.238 231.253 108.086 231.385C107.934 231.517 107.82 231.686 107.753 231.876C107.68 232.117 107.663 232.372 107.703 232.621C107.743 232.87 107.839 233.107 107.983 233.313C108.158 233.557 108.392 233.752 108.663 233.882C108.934 234.011 109.233 234.07 109.533 234.053C109.879 234.043 110.221 233.964 110.537 233.822C110.853 233.679 111.138 233.476 111.375 233.223C111.909 232.637 112.292 231.93 112.492 231.164C112.981 229.551 112.841 227.674 113.016 225.67C113.099 224.62 113.378 223.595 113.839 222.648C114.092 222.147 114.43 221.694 114.837 221.308C115.265 220.92 115.766 220.621 116.31 220.428C117.431 220.124 118.579 219.928 119.737 219.842C120.315 219.823 120.883 219.69 121.409 219.45C121.935 219.21 122.408 218.869 122.801 218.446C123.548 217.532 123.611 216.24 123.499 215.012C123.326 213.737 123.242 212.452 123.248 211.166C123.352 209.852 123.795 208.587 124.533 207.494C125.231 206.408 126.265 205.58 127.478 205.135C128.665 204.825 129.904 204.766 131.115 204.961C132.259 205.044 133.467 205.093 134.318 204.423C135.17 203.753 135.4 202.636 135.456 201.631C135.455 200.588 135.558 199.548 135.763 198.525C136.256 196.688 137.358 195.073 138.89 193.946C140.152 193.022 141.668 192.51 143.232 192.48C144.401 192.451 145.563 192.675 146.638 193.137C147.32 193.415 147.953 193.799 148.516 194.274C148.714 194.433 148.898 194.608 149.067 194.798C149.067 194.798 148.865 194.63 148.467 194.33C147.892 193.887 147.258 193.528 146.582 193.262C145.52 192.84 144.381 192.643 143.239 192.683C141.725 192.735 140.264 193.249 139.051 194.156C137.58 195.257 136.527 196.824 136.063 198.602C135.871 199.607 135.778 200.629 135.784 201.652C135.764 202.206 135.673 202.755 135.512 203.285C135.329 203.838 134.986 204.323 134.528 204.681C134.045 205.045 133.469 205.263 132.867 205.31C132.277 205.362 131.684 205.362 131.094 205.31C129.932 205.117 128.743 205.172 127.604 205.47C126.454 205.887 125.474 206.669 124.812 207.697C124.11 208.735 123.689 209.938 123.59 211.187C123.588 212.459 123.67 213.73 123.835 214.991C123.895 215.628 123.879 216.27 123.786 216.903C123.695 217.547 123.438 218.156 123.039 218.669C122.639 219.167 122.114 219.55 121.517 219.779C120.945 219.988 120.35 220.128 119.744 220.198C118.607 220.274 117.481 220.461 116.38 220.756C115.865 220.927 115.39 221.2 114.984 221.559C114.605 221.916 114.291 222.337 114.056 222.802C113.609 223.714 113.335 224.7 113.246 225.712C113.057 227.674 113.183 229.579 112.667 231.247C112.451 232.051 112.039 232.787 111.466 233.39C111.206 233.661 110.896 233.877 110.552 234.027C110.208 234.177 109.838 234.257 109.463 234.263C109.132 234.273 108.804 234.202 108.508 234.054C108.212 233.907 107.957 233.688 107.767 233.418C107.612 233.188 107.512 232.926 107.474 232.651C107.437 232.376 107.463 232.097 107.55 231.834C107.628 231.626 107.758 231.442 107.928 231.3C108.098 231.158 108.302 231.063 108.52 231.024C108.835 230.956 109.164 230.992 109.456 231.129C109.588 231.17 109.709 231.241 109.81 231.337C109.91 231.432 109.988 231.55 110.035 231.68Z" fill="#263238"/>
<path d="M186.313 240.328C186.344 240.387 186.372 240.448 186.396 240.51C186.464 240.69 186.497 240.882 186.494 241.075C186.464 241.451 186.342 241.814 186.138 242.131C185.935 242.449 185.657 242.712 185.328 242.897C184.862 243.193 184.303 243.308 183.758 243.218C183.114 243.085 182.538 242.729 182.131 242.213C181.658 241.632 181.363 240.927 181.28 240.182C181.206 239.349 181.345 238.51 181.685 237.746C182.341 236.112 183.702 234.744 184.965 233.223C185.628 232.447 186.163 231.57 186.55 230.626C186.937 229.618 187.122 228.544 187.094 227.464C187.069 226.329 186.815 225.211 186.347 224.177C185.843 223.115 185.131 222.166 184.253 221.385C183.367 220.554 182.369 219.793 181.461 218.858C180.494 217.928 179.869 216.698 179.688 215.368C179.632 214.059 179.833 212.752 180.282 211.522C180.69 210.353 180.968 209.143 181.112 207.913C181.253 206.763 181.161 205.597 180.842 204.483C180.523 203.369 179.983 202.33 179.256 201.429C178.559 200.606 177.68 199.958 176.687 199.537C175.739 199.171 174.721 199.016 173.707 199.083C172.719 199.166 171.726 199.042 170.789 198.721C169.942 198.324 169.274 197.624 168.918 196.759C168.22 195.154 168.22 193.555 167.906 192.264C167.783 191.654 167.569 191.065 167.271 190.519C167.017 190.066 166.664 189.677 166.238 189.381C165.656 188.947 164.927 188.757 164.207 188.851C163.965 188.911 163.731 188.998 163.509 189.109C163.709 188.942 163.95 188.829 164.207 188.781C164.941 188.66 165.693 188.833 166.301 189.263C166.751 189.567 167.128 189.967 167.404 190.435C167.726 190.989 167.961 191.59 168.102 192.215C168.437 193.534 168.437 195.126 169.149 196.654C169.487 197.454 170.112 198.099 170.901 198.462C171.799 198.76 172.75 198.869 173.693 198.783C174.784 198.688 175.883 198.859 176.894 199.28C177.905 199.702 178.8 200.363 179.5 201.205C180.262 202.14 180.828 203.219 181.164 204.378C181.5 205.536 181.598 206.751 181.454 207.948C181.316 209.199 181.037 210.431 180.624 211.62C180.19 212.808 179.994 214.069 180.044 215.333C180.218 216.576 180.806 217.724 181.713 218.593C182.578 219.493 183.562 220.261 184.47 221.105C185.388 221.924 186.129 222.921 186.648 224.037C187.133 225.113 187.394 226.277 187.415 227.457C187.438 228.578 187.242 229.693 186.836 230.738C186.431 231.712 185.873 232.614 185.182 233.411C183.89 234.947 182.55 236.28 181.908 237.843C181.579 238.567 181.437 239.361 181.496 240.154C181.568 240.856 181.837 241.524 182.271 242.08C182.643 242.569 183.174 242.912 183.772 243.051C184.28 243.142 184.805 243.043 185.245 242.771C185.559 242.602 185.829 242.359 186.03 242.064C186.232 241.769 186.36 241.43 186.403 241.075C186.407 240.823 186.376 240.572 186.313 240.328Z" fill="#263238"/>
<path d="M131.966 205.694C130.64 206.063 129.921 207.564 129.921 208.939C130.039 210.309 130.34 211.656 130.815 212.946C131.177 214.272 131.352 215.738 130.696 216.959C129.37 219.374 125.649 219.249 123.855 221.343C121.573 224.002 123.702 228.399 122.055 231.492C120.554 234.284 116.359 235.191 115.528 238.276C114.998 240.238 116.115 242.373 115.528 244.328C114.907 246.547 112.443 247.671 111.145 249.577C110.541 250.572 110.189 251.699 110.12 252.86C110.05 254.022 110.266 255.183 110.747 256.243C111.625 258.125 112.942 259.769 114.586 261.038C114.781 261.205 114.984 261.366 115.186 261.527L139.225 255.943L144.042 211.48L131.966 205.694Z" fill="#263238"/>
<path d="M145.151 197.464C144.282 197.367 143.408 197.6 142.702 198.117C141.996 198.634 141.51 199.398 141.34 200.256L133.432 246.973C132.343 252.46 139.665 257.248 145.542 258.372C151.482 259.509 152.292 256.654 153.486 251.475C155.482 242.813 156.173 239.553 156.166 239.609C156.159 239.665 163.9 239.965 167.522 230.535C169.33 225.852 170.775 217.853 171.752 211.278C172.632 205.351 170.286 197.318 164.333 196.731L145.151 197.464Z" fill="#E2AD9A"/>
<path d="M168.227 217.134C168.161 217.46 167.97 217.747 167.695 217.934C167.419 218.12 167.082 218.192 166.755 218.132C166.593 218.112 166.437 218.059 166.297 217.977C166.156 217.895 166.033 217.786 165.935 217.656C165.838 217.526 165.767 217.377 165.728 217.219C165.689 217.061 165.682 216.897 165.708 216.736C165.775 216.41 165.966 216.124 166.241 215.936C166.516 215.749 166.852 215.675 167.18 215.731C167.342 215.752 167.498 215.806 167.639 215.888C167.779 215.971 167.902 216.081 168 216.211C168.098 216.342 168.168 216.491 168.207 216.65C168.246 216.808 168.253 216.973 168.227 217.134Z" fill="#263238"/>
<path d="M169.128 215.87C168.939 216.003 168.144 215.103 166.796 214.816C165.449 214.53 164.325 214.998 164.214 214.816C164.158 214.726 164.374 214.467 164.87 214.244C165.532 213.967 166.263 213.902 166.964 214.056C167.665 214.202 168.301 214.569 168.779 215.103C169.142 215.493 169.218 215.815 169.128 215.87Z" fill="#263238"/>
<path d="M154.833 214.272C154.767 214.598 154.576 214.886 154.301 215.074C154.026 215.262 153.688 215.335 153.36 215.277C153.199 215.255 153.045 215.201 152.905 215.119C152.765 215.036 152.643 214.927 152.545 214.797C152.448 214.667 152.377 214.52 152.338 214.362C152.298 214.205 152.289 214.042 152.313 213.881C152.381 213.555 152.572 213.269 152.846 213.081C153.121 212.894 153.458 212.82 153.786 212.876C153.947 212.897 154.102 212.951 154.242 213.033C154.383 213.115 154.505 213.224 154.603 213.354C154.7 213.484 154.771 213.632 154.81 213.79C154.85 213.947 154.857 214.111 154.833 214.272Z" fill="#263238"/>
<path d="M155.859 212.876C155.67 213.002 154.875 212.101 153.527 211.815C152.18 211.529 151.05 211.996 150.945 211.815C150.889 211.724 151.105 211.466 151.601 211.243C152.264 210.97 152.994 210.905 153.695 211.054C154.395 211.203 155.03 211.57 155.51 212.101C155.873 212.485 155.95 212.806 155.859 212.876Z" fill="#263238"/>
<path d="M158.609 223.5C159.365 223.426 160.127 223.45 160.877 223.569C161.233 223.604 161.575 223.611 161.68 223.388C161.789 223.04 161.789 222.668 161.68 222.32L161.219 219.486C160.605 215.466 160.235 212.185 160.403 212.164C160.57 212.143 161.191 215.382 161.799 219.409C161.938 220.393 162.078 221.343 162.211 222.243C162.339 222.707 162.299 223.201 162.099 223.639C162.021 223.753 161.917 223.847 161.795 223.914C161.674 223.981 161.539 224.018 161.401 224.023C161.2 224.036 160.998 224.022 160.801 223.981C160.053 223.912 159.317 223.75 158.609 223.5Z" fill="#263238"/>
<path d="M156.145 239.602C151.542 238.69 147.284 236.515 143.846 233.32C143.846 233.32 145.668 240.901 155.614 242.066L156.145 239.602Z" fill="#AA6550"/>
<path d="M157.353 226.62C157.169 226.237 156.891 225.907 156.544 225.663C156.197 225.418 155.793 225.267 155.37 225.224C155.069 225.188 154.763 225.213 154.472 225.298C154.18 225.383 153.909 225.527 153.674 225.719C153.442 225.901 153.272 226.151 153.191 226.434C153.109 226.718 153.12 227.02 153.22 227.297C153.384 227.585 153.63 227.818 153.928 227.965C154.225 228.112 154.56 228.166 154.889 228.12C155.573 228.033 156.232 227.81 156.829 227.464C157.002 227.384 157.16 227.276 157.297 227.143C157.362 227.081 157.407 227 157.426 226.912C157.445 226.823 157.436 226.731 157.401 226.648" fill="#AA6550"/>
<path d="M154.456 223.583C154.679 223.618 154.372 225.077 155.398 226.375C156.424 227.674 158.016 227.848 157.981 228.051C157.981 228.148 157.576 228.26 156.913 228.141C156.057 227.969 155.289 227.502 154.742 226.822C154.217 226.167 153.967 225.334 154.044 224.498C154.121 223.883 154.372 223.555 154.456 223.583Z" fill="#263238"/>
<path d="M156.969 210.258C156.752 210.601 155.447 210.14 153.835 209.993C152.222 209.847 150.847 209.993 150.708 209.63C150.645 209.456 150.945 209.156 151.531 208.932C152.31 208.647 153.144 208.542 153.97 208.625C154.796 208.709 155.592 208.978 156.299 209.414C156.829 209.749 157.059 210.084 156.969 210.258Z" fill="#263238"/>
<path d="M169.463 213.448C169.163 213.707 168.304 213.19 167.194 212.939C166.084 212.687 165.1 212.701 164.947 212.338C164.884 212.164 165.093 211.892 165.568 211.689C166.196 211.462 166.877 211.425 167.525 211.584C168.174 211.743 168.76 212.09 169.212 212.583C169.54 212.981 169.602 213.323 169.463 213.448Z" fill="#263238"/>
<path d="M152.222 195.67C151.283 194.652 150.135 193.847 148.857 193.311C147.58 192.775 146.201 192.521 144.816 192.564C142.059 192.753 139.4 194.623 138.744 197.255C138.318 198.965 138.66 200.947 137.564 202.336C136.468 203.725 134.598 203.872 133.104 204.668C131.943 205.31 131.031 206.322 130.513 207.542C129.994 208.763 129.899 210.122 130.242 211.403C130.884 213.581 132.811 215.493 132.525 217.741C132.252 219.835 130.13 221.231 129.265 223.171C128.309 225.321 129.056 227.911 130.514 229.789C131.973 231.666 134.053 232.971 136.098 234.242C137.683 235.233 139.393 236.259 141.264 236.238C142.369 236.184 143.434 235.803 144.322 235.144C145.211 234.484 145.883 233.575 146.254 232.532C146.59 231.486 146.695 230.38 146.564 229.29C146.432 228.2 146.067 227.151 145.493 226.215C144.537 224.574 143.036 223.025 143.127 221.14C143.274 218.209 147.148 216.61 147.553 213.7C147.769 212.206 146.987 210.761 146.387 209.358C145.787 207.955 145.354 206.266 146.184 204.996C147.259 203.348 149.73 203.39 151.44 202.378C152.153 201.949 152.732 201.33 153.112 200.59C153.492 199.85 153.657 199.019 153.59 198.19C153.498 197.36 153.182 196.57 152.675 195.906C152.169 195.242 151.491 194.729 150.714 194.421" fill="#263238"/>
<path d="M151.65 193.248C151.434 194.226 151.436 195.24 151.657 196.217C151.877 197.194 152.311 198.111 152.926 198.901C153.541 199.692 154.323 200.337 155.216 200.791C156.109 201.244 157.091 201.496 158.092 201.527C159.635 201.575 161.429 201.171 162.546 202.225C163.662 203.278 163.334 205.4 164.312 206.706C165.708 208.562 168.737 207.753 170.782 208.869C172.352 209.735 173.057 211.564 173.888 213.162C174.719 214.761 176.108 216.401 177.902 216.268C178.179 214.74 178.279 213.185 178.202 211.634C178.112 210.076 177.488 208.597 176.436 207.446C175.843 206.838 175.089 206.392 174.558 205.728C173.4 204.332 173.504 202.238 172.981 200.507C172.632 199.373 172.017 198.338 171.188 197.488C170.359 196.638 169.339 195.998 168.213 195.621C166.343 195.007 164.242 195.161 162.476 194.288C161.171 193.639 160.158 192.48 158.818 191.915C156.208 190.812 153.234 192.222 150.861 193.744" fill="#263238"/>
<path d="M116.017 249.451C115.756 249.407 115.502 249.327 115.263 249.214C114.576 248.885 113.984 248.385 113.546 247.762C112.827 246.777 112.494 245.563 112.611 244.349C112.778 242.745 113.522 241.257 114.705 240.161C115.354 239.553 116.101 239.051 116.875 238.472C117.673 237.926 118.281 237.145 118.613 236.238C118.792 235.21 118.792 234.16 118.613 233.132C118.545 231.975 118.786 230.821 119.311 229.788C119.863 228.702 120.682 227.775 121.692 227.094C122.748 226.386 123.986 225.995 125.258 225.97C126.529 225.908 127.806 226.04 129.07 225.873C129.692 225.797 130.293 225.595 130.835 225.279C131.375 224.936 131.811 224.454 132.099 223.883C132.606 222.685 132.972 221.432 133.188 220.149C133.332 219.508 133.555 218.886 133.851 218.299C134.16 217.71 134.602 217.201 135.142 216.813C136.229 216.175 137.432 215.76 138.681 215.591C139.831 215.431 140.933 215.026 141.913 214.405C142.358 214.094 142.712 213.67 142.939 213.176C143.15 212.688 143.243 212.157 143.211 211.627C143.093 210.584 142.84 209.561 142.457 208.583C142.101 207.636 141.942 206.627 141.989 205.617C142.028 205.124 142.179 204.647 142.429 204.221C142.682 203.824 143.023 203.491 143.427 203.251C144.181 202.862 145.004 202.624 145.849 202.553C146.582 202.474 147.309 202.35 148.027 202.183C149.163 201.873 150.166 201.198 150.882 200.263C151.34 199.678 151.679 199.01 151.88 198.295C152.013 197.799 152.027 197.527 152.048 197.527C152.047 197.79 152.014 198.053 151.95 198.309C151.78 199.05 151.454 199.747 150.994 200.354C150.273 201.331 149.25 202.043 148.083 202.378C147.359 202.559 146.625 202.694 145.884 202.783C145.072 202.863 144.282 203.1 143.56 203.481C143.186 203.707 142.872 204.021 142.647 204.395C142.422 204.77 142.292 205.194 142.269 205.631C142.235 206.604 142.396 207.575 142.743 208.486C143.144 209.483 143.407 210.53 143.525 211.599C143.565 212.181 143.467 212.764 143.239 213.302C142.994 213.86 142.603 214.342 142.108 214.698C141.091 215.35 139.946 215.778 138.751 215.954C137.549 216.115 136.391 216.513 135.345 217.127C134.377 217.914 133.734 219.029 133.537 220.261C133.318 221.573 132.943 222.855 132.42 224.079C132.1 224.701 131.618 225.224 131.024 225.593C130.438 225.938 129.787 226.157 129.111 226.236C127.785 226.41 126.501 226.271 125.265 226.333C124.083 226.366 122.931 226.719 121.934 227.356C120.936 227.993 120.131 228.889 119.605 229.949C119.092 230.924 118.851 232.018 118.907 233.118C119.092 234.183 119.092 235.271 118.907 236.336C118.546 237.299 117.895 238.126 117.043 238.702C116.282 239.288 115.514 239.777 114.879 240.356C113.721 241.398 112.977 242.823 112.785 244.37C112.658 245.541 112.958 246.718 113.63 247.685C114.047 248.312 114.616 248.824 115.284 249.172C115.752 249.374 116.024 249.43 116.017 249.451Z" fill="#455A64"/>
<path d="M173.916 264.242C174.132 264.034 174.335 263.812 174.523 263.579C175.025 262.871 175.304 262.031 175.326 261.164C175.373 259.794 175.052 258.437 174.398 257.234C173.7 255.789 172.611 254.295 171.885 252.348C171.143 250.209 171.143 247.883 171.885 245.745C172.287 244.556 172.913 243.454 173.728 242.499C174.572 241.522 175.598 240.705 176.415 239.665C177.232 238.625 177.811 237.292 177.406 235.994C177.001 234.695 175.829 233.781 174.796 232.762C174.242 232.252 173.771 231.658 173.4 231.003C173.042 230.318 172.826 229.568 172.764 228.797C172.668 227.24 172.929 225.681 173.525 224.239C174.091 222.774 174.837 221.447 175.459 220.051C176.114 218.738 176.537 217.321 176.708 215.863C176.804 214.487 176.582 213.106 176.06 211.828C175.539 210.55 174.731 209.409 173.7 208.493C172.658 207.72 171.564 207.021 170.426 206.399C169.869 206.055 169.393 205.596 169.03 205.051C168.721 204.507 168.522 203.907 168.444 203.285C168.375 202.722 168.192 202.178 167.906 201.687C167.609 201.232 167.2 200.859 166.72 200.605C165.772 200.156 164.77 199.83 163.739 199.635C162.771 199.45 161.832 199.135 160.947 198.7C160.178 198.29 159.473 197.77 158.853 197.157C157.848 196.176 157.074 194.984 156.585 193.667C156.274 192.848 156.093 191.987 156.047 191.112C156.024 190.808 156.024 190.502 156.047 190.198C156.057 191.368 156.277 192.526 156.696 193.618C157.201 194.892 157.977 196.04 158.972 196.982C159.58 197.576 160.274 198.075 161.031 198.462C161.89 198.879 162.801 199.182 163.739 199.363C164.797 199.548 165.825 199.874 166.796 200.333C167.323 200.602 167.77 201.004 168.095 201.499C168.401 202.022 168.603 202.601 168.688 203.202C168.759 203.785 168.947 204.347 169.239 204.856C169.574 205.361 170.015 205.787 170.531 206.105C171.684 206.723 172.792 207.423 173.846 208.199C174.926 209.15 175.772 210.338 176.317 211.67C176.862 213.002 177.091 214.442 176.987 215.877C176.821 217.377 176.391 218.835 175.717 220.184C175.089 221.58 174.321 222.899 173.797 224.323C173.222 225.715 172.967 227.217 173.051 228.721C173.106 229.452 173.31 230.165 173.651 230.815C174.005 231.439 174.454 232.005 174.984 232.49C175.5 232.992 176.052 233.474 176.541 234.011C177.058 234.538 177.449 235.175 177.685 235.875C177.882 236.582 177.86 237.331 177.622 238.025C177.398 238.689 177.058 239.308 176.617 239.854C175.773 240.929 174.733 241.745 173.916 242.688C173.121 243.608 172.51 244.672 172.115 245.822C171.393 247.899 171.393 250.159 172.115 252.236C172.813 254.121 173.888 255.635 174.572 257.122C175.224 258.363 175.528 259.757 175.452 261.157C175.416 262.043 175.106 262.896 174.565 263.6C174.387 263.85 174.168 264.067 173.916 264.242Z" fill="#455A64"/>
<path d="M166.043 255.95C169.983 260.081 172.142 265.597 172.052 271.306C171.871 280.854 173.413 298.172 173.413 298.172L199.833 314.323L192.378 325.743L163.272 312.83L157.164 300.328L166.043 255.95Z" fill="#455A64"/>
<path d="M174.118 321.38C174.118 321.38 175.103 319.489 172.332 318.044H167.843L159.084 302.918L166.064 255.95L154.114 246.876L127.667 244.523L118.418 292.057L130.235 313.66L153.674 323.286L174.118 321.38Z" fill="#455A64"/>
<path d="M132.336 244.865L132.867 240.384C132.886 240.18 132.951 239.982 133.055 239.805C133.16 239.629 133.303 239.477 133.473 239.362C133.643 239.246 133.836 239.17 134.039 239.138C134.242 239.106 134.449 239.119 134.647 239.177C141.201 244.314 147.909 246.917 155.056 244.865C155.521 244.995 155.918 245.3 156.162 245.717C156.405 246.134 156.477 246.63 156.361 247.099L153.569 258.323L146.331 260.494L136.775 258.623L132.308 250.373L132.336 244.865Z" fill="#455A64"/>
<path d="M155.245 247.957C154.977 248.167 154.684 248.34 154.372 248.474C153.569 248.892 152.73 249.237 151.866 249.507C149 250.421 145.941 250.553 143.006 249.89C140.071 249.228 137.366 247.794 135.17 245.738C134.508 245.124 133.901 244.454 133.355 243.735C133.143 243.479 132.961 243.2 132.811 242.904C133.605 243.832 134.451 244.716 135.345 245.549C137.546 247.514 140.212 248.886 143.09 249.535C145.969 250.183 148.965 250.087 151.796 249.256C152.97 248.891 154.121 248.457 155.245 247.957Z" fill="#263238"/>
<g opacity="0.2">
<path d="M133.614 243.776C133.445 244.209 133.386 244.677 133.443 245.137C133.501 245.598 133.672 246.037 133.942 246.415C134.496 247.155 135.174 247.795 135.945 248.306C138.513 250.219 141.18 252.111 144.251 252.99C147.322 253.87 150.924 253.534 153.283 251.378C153.981 250.756 154.491 249.584 153.786 248.99C153.255 248.544 152.453 248.816 151.81 249.067C148.648 250.277 145.171 250.39 141.936 249.389C138.701 248.388 135.896 246.33 133.97 243.546" fill="black"/>
</g>
<path d="M129.942 294.626L173.218 317.799L157.625 327.222L127.848 318.497C112.08 314.309 107.774 307.776 107.927 301.047C107.99 298.583 107.697 274.523 108.758 262.762C110.203 246.708 127.66 244.544 127.66 244.544L127.366 258.246L127.562 274.998L128.155 290.354C129.733 289.565 130.123 292.525 130.123 292.525L129.942 294.626Z" fill="#455A64"/>
<path d="M127.848 292.225C127.75 292.225 127.611 286.41 127.548 279.242C127.485 272.073 127.513 266.252 127.611 266.245C127.708 266.238 127.848 272.059 127.911 279.235C127.974 286.41 127.96 292.225 127.848 292.225Z" fill="#263238"/>
<path d="M129.809 295.414C129.761 295.414 129.9 295.128 129.963 294.716C130.054 294.15 129.951 293.569 129.67 293.069C129.373 292.579 128.917 292.204 128.378 292.008C127.967 291.848 127.68 291.841 127.68 291.778C127.68 291.715 127.974 291.652 128.462 291.778C128.78 291.853 129.079 291.992 129.342 292.186C129.604 292.38 129.824 292.626 129.989 292.908C130.153 293.19 130.259 293.503 130.299 293.827C130.339 294.151 130.312 294.48 130.221 294.793C130.068 295.24 129.844 295.442 129.809 295.414Z" fill="#263238"/>
<path d="M129.809 295.414C129.809 295.414 129.809 295.414 129.886 295.484L130.137 295.645C130.368 295.784 130.71 295.973 131.157 296.217C132.043 296.699 133.341 297.383 134.947 298.213L147.511 304.67L160.117 311.113L163.921 313.095L164.947 313.646C165.072 313.702 165.19 313.775 165.296 313.863C165.165 313.825 165.038 313.774 164.919 313.709L163.858 313.22L159.998 311.343C156.78 309.744 152.278 307.511 147.392 305.012C142.506 302.513 138.032 300.189 134.828 298.458C131.624 296.727 129.698 295.554 129.809 295.414Z" fill="#263238"/>
<path d="M158.092 303.386C157.406 303.289 156.73 303.125 156.075 302.897C154.84 302.541 153.144 302.018 151.287 301.389C149.43 300.761 147.797 300.133 146.575 299.658C145.918 299.435 145.283 299.152 144.677 298.814C145.365 298.962 146.04 299.167 146.694 299.428L151.433 301.047L156.18 302.66C156.837 302.845 157.477 303.088 158.092 303.386Z" fill="#263238"/>
<path d="M147.434 285.573C147.434 285.573 147.385 285.768 147.224 286.082C147.002 286.535 146.735 286.965 146.429 287.367C145.982 287.967 145.477 288.521 144.921 289.021C144.228 289.622 143.475 290.151 142.674 290.598C141.863 291.029 141.009 291.373 140.126 291.624C139.402 291.82 138.661 291.941 137.913 291.987C137.412 292.036 136.907 292.036 136.405 291.987C136.056 291.945 135.861 291.911 135.868 291.883C135.875 291.855 136.65 291.883 137.892 291.757C138.617 291.673 139.334 291.529 140.035 291.324C140.886 291.059 141.711 290.716 142.499 290.298C143.281 289.868 144.017 289.36 144.698 288.783C145.253 288.311 145.764 287.79 146.226 287.227C147.015 286.236 147.392 285.545 147.434 285.573Z" fill="#263238"/>
<path d="M127.68 262.294C127.625 262.294 127.534 261.324 127.304 259.761C127.047 257.73 126.501 255.746 125.684 253.87C124.849 252.004 123.546 250.386 121.901 249.172C121.195 248.704 120.453 248.293 119.681 247.943C119.922 247.956 120.159 248.013 120.379 248.111C120.977 248.323 121.546 248.606 122.076 248.956C123.811 250.146 125.183 251.794 126.04 253.716C126.877 255.625 127.4 257.657 127.59 259.733C127.673 260.521 127.715 261.164 127.729 261.603C127.749 261.835 127.733 262.068 127.68 262.294Z" fill="#263238"/>
<path d="M173.79 298.109C173.406 298.383 173.038 298.679 172.688 298.995C171.883 299.813 171.179 300.724 170.594 301.71C169.997 302.682 169.528 303.726 169.198 304.817C168.96 305.654 168.953 306.213 168.89 306.213C168.794 305.731 168.815 305.232 168.953 304.761C169.215 303.618 169.663 302.526 170.279 301.529C170.87 300.515 171.614 299.599 172.485 298.814C172.834 298.446 173.291 298.199 173.79 298.109Z" fill="#263238"/>
<g opacity="0.2">
<path d="M167.348 315.098C168.786 312.341 168.43 308.998 167.62 306.024C166.81 303.051 165.582 300.098 165.345 296.999C165.142 294.312 165.708 291.631 166.245 288.993C166.782 286.354 167.306 283.667 167.027 280.987C166.748 278.306 165.547 275.591 163.299 274.112C164.287 276.302 164.991 278.611 165.393 280.98C165.783 283.373 165.238 285.824 163.872 287.827C163.125 288.804 162.12 289.607 161.631 290.738C160.989 292.239 161.087 293.942 160.612 295.442C160.089 297.097 159.139 302.639 159.139 302.639C159.077 302.946 160.78 306.08 162.462 308.314C164.144 310.547 166.189 312.564 167.411 315.084" fill="black"/>
</g>
<path d="M167.453 314.91C167.453 314.91 167.39 314.847 167.278 314.707L166.803 314.072L165.051 311.643C163.544 309.507 161.443 306.534 158.944 303.009L158.909 302.953V302.883L161.184 291.75C161.275 291.324 161.359 290.905 161.443 290.494V290.445V290.403C163.964 287.878 165.395 284.465 165.428 280.896C165.332 278.153 164.353 275.514 162.636 273.372V273.337C162.525 271.557 162.434 270.133 162.371 269.114C162.371 268.646 162.329 268.276 162.315 267.99C162.301 267.86 162.301 267.729 162.315 267.599C162.353 267.724 162.374 267.853 162.378 267.983C162.378 268.269 162.441 268.639 162.49 269.1C162.58 270.119 162.706 271.543 162.86 273.288V273.225C164.646 275.396 165.671 278.093 165.777 280.903C165.817 282.639 165.489 284.364 164.814 285.964C164.101 287.721 163.053 289.324 161.729 290.682L161.778 290.591C161.694 290.996 161.61 291.422 161.52 291.848C160.71 295.833 159.956 299.616 159.258 302.918V302.792L165.254 311.503C165.952 312.543 166.524 313.374 166.929 313.981L167.362 314.644C167.418 314.826 167.466 314.91 167.453 314.91Z" fill="#263238"/>
<g opacity="0.2">
<path d="M136.077 292.106C135.652 291.764 134.975 292.294 135.002 292.839C135.048 293.109 135.159 293.364 135.324 293.583C135.489 293.801 135.704 293.977 135.952 294.095C137.272 294.833 138.791 295.136 140.293 294.961C142.173 294.856 143.962 294.118 145.368 292.867C146.059 292.239 146.579 291.446 146.879 290.562C147.18 289.678 147.25 288.732 147.085 287.813C147.061 287.663 146.999 287.521 146.903 287.401C146.547 287.038 145.961 287.443 145.612 287.813C143.187 290.359 139.881 291.882 136.371 292.071" fill="black"/>
</g>
<g opacity="0.2">
<path d="M127.653 291.799C126.845 291.47 125.952 291.41 125.108 291.627C124.263 291.845 123.511 292.328 122.962 293.006C122.764 293.206 122.63 293.46 122.579 293.737C122.528 294.013 122.562 294.299 122.676 294.556C122.813 294.743 123.005 294.883 123.224 294.958C123.444 295.033 123.681 295.038 123.904 294.975C124.35 294.832 124.76 294.593 125.105 294.277C125.908 293.656 126.696 293.013 127.457 292.35C127.577 292.269 127.671 292.155 127.729 292.022C127.757 291.957 127.76 291.884 127.736 291.817C127.713 291.749 127.666 291.693 127.604 291.659" fill="black"/>
</g>
<path d="M123.995 295.449C123.953 295.449 123.995 295.093 124.204 294.577C124.496 293.908 124.931 293.311 125.479 292.829C126.026 292.346 126.673 291.99 127.373 291.785C127.654 291.672 127.962 291.64 128.26 291.694C127.344 292.02 126.486 292.492 125.719 293.09C125.025 293.782 124.443 294.578 123.995 295.449Z" fill="#263238"/>
<path d="M111.145 271.655C111.028 269.578 111.028 267.497 111.145 265.421C111.153 263.343 111.279 261.267 111.522 259.202C111.648 261.276 111.648 263.355 111.522 265.428C111.517 267.509 111.391 269.588 111.145 271.655Z" fill="#FAFAFA"/>
<path d="M114.251 281.392C114.153 281.392 114.063 278.041 114.056 273.916C114.049 269.791 114.132 266.447 114.23 266.447C114.328 266.447 114.418 269.791 114.425 273.916C114.432 278.041 114.349 281.392 114.251 281.392Z" fill="#FAFAFA"/>
<path d="M119.835 256.71C119.915 257.272 119.934 257.841 119.891 258.407C119.891 259.454 119.849 260.898 119.786 262.49C119.723 264.081 119.647 265.526 119.57 266.573C119.572 267.14 119.507 267.704 119.374 268.255C119.294 267.696 119.275 267.13 119.318 266.566C119.318 265.519 119.36 264.074 119.423 262.476C119.486 260.877 119.563 259.433 119.64 258.393C119.636 257.826 119.702 257.261 119.835 256.71Z" fill="#FAFAFA"/>
<path d="M123.918 276.75C123.735 275.152 123.674 273.541 123.737 271.934C123.682 270.328 123.745 268.721 123.925 267.125C124.104 268.721 124.163 270.329 124.1 271.934C124.158 273.541 124.098 275.151 123.918 276.75Z" fill="#FAFAFA"/>
<path d="M119.332 287.729C119.23 286.218 119.247 284.701 119.381 283.192C119.399 281.677 119.534 280.164 119.786 278.669C119.882 281.701 119.731 284.736 119.332 287.743V287.729Z" fill="#FAFAFA"/>
<path d="M109.986 296.894C109.693 293.923 109.642 290.933 109.833 287.953C110.126 290.924 110.177 293.915 109.986 296.894Z" fill="#FAFAFA"/>
<path d="M114.223 297.578C114.103 296.502 114.103 295.416 114.223 294.34C114.224 293.257 114.343 292.178 114.579 291.122C114.699 292.198 114.699 293.284 114.579 294.36C114.582 295.443 114.462 296.522 114.223 297.578Z" fill="#FAFAFA"/>
<path d="M136.636 302.674C135.167 302.161 133.762 301.481 132.448 300.649C131.073 299.922 129.783 299.044 128.602 298.032C128.658 297.941 130.417 299.058 132.629 300.335C134.842 301.613 136.685 302.583 136.636 302.674Z" fill="#FAFAFA"/>
<path d="M150.882 310.142C150.379 310.008 149.896 309.808 149.444 309.549C147.195 308.429 145.086 307.046 143.162 305.431C142.742 305.12 142.367 304.754 142.045 304.342C142.115 304.258 143.93 305.78 146.366 307.371C148.802 308.963 150.952 310.045 150.882 310.142Z" fill="#FAFAFA"/>
<path d="M151.796 314.233C150.611 313.882 149.463 313.414 148.369 312.837C147.225 312.374 146.13 311.796 145.103 311.112C146.286 311.464 147.432 311.931 148.523 312.508C149.666 312.977 150.763 313.555 151.796 314.233Z" fill="#FAFAFA"/>
<path d="M161.45 317.576C161.394 317.667 159.802 316.662 157.729 315.622C155.656 314.582 153.911 313.891 153.946 313.793C156.68 314.526 159.235 315.814 161.45 317.576Z" fill="#FAFAFA"/>
<path d="M159.056 322.364C158.182 321.966 157.342 321.5 156.543 320.968C155.684 320.546 154.858 320.061 154.072 319.516C155.014 319.737 155.91 320.122 156.717 320.654C157.588 321.088 158.378 321.666 159.056 322.364Z" fill="#FAFAFA"/>
<path d="M125.391 293.502C125.176 292.559 125.077 291.593 125.098 290.626C125.002 289.662 125.023 288.689 125.161 287.729C125.384 288.671 125.485 289.638 125.461 290.605C125.561 291.57 125.538 292.543 125.391 293.502Z" fill="#FAFAFA"/>
<path d="M146.694 274.377C146.346 273.066 146.113 271.728 145.996 270.377C145.76 269.046 145.648 267.695 145.661 266.343C146.013 267.65 146.247 268.986 146.359 270.335C146.595 271.669 146.707 273.022 146.694 274.377Z" fill="#FAFAFA"/>
<path d="M149.011 286.257C148.811 284.851 148.73 283.432 148.767 282.013C148.687 280.597 148.729 279.177 148.893 277.769C149.092 279.174 149.172 280.594 149.13 282.013C149.214 283.428 149.174 284.848 149.011 286.257Z" fill="#FAFAFA"/>
<path d="M134.961 287.953C134.248 285.376 134.056 282.683 134.395 280.031C134.5 280.031 134.486 281.81 134.64 283.995C134.793 286.18 135.065 287.932 134.961 287.953Z" fill="#FAFAFA"/>
<path d="M139.77 299.623C139.361 298.425 139.126 297.175 139.072 295.91C138.908 294.658 138.922 293.389 139.114 292.141C139.284 293.382 139.391 294.63 139.435 295.882C139.623 297.941 139.875 299.602 139.77 299.623Z" fill="#FAFAFA"/>
<path d="M141.85 282.857C141.608 280.148 141.608 277.422 141.85 274.712C142.092 277.422 142.092 280.148 141.85 282.857Z" fill="#FAFAFA"/>
<path d="M136.07 268.821C136.322 270.851 136.322 272.905 136.07 274.935C135.828 272.904 135.828 270.852 136.07 268.821Z" fill="#FAFAFA"/>
<path d="M141.976 258.525C142.255 260.322 142.292 262.149 142.087 263.956C141.893 263.064 141.813 262.152 141.85 261.24C141.774 260.334 141.817 259.421 141.976 258.525Z" fill="#FAFAFA"/>
<path d="M152.802 269.847C152.499 267.938 152.317 266.013 152.257 264.081C152.076 262.16 152.013 260.23 152.069 258.302C152.377 260.207 152.561 262.131 152.62 264.06C152.797 265.984 152.858 267.916 152.802 269.847Z" fill="#FAFAFA"/>
<path d="M156.333 290.214C156.154 288.07 156.093 285.916 156.152 283.765C156.093 281.613 156.154 279.46 156.333 277.315C156.518 279.46 156.578 281.613 156.515 283.765C156.578 285.916 156.518 288.07 156.333 290.214Z" fill="#FAFAFA"/>
<path d="M149.996 300.629C149.752 297.609 149.752 294.574 149.996 291.555C150.239 294.574 150.239 297.609 149.996 300.629Z" fill="#FAFAFA"/>
<path d="M155.768 306.743C155.591 306.177 155.529 305.581 155.587 304.991C155.53 304.398 155.591 303.801 155.768 303.232C155.949 303.8 156.011 304.398 155.95 304.991C156.011 305.581 155.949 306.178 155.768 306.743Z" fill="#FAFAFA"/>
<path d="M159.621 263.956C159.863 266.705 159.863 269.47 159.621 272.22C159.379 269.47 159.379 266.705 159.621 263.956Z" fill="#FAFAFA"/>
<path d="M155.656 249.577C155.836 251.402 155.896 253.237 155.838 255.07C155.896 256.903 155.836 258.738 155.656 260.563C155.477 258.738 155.416 256.903 155.475 255.07C155.416 253.237 155.477 251.402 155.656 249.577Z" fill="#FAFAFA"/>
<path d="M148.188 251.05C148.43 253.536 148.43 256.039 148.188 258.525C147.946 256.039 147.946 253.536 148.188 251.05Z" fill="#FAFAFA"/>
<path d="M165.324 268.116C164.84 265.114 164.786 262.059 165.163 259.042C165.268 259.042 165.233 261.087 165.282 263.593C165.331 266.098 165.428 268.102 165.324 268.116Z" fill="#FAFAFA"/>
<path d="M168.604 275.752C168.362 272.678 168.362 269.591 168.604 266.517C168.846 269.591 168.846 272.678 168.604 275.752Z" fill="#FAFAFA"/>
<path d="M170.621 289.167C170.38 285.998 170.38 282.816 170.621 279.647C170.863 282.816 170.863 285.998 170.621 289.167Z" fill="#FAFAFA"/>
<path d="M166.008 296.524C165.766 293.162 165.766 289.787 166.008 286.424C166.25 289.787 166.25 293.162 166.008 296.524Z" fill="#FAFAFA"/>
<path d="M162.399 305.012C162.157 301.456 162.157 297.888 162.399 294.333C162.583 296.106 162.643 297.89 162.58 299.672C162.643 301.454 162.583 303.238 162.399 305.012Z" fill="#FAFAFA"/>
<path d="M170.335 300.566C170.093 298.504 170.093 296.422 170.335 294.36C170.577 296.422 170.577 298.504 170.335 300.566Z" fill="#FAFAFA"/>
<path d="M178.104 315.663C176.288 315.1 174.509 314.421 172.778 313.632C171.002 312.957 169.272 312.167 167.599 311.266C169.413 311.831 171.189 312.509 172.918 313.297C174.696 313.973 176.428 314.764 178.104 315.663Z" fill="#FAFAFA"/>
<path d="M187.346 312.871C185.411 312.378 183.509 311.765 181.65 311.036C179.746 310.424 177.881 309.697 176.066 308.858C177.999 309.355 179.901 309.969 181.762 310.694C183.664 311.309 185.529 312.036 187.346 312.871Z" fill="#FAFAFA"/>
<path d="M180.833 306.694C179.513 306.223 178.235 305.639 177.015 304.949C175.739 304.36 174.518 303.659 173.365 302.855C174.685 303.326 175.962 303.91 177.183 304.6C178.459 305.188 179.681 305.889 180.833 306.694Z" fill="#FAFAFA"/>
<path d="M119.374 249.535C119.451 249.619 118.341 250.624 117.245 252.09C116.15 253.555 115.472 254.882 115.375 254.833C115.693 253.745 116.232 252.735 116.959 251.866C117.592 250.929 118.415 250.135 119.374 249.535Z" fill="#FAFAFA"/>
<path d="M128.93 252.187C128.603 251.502 128.389 250.769 128.295 250.017C128.076 249.291 127.982 248.533 128.016 247.776C128.338 248.46 128.552 249.19 128.651 249.94C128.861 250.67 128.955 251.428 128.93 252.187Z" fill="#FAFAFA"/>
<path d="M168.883 324.298L215.056 301.878C217.372 300.749 219.936 300.222 222.509 300.344C225.083 300.466 227.585 301.233 229.784 302.576C231.68 303.735 233.302 305.291 234.538 307.138C235.774 308.984 236.595 311.077 236.943 313.272C237.292 315.466 237.16 317.71 236.556 319.849C235.953 321.988 234.893 323.97 233.448 325.659L213.444 349.07L162.371 356.133L157.59 327.208L163.272 318.414L168.883 324.298Z" fill="#6E858F"/>
<path d="M196.776 333.874C196.608 334.054 196.418 334.212 196.21 334.342C195.833 334.621 195.275 335.04 194.584 335.494C193.188 336.443 191.254 337.706 189.056 339.032C186.857 340.359 184.833 341.482 183.346 342.264C182.599 342.655 181.992 342.962 181.566 343.165C181.347 343.288 181.112 343.382 180.868 343.444C181.051 343.281 181.255 343.145 181.475 343.039L183.192 342.034C184.644 341.196 186.648 340.038 188.839 338.718C191.031 337.399 192.992 336.171 194.423 335.277L196.112 334.223C196.317 334.078 196.54 333.96 196.776 333.874Z" fill="#455A64"/>
<path d="M99.23 335.598C99.23 335.598 103.816 313.458 106.21 310.051C108.604 306.645 113.546 299.016 119.835 298.234C126.124 297.453 138.974 304.991 141.312 307.951C147.231 315.454 184.588 354.996 184.128 354.479L172.087 362.778L159.363 358.758H122.857C122.857 358.758 97.5688 354.479 99.23 335.598Z" fill="#6E858F"/>
<path d="M159.363 358.758C159.176 358.763 158.989 358.752 158.804 358.723C158.271 358.677 157.741 358.593 157.22 358.472C155.298 358.006 153.427 357.349 151.636 356.51C145.778 353.723 140.266 350.26 135.212 346.194C130.018 342.314 125.101 338.076 120.498 333.511C119.109 332.121 117.832 330.622 116.68 329.03C116.365 328.596 116.078 328.141 115.821 327.669C115.72 327.515 115.634 327.351 115.563 327.18C115.688 327.319 115.795 327.471 115.884 327.634C116.101 327.934 116.352 328.409 116.792 328.946C117.983 330.499 119.282 331.966 120.68 333.337C125.326 337.834 130.255 342.03 135.435 345.901C140.48 349.943 145.958 353.412 151.769 356.245C153.528 357.107 155.362 357.808 157.248 358.339C157.946 358.493 158.448 358.611 158.811 358.653C158.998 358.671 159.183 358.706 159.363 358.758Z" fill="#455A64"/>
<path d="M143.002 353.809C142.85 353.916 142.692 354.011 142.527 354.095L141.131 354.863C140.524 355.191 139.735 355.498 138.842 355.903C138.395 356.113 137.885 356.245 137.362 356.441C136.813 356.648 136.254 356.827 135.687 356.978C132.909 357.774 130.039 358.204 127.15 358.255C123.595 358.331 120.05 357.872 116.631 356.894C113.212 355.915 109.976 354.38 107.055 352.35C106.399 351.855 105.735 351.415 105.142 350.912C104.567 350.421 104.034 349.882 103.551 349.3C102.682 348.261 101.928 347.13 101.303 345.929C100.368 344.207 99.726 342.341 99.4045 340.408C99.3157 339.884 99.269 339.354 99.2649 338.823C99.2497 338.64 99.2497 338.455 99.2649 338.272C99.3068 338.272 99.2649 339.032 99.5302 340.366C99.8991 342.267 100.568 344.098 101.512 345.789C102.148 346.961 102.901 348.065 103.76 349.084C104.241 349.646 104.766 350.169 105.331 350.647C105.917 351.136 106.58 351.569 107.229 352.043C110.133 354.032 113.338 355.54 116.722 356.51C120.103 357.486 123.61 357.956 127.129 357.906C130.002 357.872 132.858 357.473 135.631 356.72C136.231 356.594 136.775 356.371 137.306 356.21C137.836 356.05 138.332 355.896 138.779 355.701C139.672 355.317 140.468 355.003 141.082 354.724L142.478 354.026C142.644 353.934 142.82 353.862 143.002 353.809Z" fill="#455A64"/>
<path d="M183.039 353.174C182.969 353.244 173.909 343.702 162.797 331.864C151.685 320.026 142.75 310.373 142.82 310.31C142.89 310.247 151.957 319.775 163.062 331.62C174.167 343.465 183.116 353.111 183.039 353.174Z" fill="#455A64"/>
<path d="M145.361 353.006C145.361 353.006 137.104 356.371 137.969 360.217C138.835 364.063 143.085 365.85 147.392 365.438C151.699 365.026 159.621 361.48 159.621 361.48L163.697 359.316C163.697 359.316 158.742 359.24 156.236 358.346C153.332 357.306 145.361 353.006 145.361 353.006Z" fill="white"/>
<path d="M155.573 359.756L184.889 364.363L246.773 358.193L212.843 348.895L155.607 357.125C155.292 357.17 155.003 357.328 154.794 357.569C154.585 357.81 154.47 358.118 154.47 358.437C154.468 358.752 154.578 359.057 154.78 359.298C154.982 359.539 155.263 359.702 155.573 359.756Z" fill="#455A64"/>
<path d="M192.762 317.743L185.67 359.672C185.582 360.221 185.621 360.783 185.784 361.314C185.947 361.846 186.23 362.332 186.611 362.737C186.992 363.142 187.461 363.453 187.982 363.648C188.503 363.843 189.061 363.916 189.614 363.86L246.759 358.165C247.543 358.087 248.28 357.756 248.86 357.222C249.439 356.688 249.829 355.98 249.97 355.205L257.676 312.795C257.777 312.239 257.746 311.668 257.588 311.126C257.43 310.584 257.147 310.087 256.763 309.673C256.379 309.259 255.904 308.94 255.376 308.742C254.847 308.544 254.28 308.471 253.718 308.53L195.938 314.742C195.155 314.831 194.422 315.171 193.849 315.713C193.276 316.254 192.895 316.967 192.762 317.743Z" fill="#455A64"/>
<path d="M154.449 358.437H154.602L155.056 358.486L156.794 358.73L163.244 359.693L185.084 363.093L184.882 363.239C185.245 361.054 185.614 358.779 185.998 356.455C187.722 346.138 189.279 336.806 190.417 330.014C190.996 326.657 191.464 323.928 191.813 322.015C191.973 321.087 192.106 320.361 192.204 319.837C192.246 319.607 192.287 319.426 192.315 319.279C192.324 319.212 192.34 319.147 192.364 319.084C192.372 319.149 192.372 319.214 192.364 319.279C192.364 319.433 192.322 319.621 192.287 319.851C192.211 320.375 192.099 321.108 191.966 322.036C191.659 323.956 191.226 326.692 190.696 330.056C189.593 336.855 188.071 346.194 186.389 356.51C185.998 358.835 185.628 361.11 185.265 363.302V363.476H185.084L163.237 359.986L156.801 358.918L155.07 358.618L154.623 358.528L154.449 358.437Z" fill="#263238"/>
<path d="M228.458 335.905C228.458 338.181 226.81 340.024 224.779 340.024C222.748 340.024 221.108 338.181 221.108 335.905C221.108 333.63 222.755 331.787 224.779 331.787C226.803 331.787 228.458 333.63 228.458 335.905Z" fill="#FAFAFA"/>
<path d="M142.345 221.741C143.825 223.925 145.319 226.145 146.143 228.651C146.966 231.157 147.057 234.025 145.773 236.329C144.705 238.241 142.743 239.742 142.408 241.913C141.85 245.605 146.282 248.341 146.596 252.062C146.778 254.156 145.57 256.166 144.195 257.792C142.82 259.419 141.215 260.898 140.321 262.832C139.428 264.765 139.477 267.32 141.11 268.716C139.072 268.144 136.957 270.307 134.947 269.637C133.237 269.072 132.783 266.908 132.615 265.114C132.196 265.648 131.909 266.274 131.777 266.939C131.645 267.605 131.671 268.293 131.855 268.946C130.33 267.338 129.344 265.296 129.031 263.103C128.719 260.91 129.095 258.673 130.11 256.703C131.338 254.421 133.432 252.411 133.432 249.87C133.397 247.078 130.78 244.984 130.047 242.241C129.537 240.384 129.956 238.409 130.514 236.566C131.073 234.723 131.785 232.888 131.862 230.982C131.938 229.077 131.764 228.288 130.117 227.297" fill="#263238"/>
<path d="M137.215 268.29H137.062C136.912 268.261 136.767 268.215 136.629 268.151C136.082 267.91 135.62 267.512 135.303 267.006C134.788 266.212 134.532 265.278 134.57 264.332C134.669 263.087 135.111 261.894 135.847 260.884C136.594 259.74 137.641 258.658 138.604 257.394C139.567 256.131 140.503 254.644 140.503 252.885C140.503 251.126 139.546 249.43 138.465 247.839C137.383 246.247 136.119 244.551 135.735 242.429C135.547 241.377 135.703 240.293 136.182 239.337C136.666 238.448 137.28 237.636 138.004 236.929C138.683 236.274 139.317 235.575 139.902 234.835C140.457 234.133 140.833 233.306 140.998 232.427C141.113 231.589 140.919 230.739 140.454 230.033C139.998 229.356 139.491 228.714 138.939 228.113C137.928 226.985 137.27 225.585 137.048 224.086C136.867 222.854 137.006 221.597 137.452 220.435C137.792 219.564 138.291 218.764 138.925 218.076C139.323 217.644 139.773 217.264 140.265 216.945C140.392 216.862 140.522 216.785 140.656 216.715C140.745 216.668 140.794 216.647 140.803 216.652C140.15 217.082 139.554 217.593 139.03 218.174C138.426 218.859 137.953 219.649 137.634 220.505C137.222 221.639 137.104 222.859 137.292 224.051C137.519 225.495 138.167 226.84 139.156 227.918C139.721 228.528 140.241 229.179 140.712 229.865C141.219 230.633 141.432 231.557 141.312 232.469C141.145 233.405 140.752 234.287 140.168 235.037C139.581 235.802 138.939 236.522 138.248 237.194C137.552 237.879 136.959 238.662 136.489 239.519C136.045 240.405 135.903 241.413 136.084 242.387C136.44 244.391 137.662 246.059 138.751 247.664C139.303 248.459 139.786 249.3 140.196 250.177C140.595 251.033 140.809 251.962 140.824 252.906C140.805 253.806 140.585 254.691 140.182 255.496C139.806 256.238 139.354 256.94 138.835 257.59C137.836 258.846 136.796 259.907 136.043 261.024C135.32 261.989 134.876 263.133 134.758 264.332C134.71 265.241 134.936 266.144 135.407 266.922C135.704 267.416 136.131 267.817 136.643 268.081C137.006 268.234 137.222 268.262 137.215 268.29Z" fill="#455A64"/>
<path d="M186.187 331.99C184.177 330.182 186.438 328.067 182.795 324.626C180.072 322.064 174.914 317.646 164.926 314.323L158.644 325.491L169.533 328.981L169.428 336.08C169.422 336.427 169.486 336.772 169.617 337.095C169.747 337.417 169.94 337.71 170.186 337.956C170.431 338.202 170.723 338.396 171.045 338.527C171.367 338.658 171.712 338.723 172.059 338.718L177.713 338.649C177.713 338.649 176.059 345.629 176.317 346.047C176.466 346.284 176.679 346.473 176.93 346.595C177.181 346.716 177.462 346.765 177.739 346.735C178.017 346.705 178.281 346.598 178.501 346.426C178.721 346.254 178.888 346.024 178.984 345.761C179.207 344.826 183.87 333.56 183.87 333.56C183.87 333.56 186.913 336.185 187.36 334.684C187.373 334.719 188.204 333.804 186.187 331.99Z" fill="#B78876"/>
<path d="M170.984 338.921C170.984 338.886 171.243 338.711 171.62 338.341C172.1 337.858 172.468 337.274 172.695 336.631C172.917 335.986 172.991 335.299 172.911 334.621C172.848 334.105 172.729 333.791 172.771 333.77C172.953 334.01 173.069 334.294 173.106 334.593C173.247 335.304 173.193 336.039 172.953 336.722C172.719 337.416 172.305 338.035 171.752 338.516C171.535 338.714 171.271 338.854 170.984 338.921Z" fill="#AA6550"/>
<path d="M174.614 338.69C175.087 338.023 175.455 337.286 175.703 336.506C175.862 335.704 175.895 334.882 175.801 334.07C175.938 334.279 176.022 334.519 176.045 334.768C176.146 335.366 176.12 335.98 175.968 336.568C175.817 337.156 175.543 337.706 175.165 338.181C174.872 338.551 174.614 338.711 174.614 338.69Z" fill="#AA6550"/>
<path d="M178.997 334.6C179.032 334.6 179.102 334.824 179.109 335.214C179.113 335.721 179.011 336.223 178.809 336.687C178.613 337.153 178.323 337.573 177.957 337.923C177.671 338.188 177.455 338.293 177.434 338.265C177.873 337.75 178.25 337.185 178.558 336.583C178.784 335.942 178.932 335.276 178.997 334.6Z" fill="#AA6550"/>
<path d="M327.204 301.955C327.832 299.777 329.172 297.676 331.252 296.776C333.332 295.875 335.922 296.378 338.134 297.18C340.347 297.983 342.525 299.058 344.87 299.205C347.215 299.351 349.875 298.234 350.58 295.987C351.243 293.893 349.966 291.624 348.374 290.089C346.686 288.475 344.62 287.31 342.365 286.701C340.11 286.092 337.739 286.059 335.468 286.604C333.197 287.149 331.099 288.256 329.366 289.822C327.633 291.388 326.321 293.364 325.549 295.568" fill="#D5D5D5"/>
<g opacity="0.5">
<path d="M327.204 301.955C327.832 299.777 329.172 297.676 331.252 296.776C333.332 295.875 335.922 296.378 338.134 297.18C340.347 297.983 342.525 299.058 344.87 299.205C347.215 299.351 349.875 298.234 350.58 295.987C351.243 293.893 349.966 291.624 348.374 290.089C346.686 288.475 344.62 287.31 342.365 286.701C340.11 286.092 337.739 286.059 335.468 286.604C333.197 287.149 331.099 288.256 329.366 289.822C327.633 291.388 326.321 293.364 325.549 295.568" fill="black"/>
</g>
<path d="M308.581 311.392C305.133 308.118 305.301 302.415 307.025 297.983C308.749 293.551 312.497 290.138 316.692 287.897C320.786 285.747 325.313 284.552 329.935 284.402C334.556 284.252 339.152 285.151 343.376 287.032C341.308 287.12 339.294 287.714 337.509 288.762C335.723 289.81 334.222 291.279 333.137 293.041C331.245 296.182 330.826 300.021 329.263 303.309C327.503 307.045 324.378 309.965 320.531 311.468C316.685 312.971 312.408 312.944 308.581 311.392Z" fill="#D5D5D5"/>
<path d="M306.92 291.708C303.102 287.206 302.592 279.968 303.158 274.091C303.723 268.213 305.084 262.294 304.156 256.459C303.604 253.004 302.264 249.702 301.811 246.233C301.357 242.764 301.999 238.835 304.686 236.601C307.778 234.025 312.644 234.633 315.854 237.048C319.065 239.463 320.929 243.26 322.29 247.05C325.284 255.363 326.38 264.584 323.923 273.072C321.466 281.559 315.701 289.126 307.248 291.708" fill="#D5D5D5"/>
<path d="M305.091 328.688C305.071 328.517 305.071 328.343 305.091 328.172C305.091 327.83 305.091 327.327 305.091 326.685C305.14 325.387 305.259 323.523 305.552 321.227C305.894 318.535 306.383 315.865 307.018 313.227C307.811 309.992 309.039 306.878 310.668 303.972C312.302 301.071 314.306 298.394 316.629 296.008C318.519 294.056 320.614 292.312 322.876 290.808C323.832 290.152 324.754 289.649 325.55 289.188C326.345 288.728 327.071 288.407 327.644 288.127L329.04 287.548C329.198 287.477 329.362 287.416 329.528 287.367C329.381 287.457 329.227 287.537 329.067 287.604L327.72 288.239C327.148 288.532 326.45 288.902 325.626 289.342C324.803 289.782 323.937 290.326 322.995 290.996C318.022 294.394 313.895 298.888 310.933 304.133C307.443 310.268 306.466 316.697 305.768 321.254C305.447 323.537 305.294 325.401 305.203 326.692L305.119 328.172C305.122 328.344 305.112 328.517 305.091 328.688Z" fill="#263238"/>
<path d="M272.153 273.93C265.089 278.195 265.11 282.076 266.289 285.733C267.469 289.391 271.81 291.938 275.405 290.57C277.436 289.796 278.895 288.03 280.166 286.257C281.436 284.484 282.602 282.578 284.354 281.308C286.106 280.038 288.674 279.542 290.44 280.805" fill="#D5D5D5"/>
<g opacity="0.5">
<path d="M272.153 273.93C265.089 278.195 265.11 282.076 266.289 285.733C267.469 289.391 271.81 291.938 275.405 290.57C277.436 289.796 278.895 288.03 280.166 286.257C281.436 284.484 282.602 282.578 284.354 281.308C286.106 280.038 288.674 279.542 290.44 280.805" fill="black"/>
</g>
<path d="M266.869 278.607C268.711 276.052 273.276 275.312 276.159 276.589C279.042 277.867 281.15 280.387 283.041 282.906C284.933 285.426 286.769 288.092 289.386 289.844C292.004 291.596 295.668 292.232 298.265 290.466C299.096 289.846 299.793 289.064 300.311 288.166C300.83 287.269 301.159 286.274 301.28 285.245C301.513 283.182 301.373 281.094 300.868 279.081C300.247 276.122 299.228 273.03 296.855 271.145C294.209 269.051 290.573 268.946 287.173 269.051C283.307 269.177 279.377 269.47 275.747 270.81C272.118 272.15 268.404 275.047 266.869 278.6" fill="#D5D5D5"/>
<path d="M299.214 323.034C299.214 323.034 299.214 322.979 299.214 322.881V322.42C299.214 321.994 299.179 321.408 299.158 320.668C299.109 319.119 299.046 316.927 298.97 314.219C298.893 311.51 298.774 308.258 298.579 304.663C298.383 301.068 298.111 297.118 297.567 293.006C297.333 291.006 296.941 289.026 296.394 287.087C295.833 285.298 295.108 283.565 294.23 281.908C293.444 280.403 292.529 278.969 291.494 277.623C290.591 276.452 289.595 275.357 288.514 274.349C286.938 272.895 285.158 271.679 283.23 270.74C282.881 270.587 282.581 270.426 282.308 270.321L281.61 270.049L281.185 269.882L281.045 269.812L281.192 269.847L281.631 269.993L282.329 270.231C282.609 270.335 282.916 270.482 283.265 270.629C285.232 271.53 287.049 272.729 288.653 274.181C289.753 275.191 290.768 276.288 291.69 277.462C292.74 278.816 293.674 280.257 294.482 281.769C295.374 283.44 296.11 285.19 296.68 286.997C297.239 288.95 297.636 290.946 297.867 292.965C298.418 297.097 298.677 301.054 298.858 304.649C299.039 308.244 299.13 311.489 299.186 314.212C299.242 316.934 299.263 319.147 299.27 320.668V322.42C299.27 322.609 299.27 322.755 299.27 322.881C299.262 322.935 299.243 322.988 299.214 323.034Z" fill="#263238"/>
<path d="M301.762 326.224C301.424 325.236 301.165 324.223 300.987 323.195C300.494 320.379 300.384 317.51 300.659 314.665C301.096 310.458 302 306.312 303.353 302.304C304.805 297.76 306.773 292.895 308.456 287.646C309.284 285.108 309.96 282.523 310.48 279.905C310.947 277.463 311.282 274.998 311.485 272.52C311.801 268.317 311.876 264.098 311.708 259.886C311.59 256.292 311.394 253.381 311.275 251.371C311.22 250.38 311.171 249.605 311.143 249.06C311.143 248.802 311.143 248.607 311.108 248.453C311.1 248.386 311.1 248.318 311.108 248.251C311.111 248.318 311.111 248.386 311.108 248.453C311.108 248.607 311.108 248.802 311.171 249.053C311.213 249.598 311.282 250.373 311.366 251.364C311.52 253.374 311.743 256.25 311.897 259.879C312.102 264.099 312.049 268.328 311.736 272.541C311.361 277.713 310.348 282.82 308.721 287.743C307.032 292.985 305.056 297.837 303.597 302.367C302.233 306.351 301.311 310.473 300.847 314.658C300.555 317.485 300.63 320.338 301.071 323.146C301.245 324.13 301.406 324.898 301.545 325.408C301.601 325.652 301.65 325.847 301.685 325.994L301.762 326.224Z" fill="#263238"/>
<path d="M319.274 329.421H286.106L285.345 323.034H319.274V329.421Z" fill="#455A64"/>
<path d="M289.658 328.688L293.811 347.841H311.834L315.715 328.688H289.658Z" fill="#455A64"/>
<path d="M319.275 329.442C319.275 329.526 311.98 329.575 302.983 329.554C293.986 329.533 286.699 329.435 286.699 329.344C286.699 329.254 293.986 329.212 302.983 329.233C311.98 329.254 319.275 329.33 319.275 329.442Z" fill="#455A64"/>
<path d="M313.579 338.872C312.679 338.195 311.699 337.633 310.661 337.197C309.528 336.755 308.325 336.519 307.108 336.499C305.615 336.499 304.135 336.771 302.739 337.302C301.224 337.811 299.814 338.404 298.439 338.732C297.219 338.999 295.96 339.037 294.726 338.844C293.894 338.727 293.087 338.472 292.339 338.09C292.136 337.983 291.942 337.859 291.759 337.72C291.692 337.678 291.631 337.626 291.578 337.567C291.578 337.567 291.864 337.734 292.395 337.979C293.144 338.309 293.94 338.526 294.754 338.621C295.962 338.776 297.188 338.717 298.376 338.446C299.703 338.118 301.113 337.518 302.641 337.001C304.071 336.462 305.588 336.193 307.115 336.206C308.364 336.246 309.594 336.516 310.745 337.001C311.516 337.327 312.241 337.752 312.902 338.265C313.084 338.402 313.256 338.551 313.418 338.711C313.516 338.802 313.586 338.865 313.579 338.872Z" fill="#263238"/>
<path d="M313.328 340.149C312.463 339.493 311.527 338.938 310.536 338.495C309.445 338.057 308.284 337.82 307.108 337.797C305.667 337.803 304.238 338.06 302.885 338.558C301.427 339.046 300.052 339.612 298.746 339.954C297.586 340.288 296.378 340.422 295.173 340.352C294.359 340.303 293.564 340.092 292.834 339.731C292.64 339.625 292.453 339.506 292.276 339.375C292.157 339.284 292.094 339.235 292.101 339.221C292.108 339.207 292.374 339.382 292.883 339.619C293.613 339.928 294.394 340.101 295.187 340.128C296.367 340.169 297.546 340.015 298.677 339.675C299.961 339.312 301.322 338.739 302.802 338.244C304.187 337.735 305.653 337.482 307.129 337.497C308.332 337.533 309.517 337.801 310.619 338.286C311.37 338.609 312.075 339.032 312.713 339.542C312.889 339.674 313.054 339.819 313.209 339.975C313.279 340.086 313.335 340.142 313.328 340.149Z" fill="white"/>
<path d="M313.907 337.602C312.974 336.906 311.967 336.313 310.905 335.836C309.752 335.337 308.522 335.039 307.269 334.956C305.728 334.926 304.197 335.196 302.76 335.752C301.305 336.321 299.818 336.806 298.307 337.204C297.039 337.425 295.742 337.425 294.475 337.204C293.619 337.069 292.789 336.807 292.011 336.429C291.801 336.319 291.6 336.193 291.41 336.052C291.278 335.961 291.215 335.905 291.222 335.892C291.229 335.878 291.515 336.066 292.059 336.317C292.842 336.656 293.666 336.891 294.509 337.015C295.755 337.193 297.021 337.167 298.258 336.939C299.75 336.527 301.22 336.038 302.662 335.473C304.134 334.904 305.706 334.638 307.283 334.691C308.568 334.786 309.825 335.11 310.996 335.647C311.783 336.003 312.526 336.451 313.209 336.98C313.395 337.123 313.572 337.276 313.739 337.441C313.858 337.532 313.914 337.595 313.907 337.602Z" fill="white"/>
<path d="M319.568 329.442C319.568 329.533 312.106 329.603 302.899 329.603C293.693 329.603 286.238 329.533 286.238 329.442C286.238 329.351 293.7 329.288 302.899 329.288C312.099 329.288 319.568 329.358 319.568 329.442Z" fill="#263238"/>
<defs>
<linearGradient id="paint0_linear_2369_1039" x1="269.705" y1="-38.2539" x2="370.43" y2="136.207" gradientUnits="userSpaceOnUse">
<stop stop-color="white"/>
<stop offset="1" stop-color="white" stop-opacity="0"/>
</linearGradient>
<linearGradient id="paint1_linear_2369_1039" x1="-29.0234" y1="-9.73932" x2="70.6128" y2="162.836" gradientUnits="userSpaceOnUse">
<stop stop-color="white"/>
<stop offset="1" stop-color="white" stop-opacity="0"/>
</linearGradient>
</defs>
</svg>
