<svg width="361" height="444" viewBox="0 0 361 444" fill="none" xmlns="http://www.w3.org/2000/svg">
<mask id="mask0_2369_117" style="mask-type:alpha" maskUnits="userSpaceOnUse" x="0" y="0" width="361" height="444">
<rect x="0.5" y="0.5" width="360" height="443" fill="#D9D9D9" stroke="black"/>
</mask>
<g mask="url(#mask0_2369_117)">
<rect width="360" height="450" fill="#224091"/>
<circle cx="281" cy="352" r="84" fill="#234399"/>
<path opacity="0.1" d="M217.808 -8.29126L319.929 -11.1894L380.403 103.26L314.953 158.393L217.808 -8.29126Z" fill="url(#paint0_linear_2369_117)"/>
<path opacity="0.1" d="M-34.399 31.9578L-33.0512 -3.27313L-22.899 -8.24038L-1.07616 -9.0399L98.4855 155.293L45.4871 157.235L-34.399 31.9578Z" fill="url(#paint1_linear_2369_117)"/>
<circle cx="36" cy="199" r="83.5" stroke="#294BA6"/>
</g>
<path d="M335.052 339.548C335.052 339.649 266.861 339.735 182.765 339.735C98.6689 339.735 30.4705 339.649 30.4705 339.548C30.4705 339.447 98.6473 339.361 182.765 339.361C266.882 339.361 335.052 339.44 335.052 339.548Z" fill="#EBEBEB"/>
<path d="M335.052 307.854C335.052 307.962 266.861 308.048 182.765 308.048C98.6689 308.048 30.4705 307.962 30.4705 307.854C30.4705 307.746 98.6473 307.666 182.765 307.666C266.882 307.666 335.052 307.76 335.052 307.854Z" fill="#EBEBEB"/>
<path d="M335.052 274.129C335.052 274.237 266.861 274.316 182.765 274.316C98.6689 274.316 30.4705 274.237 30.4705 274.129C30.4705 274.021 98.6401 273.92 182.765 273.92C266.89 273.92 335.052 274.028 335.052 274.129Z" fill="#EBEBEB"/>
<path d="M335.052 242.442C335.052 242.542 266.861 242.629 182.765 242.629C98.6689 242.629 30.4705 242.542 30.4705 242.442C30.4705 242.341 98.6401 242.24 182.765 242.24C266.89 242.24 335.052 242.334 335.052 242.442Z" fill="#EBEBEB"/>
<path d="M335.052 208.71C335.052 208.818 266.861 208.904 182.765 208.904C98.6689 208.904 30.4705 208.818 30.4705 208.71C30.4705 208.602 98.6473 208.522 182.765 208.522C266.882 208.522 335.052 208.609 335.052 208.71Z" fill="#EBEBEB"/>
<path d="M335.052 177.022C335.052 177.123 266.861 177.21 182.765 177.21C98.6689 177.21 30.4705 177.123 30.4705 177.022C30.4705 176.922 98.6473 176.835 182.765 176.835C266.882 176.835 335.052 176.922 335.052 177.022Z" fill="#EBEBEB"/>
<path d="M335.052 143.298C335.052 143.398 266.861 143.485 182.765 143.485C98.6689 143.485 30.4705 143.398 30.4705 143.298C30.4705 143.197 98.6473 143.11 182.765 143.11C266.882 143.11 335.052 143.19 335.052 143.298Z" fill="#EBEBEB"/>
<path d="M335.052 110.048C335.052 110.156 266.861 110.235 182.765 110.235C98.6689 110.235 30.4705 110.156 30.4705 110.048C30.4705 109.94 98.6473 109.861 182.765 109.861C266.882 109.861 335.052 109.947 335.052 110.048Z" fill="#EBEBEB"/>
<path d="M298.166 355.734C295.297 354.468 292.159 353.929 289.032 354.162C285.904 354.396 282.881 355.395 280.231 357.073C279.527 352.15 277.733 347.447 274.979 343.307C272.225 339.166 268.582 335.693 264.314 333.14C260.047 330.587 255.263 329.019 250.313 328.551C245.362 328.083 240.37 328.725 235.699 330.433C234.871 324.8 232.701 319.449 229.372 314.831C226.043 310.213 221.652 306.462 216.57 303.896C211.488 301.329 205.864 300.022 200.171 300.085C194.478 300.147 188.884 301.577 183.859 304.254C180.512 301.612 176.604 299.773 172.435 298.877C168.266 297.981 163.947 298.053 159.81 299.087C155.673 300.121 151.829 302.089 148.571 304.841C145.314 307.593 142.73 311.054 141.019 314.96C136.555 311.05 131.111 308.428 125.27 307.376C119.43 306.323 113.413 306.88 107.864 308.985C102.316 311.091 97.4444 314.666 93.7724 319.328C90.1004 323.99 87.766 329.564 87.0193 335.451C82.8353 334.079 78.3975 333.661 74.031 334.227C69.6644 334.792 65.4797 336.328 61.7833 338.72C54.4465 343.58 46.8001 358.462 46.0801 367.225L307.966 368.542C307.087 362.358 303.84 358.311 298.166 355.734Z" fill="#F5F5F5"/>
<path d="M122.918 117.327L151.027 81.9608L178.841 117.118L122.918 117.327Z" fill="#EBEBEB"/>
<path d="M163.867 111.563L138.394 111.656L138.772 214.666L164.245 214.573L163.867 111.563Z" fill="#EBEBEB"/>
<path d="M178.841 92.768L194.544 73.0184L210.074 92.6528L178.841 92.768Z" fill="#F5F5F5"/>
<path d="M201.716 89.5511L187.489 89.6032L187.7 147.124L201.927 147.072L201.716 89.5511Z" fill="#F5F5F5"/>
<path d="M24.9552 361.299C72.3673 363.252 119.188 350.201 158.753 324.003C197.935 297.91 220.5 254.818 236.736 210.632L269.59 221.907C269.59 221.907 248.76 321.728 191.83 367.851H24.9552V361.299Z" fill="#C9C9C9"/>
<g opacity="0.6">
<path d="M24.9552 361.299C72.3673 363.252 119.188 350.201 158.753 324.003C197.935 297.91 220.5 254.818 236.736 210.632L269.59 221.907C269.59 221.907 248.76 326.307 191.83 367.851H24.9552V361.299Z" fill="white"/>
</g>
<path d="M233.021 222.332C233.266 222.418 233.165 223.376 232.747 225.126C232.538 225.997 232.25 227.07 231.89 228.33L231.286 230.353C231.055 231.073 230.782 231.793 230.494 232.628C229.918 234.226 229.27 236.005 228.535 237.942C227.801 239.878 226.858 241.923 225.9 244.141C224.942 246.358 223.74 248.677 222.574 251.154C221.407 253.63 219.953 256.158 218.491 258.836L217.375 260.866C216.965 261.536 216.562 262.213 216.144 262.897L213.602 267.08L212.947 268.153L212.227 269.211L210.787 271.371C209.815 272.811 208.865 274.294 207.814 275.756C205.654 278.636 203.558 281.71 201.11 284.662C199.908 286.153 198.727 287.708 197.438 289.198C196.15 290.689 194.839 292.194 193.507 293.72L192.506 294.872L191.455 295.988L189.36 298.22L187.2 300.495C186.48 301.258 185.71 301.935 184.954 302.72C183.427 304.196 181.915 305.715 180.331 307.191L175.45 311.569C168.56 317.529 161.289 323.034 153.684 328.05C138.961 337.659 123.155 345.499 106.596 351.406L100.937 353.358L95.3568 355.05L92.6208 355.87L89.8992 356.59L84.5856 357.951C82.836 358.354 81.1008 358.671 79.4088 359.067C77.7168 359.463 76.0536 359.787 74.3688 360.054L69.5376 360.853C68.7456 360.975 67.968 361.126 67.1904 361.227L64.8936 361.501C61.8552 361.854 58.9752 362.221 56.2536 362.394C53.532 362.566 50.9328 362.818 48.5064 362.811C46.08 362.804 43.8336 362.919 41.76 362.89C39.6864 362.862 37.7928 362.732 36.0936 362.646C35.244 362.595 34.4448 362.566 33.696 362.502L31.5864 362.257C30.2832 362.098 29.1888 361.94 28.3032 361.789C26.532 361.494 25.6104 361.206 25.6248 360.946C25.6392 360.687 26.5896 360.471 28.3608 360.284C29.2536 360.19 30.348 360.104 31.6368 360.025L33.7176 359.924L36.0864 359.722C37.7568 359.588 39.6072 359.451 41.6376 359.312C43.6608 359.132 45.8568 358.866 48.2112 358.635C50.5656 358.405 53.0712 358.002 55.728 357.649C58.3848 357.296 61.2 356.72 64.08 356.245L66.3048 355.849C67.0248 355.712 67.8024 355.532 68.5584 355.366L73.224 354.358C74.8152 354.049 76.4064 353.595 78.0408 353.185L83.0304 351.903L88.1352 350.398L90.7488 349.628L93.3768 348.75L98.7408 346.957L104.184 344.919C120.08 338.831 135.285 331.074 149.544 321.778C156.882 316.94 163.927 311.67 170.64 305.996L175.414 301.834C176.962 300.43 178.445 298.954 179.95 297.586C180.67 296.866 181.454 296.204 182.16 295.477C182.866 294.75 183.6 294.037 184.277 293.317L186.379 291.157L187.423 290.106L188.417 289.018L192.334 284.734C193.622 283.294 194.803 281.854 196.013 280.414C198.475 277.628 200.621 274.726 202.81 272.005C203.882 270.63 204.862 269.211 205.862 267.858L207.346 265.842L208.066 264.841L208.786 263.833L211.457 259.88L212.753 257.972L213.948 256.057C215.518 253.53 217.087 251.161 218.39 248.814C219.694 246.466 221.069 244.328 222.149 242.218C223.229 240.109 224.309 238.186 225.295 236.401C226.282 234.615 227.045 232.916 227.815 231.426C228.204 230.706 228.535 229.986 228.91 229.316C229.284 228.646 229.543 228.027 229.824 227.444C230.4 226.285 230.911 225.284 231.343 224.564C232.2 223.023 232.776 222.246 233.021 222.332Z" fill="#C9C9C9"/>
<path d="M234.835 237.69C231.466 241.495 228.882 245.929 227.232 250.736C227.002 251.423 226.993 252.165 227.209 252.857C227.424 253.549 227.851 254.155 228.431 254.59C229.01 255.025 229.712 255.267 230.436 255.281C231.161 255.295 231.871 255.08 232.466 254.667L232.538 254.617C230.189 260.374 228.22 266.279 226.642 272.293C226.418 273.136 226.459 274.028 226.76 274.847C227.061 275.666 227.607 276.373 228.323 276.871C229.04 277.369 229.893 277.634 230.765 277.63C231.638 277.627 232.488 277.354 233.201 276.85C246.037 267.752 255.136 254.306 258.811 239.007L234.835 237.69Z" fill="#C9C9C9"/>
<g opacity="0.3">
<path d="M235.98 243.867C235.36 244.483 234.87 245.218 234.54 246.027C234.382 246.432 234.345 246.874 234.433 247.3C234.521 247.725 234.731 248.116 235.037 248.425C236.023 249.26 237.715 248.756 238.637 249.642C239.558 250.527 239.04 252.241 238.385 253.45L236.311 257.288C235.807 258.224 235.31 259.448 235.966 260.283C236.621 261.118 238.169 260.888 239.227 260.355C241.668 259.086 243.763 257.244 245.335 254.987C246.906 252.729 247.906 250.124 248.249 247.395L235.98 243.867Z" fill="black"/>
</g>
<path d="M293.076 192.38L293.27 192.661C298.789 200.913 302.385 210.298 303.794 220.125C305.202 229.952 304.386 239.97 301.406 249.44L297.626 261.471L278.942 237.373L293.076 192.38Z" fill="#C9C9C9"/>
<path d="M293.076 192.38L293.011 192.603L292.81 193.258C292.63 193.834 292.378 194.698 292.046 195.75C291.37 197.91 290.39 201.092 289.166 205.074C286.69 212.994 283.205 224.247 279.086 237.416V237.258L296.122 259.218L297.77 261.378L297.446 261.442C298.205 259.042 298.949 256.678 299.678 254.35C300.398 252.018 301.169 249.728 301.781 247.46C303.009 243.106 303.79 238.638 304.114 234.126C304.411 230.046 304.319 225.948 303.84 221.886C303.667 219.97 303.293 218.156 302.998 216.406C302.702 214.657 302.278 212.994 301.788 211.446C300.397 206.49 298.427 201.714 295.92 197.218C295.085 195.606 294.286 194.446 293.803 193.618L293.047 192.373C293.047 192.373 293.119 192.459 293.27 192.668L293.861 193.575C294.365 194.389 295.193 195.541 296.021 197.175C298.57 201.654 300.569 206.423 301.975 211.381C302.479 212.936 302.803 214.621 303.221 216.356C303.523 218.113 303.905 219.956 304.085 221.857C304.583 225.932 304.687 230.045 304.394 234.14C304.079 238.678 303.302 243.173 302.076 247.554C301.464 249.843 300.686 252.118 299.974 254.451C299.261 256.784 298.534 259.146 297.749 261.543L297.641 261.889L297.418 261.601C296.899 260.931 296.33 260.204 295.769 259.441L278.748 237.466L278.698 237.394V237.308L288.994 204.872C290.254 200.926 291.247 197.794 291.938 195.634C292.277 194.576 292.543 193.762 292.723 193.194L293.04 192.56C293.047 192.499 293.059 192.439 293.076 192.38V192.38Z" fill="#263238"/>
<path d="M224.842 170.96L224.518 171.082C215.399 174.648 207.196 180.214 200.516 187.372C193.835 194.53 188.847 203.096 185.918 212.439L182.196 224.305L210.902 215.334L224.842 170.96Z" fill="#C9C9C9"/>
<path d="M224.842 170.96C224.842 170.96 224.842 171.025 224.784 171.162C224.726 171.298 224.676 171.522 224.597 171.781C224.424 172.342 224.172 173.156 223.877 174.2L221.04 183.322L211.082 215.37V215.463H210.996L184.831 223.657L182.29 224.449L181.951 224.557L182.059 224.211L184.219 217.22C184.939 214.923 185.616 212.648 186.379 210.452C187.859 206.214 189.765 202.137 192.067 198.284C194.146 194.805 196.557 191.535 199.267 188.521C200.498 187.081 201.83 185.806 203.069 184.554C204.307 183.301 205.596 182.206 206.878 181.227C210.815 178.018 215.125 175.296 219.715 173.12C221.314 172.299 222.595 171.838 223.495 171.464L224.489 171.061L224.842 170.946L223.524 171.529C222.667 171.925 221.364 172.407 219.78 173.242C215.23 175.474 210.955 178.229 207.043 181.45C205.776 182.437 204.566 183.61 203.263 184.784C201.96 185.958 200.714 187.297 199.498 188.744C196.817 191.755 194.432 195.017 192.377 198.486C190.101 202.312 188.215 206.357 186.746 210.56C185.962 212.72 185.306 215.031 184.586 217.321C183.866 219.61 183.146 221.958 182.426 224.319L182.196 224.082L184.738 223.29L210.91 215.125L210.794 215.24C214.906 202.28 218.419 191.228 220.874 183.402C222.12 179.485 223.114 176.374 223.798 174.229C224.136 173.17 224.402 172.35 224.582 171.781C224.669 171.507 224.741 171.298 224.791 171.14C224.804 171.079 224.82 171.019 224.842 170.96V170.96Z" fill="#263238"/>
<path d="M295.92 63.86C290.52 62.168 276.206 73.0112 259.654 93.4376C243.36 113.554 236.614 133.462 236.614 133.462L205.085 233.852L231.538 242.161L246.866 246.97L273.319 255.279L301.932 164.185C304.74 155.286 306.69 146.138 307.757 136.868C308.852 127.575 309.201 118.209 308.801 108.86C307.49 82.7096 301.356 65.5592 295.949 63.86" fill="#F5F5F5"/>
<path d="M295.92 63.86L296.158 63.9464L296.453 64.0616L296.834 64.2776C297.658 64.8164 298.377 65.4993 298.958 66.2936C300.55 68.3456 302.256 71.8232 303.746 76.532C305.5 82.2928 306.765 88.1914 307.526 94.1648C308.009 97.664 308.398 101.422 308.671 105.433C308.945 109.443 309.11 113.691 309.06 118.162C309.01 122.634 308.772 127.321 308.34 132.202C307.908 137.288 307.221 142.349 306.281 147.366C305.256 152.758 303.934 158.089 302.321 163.335C300.626 168.74 298.882 174.31 297.086 180.046C289.886 202.957 281.93 228.351 273.463 255.337L273.413 255.517L273.233 255.459L239.119 244.746L204.998 234.025L204.818 233.974L204.876 233.794C213.358 206.809 221.342 181.414 228.55 158.504C230.35 152.773 232.099 147.205 233.798 141.8C234.648 139.102 235.486 136.443 236.311 133.822C237.197 131.216 238.255 128.732 239.335 126.313C243.374 117.384 248.249 108.857 253.894 100.846C258.593 94.3443 263.704 88.1492 269.194 82.2992C273.274 77.8622 277.683 73.7393 282.384 69.9656C286.265 66.9128 289.584 64.9688 292.082 64.1552C293.006 63.8243 293.982 63.6657 294.962 63.6872L295.394 63.7232L295.704 63.7952L295.942 63.86L295.697 63.8168L295.394 63.752L294.962 63.716C293.98 63.7114 293.005 63.8821 292.082 64.22C289.634 65.048 286.322 67.0064 282.442 70.0736C277.783 73.8545 273.41 77.9745 269.359 82.4C263.905 88.2692 258.828 94.4785 254.16 100.99C248.539 108.994 243.686 117.511 239.666 126.428C238.594 128.847 237.506 131.331 236.664 133.916L234.158 141.894C232.464 147.298 230.719 152.869 228.924 158.605C221.724 181.515 213.804 206.917 205.294 233.91L205.171 233.672L239.263 244.4L273.377 255.121L273.139 255.243L296.806 179.96L302.054 163.263C303.662 158.024 304.98 152.7 306 147.315C307.001 142.117 307.634 137.055 308.081 132.195C308.527 127.335 308.758 122.641 308.801 118.17C308.844 113.698 308.714 109.465 308.441 105.462C308.167 101.458 307.793 97.7 307.318 94.208C306.574 88.2416 305.331 82.3482 303.602 76.5896C302.162 71.8808 300.456 68.4032 298.886 66.3512C298.316 65.5565 297.609 64.869 296.798 64.3208L296.424 64.0976L296.136 63.9824L295.92 63.86Z" fill="#263238"/>
<path d="M289.064 160.762C304.144 152.643 309.786 133.836 301.666 118.757C293.547 103.677 274.74 98.0349 259.661 106.154C244.581 114.274 238.939 133.08 247.059 148.16C255.178 163.24 273.985 168.882 289.064 160.762Z" fill="white"/>
<path d="M298.663 118.753C298.487 118.771 298.309 118.753 298.14 118.7C297.971 118.647 297.815 118.56 297.68 118.445C297.545 118.33 297.436 118.189 297.357 118.03C297.279 117.871 297.233 117.698 297.223 117.522C297.207 116.813 297.447 116.123 297.9 115.578C298.347 115.035 298.727 114.44 299.03 113.806C299.245 113.201 299.26 112.544 299.074 111.929C298.887 111.315 298.509 110.777 297.994 110.394C298.339 110.242 298.65 110.023 298.908 109.749C299.167 109.474 299.367 109.151 299.498 108.797C299.628 108.444 299.686 108.067 299.667 107.691C299.649 107.314 299.555 106.946 299.39 106.606C298.987 106.02 298.529 105.473 298.022 104.972C297.767 104.656 297.543 104.316 297.353 103.957C297.821 104.24 298.343 104.421 298.886 104.49C299.329 104.529 299.774 104.456 300.181 104.277C300.587 104.098 300.942 103.82 301.212 103.467C301.473 103.108 301.628 102.683 301.66 102.24C301.692 101.797 301.599 101.354 301.392 100.962C301.177 100.573 300.847 100.26 300.448 100.065C300.048 99.8707 299.599 99.8041 299.16 99.8744C298.323 100.121 297.585 100.624 297.05 101.314L296.503 101.912C295.898 100.213 295.366 98.492 293.918 97.5056C292.608 96.6128 290.902 96.6128 289.426 96.0656C288.353 95.6408 287.424 94.9136 286.366 94.4456C285.307 93.9776 283.982 93.8264 283.061 94.5176C282.514 94.9208 282.182 95.5616 281.621 95.9576C280.49 96.7856 278.741 96.3968 277.718 97.3544C276.89 98.1392 276.919 99.464 276.358 100.45C275.796 101.437 274.529 102.07 273.478 102.711C272.426 103.352 271.361 104.36 271.454 105.591C271.534 106.671 272.498 107.55 272.563 108.637C272.491 109.427 272.271 110.196 271.915 110.905C271.663 111.625 271.685 112.654 272.369 113.065L280.073 117.918C282.593 120.006 285.199 122.137 288.324 123.116C291.449 124.095 295.258 123.642 297.389 121.158C296.939 120.993 296.568 120.664 296.352 120.236C296.824 120.179 297.277 120.016 297.677 119.759C298.078 119.502 298.415 119.158 298.663 118.753V118.753Z" fill="#263238"/>
<path d="M290.952 119.221C292.364 117.344 293.612 115.35 294.682 113.259C295.752 111.156 296.284 108.821 296.23 106.462C296.23 106.11 295.877 103.654 295.51 103.582C295.265 103.532 295.258 105.742 295.07 105.886C293.323 107.598 292.135 109.8 291.665 112.201C291.163 114.506 290.921 116.861 290.945 119.221" fill="#263238"/>
<path d="M277.466 136.17C283.709 138.33 287.503 130.179 287.503 130.179L293.854 110.739C295.798 105.181 294.185 99.4136 288.576 97.6208L288.05 97.484C285.487 96.8263 282.77 97.1582 280.44 98.4138C278.111 99.6694 276.339 101.756 275.479 104.259C273.816 109.09 272.045 114.44 271.397 117.097C270.065 122.59 275.321 124.844 275.321 124.844C275.321 124.844 274.961 126.097 274.478 127.688C273.398 131.288 274.255 135.45 275.681 135.766L277.466 136.17Z" fill="#E2AD9A"/>
<path d="M275.321 124.88C277.851 125.52 280.512 125.422 282.989 124.599C282.989 124.599 280.231 128.134 274.896 126.241L275.321 124.88Z" fill="#896357"/>
<path d="M276.48 109.04C276.425 109.243 276.452 109.46 276.556 109.644C276.659 109.827 276.832 109.962 277.034 110.019C277.132 110.053 277.235 110.067 277.337 110.06C277.44 110.053 277.541 110.025 277.632 109.979C277.724 109.933 277.806 109.869 277.873 109.79C277.94 109.712 277.99 109.621 278.021 109.522C278.076 109.319 278.049 109.102 277.945 108.919C277.841 108.735 277.669 108.6 277.466 108.543C277.369 108.51 277.266 108.496 277.163 108.503C277.061 108.51 276.96 108.537 276.868 108.583C276.776 108.63 276.695 108.694 276.628 108.772C276.561 108.851 276.511 108.942 276.48 109.04V109.04Z" fill="#263238"/>
<path d="M276.062 106.837C276.134 106.966 276.84 106.678 277.682 106.894C278.525 107.11 279.029 107.694 279.122 107.614C279.216 107.535 279.122 107.37 278.906 107.103C278.608 106.751 278.208 106.499 277.762 106.383C277.325 106.271 276.864 106.299 276.444 106.462C276.163 106.621 276.026 106.779 276.062 106.837Z" fill="#263238"/>
<path d="M284.004 111.308C283.951 111.511 283.979 111.727 284.082 111.91C284.186 112.093 284.357 112.228 284.558 112.287C284.656 112.321 284.759 112.335 284.861 112.328C284.964 112.321 285.064 112.293 285.156 112.247C285.248 112.201 285.33 112.137 285.397 112.058C285.464 111.98 285.514 111.889 285.545 111.79C285.6 111.588 285.574 111.372 285.472 111.189C285.369 111.005 285.199 110.87 284.998 110.811C284.9 110.778 284.796 110.764 284.693 110.77C284.59 110.777 284.489 110.805 284.396 110.851C284.304 110.897 284.221 110.961 284.154 111.04C284.087 111.118 284.036 111.21 284.004 111.308Z" fill="#263238"/>
<path d="M284.22 109.292C284.292 109.414 284.998 109.134 285.833 109.35C286.668 109.566 287.186 110.142 287.273 110.07C287.359 109.998 287.273 109.832 287.057 109.566C286.764 109.211 286.365 108.958 285.919 108.846C285.483 108.726 285.02 108.754 284.602 108.925C284.321 109.04 284.184 109.234 284.22 109.292Z" fill="#263238"/>
<path d="M279.547 114.98C279.137 114.732 278.7 114.531 278.244 114.382C278.035 114.31 277.841 114.21 277.841 114.058C277.881 113.83 277.989 113.619 278.15 113.454L279.202 112.014C280.148 110.778 280.993 109.468 281.729 108.097C280.686 109.253 279.738 110.491 278.892 111.798L277.862 113.288C277.662 113.513 277.548 113.801 277.538 114.102C277.549 114.187 277.579 114.268 277.626 114.339C277.674 114.411 277.737 114.47 277.812 114.512C277.922 114.571 278.038 114.62 278.158 114.656C278.605 114.822 279.072 114.931 279.547 114.98Z" fill="#263238"/>
<path d="M281.873 116.197C281.736 116.154 281.506 117.068 280.555 117.514C279.605 117.961 278.662 117.615 278.618 117.738C278.575 117.86 278.791 117.975 279.202 118.09C279.734 118.233 280.3 118.185 280.8 117.954C281.283 117.73 281.66 117.327 281.851 116.83C281.981 116.463 281.938 116.24 281.873 116.197Z" fill="#263238"/>
<path d="M285.12 105.886C285.12 106.138 286.013 106.246 286.97 106.606C287.928 106.966 288.655 107.456 288.835 107.283C289.015 107.11 288.835 106.952 288.569 106.642C288.215 106.257 287.772 105.963 287.28 105.786C286.791 105.593 286.262 105.522 285.739 105.577C285.358 105.634 285.12 105.771 285.12 105.886Z" fill="#263238"/>
<path d="M277.128 104.13C277.229 104.36 277.848 104.31 278.568 104.482C279.288 104.655 279.821 104.936 280.008 104.77C280.195 104.605 280.044 104.475 279.835 104.23C279.547 103.92 279.17 103.706 278.755 103.618C278.345 103.519 277.914 103.551 277.524 103.712C277.2 103.842 277.085 104 277.128 104.13Z" fill="#263238"/>
<path d="M292.37 114.685C292.471 114.685 296.417 114.534 295.337 118.285C294.257 122.036 290.758 120.15 290.779 120.042C290.801 119.934 292.37 114.685 292.37 114.685Z" fill="#E2AD9A"/>
<path d="M292.32 118.926C292.32 118.926 292.37 118.99 292.464 119.07C292.601 119.177 292.773 119.23 292.946 119.221C293.378 119.221 293.89 118.666 294.106 118.004C294.207 117.688 294.237 117.354 294.192 117.025C294.192 116.899 294.161 116.774 294.102 116.663C294.043 116.551 293.958 116.455 293.854 116.384C293.784 116.344 293.702 116.329 293.623 116.341C293.543 116.352 293.47 116.39 293.414 116.449C293.335 116.542 293.342 116.622 293.321 116.622C293.299 116.622 293.256 116.535 293.321 116.391C293.371 116.308 293.447 116.242 293.537 116.204C293.661 116.154 293.801 116.154 293.926 116.204C294.069 116.278 294.191 116.387 294.28 116.522C294.368 116.657 294.42 116.813 294.43 116.974C294.494 117.342 294.47 117.72 294.358 118.076C294.113 118.796 293.53 119.408 292.918 119.408C292.809 119.408 292.703 119.383 292.606 119.335C292.508 119.288 292.423 119.219 292.356 119.134C292.32 119.019 292.32 118.926 292.32 118.926Z" fill="#896357"/>
<path d="M279.713 98.852C279.216 98.3408 281.592 96.9368 283.27 96.692C285.797 96.3536 289.382 96.7496 291.262 97.9448C293.515 99.3848 295.2 101.235 295.769 103.856C296.273 106.502 296.066 109.235 295.171 111.776C294.963 112.571 294.548 113.296 293.969 113.878C293.206 114.541 292.061 114.757 291.766 115.902C291.669 116.322 291.41 116.687 291.046 116.917C290.146 117.435 289.526 116.506 289.346 115.714C288.965 114.022 289.397 112.266 289.822 110.581C290.061 109.367 290.496 108.199 291.11 107.125C291.478 106.563 291.946 106.066 292.284 105.49C292.468 105.209 292.59 104.89 292.639 104.557C292.689 104.224 292.666 103.884 292.572 103.561C292.516 103.422 292.446 103.289 292.363 103.165C291.983 102.561 291.449 102.069 290.817 101.739C290.185 101.409 289.476 101.252 288.763 101.286C286.459 101.401 282.571 101.43 281.851 100.443C281.319 99.8127 280.926 99.0765 280.699 98.2832L279.713 98.852Z" fill="#263238"/>
<path d="M291.218 97.4048C290.312 96.7422 289.284 96.2656 288.193 96.0024C287.102 95.7391 285.969 95.6946 284.861 95.8712C284.27 95.9539 283.702 96.1553 283.191 96.4635C282.68 96.7716 282.236 97.18 281.887 97.664C281.556 98.1593 281.409 98.7557 281.474 99.3482C281.538 99.9408 281.81 100.492 282.24 100.904L282.298 100.969C283.738 101.977 284.81 102.07 286.546 101.998C287.986 101.934 289.426 101.473 290.866 101.422C292.432 101.367 293.979 101.781 295.308 102.61C294.424 100.547 293.014 98.7519 291.218 97.4048V97.4048Z" fill="#263238"/>
<path d="M297.086 103.28C297.043 103.28 296.856 102.848 296.366 102.243C296.093 101.893 295.781 101.574 295.438 101.293C295.019 100.946 294.526 100.7 293.998 100.573C293.033 100.389 292.036 100.476 291.118 100.825C290.398 101.098 290.023 101.394 289.994 101.358C289.966 101.322 290.074 101.257 290.246 101.127C290.493 100.94 290.762 100.783 291.046 100.659C291.997 100.236 293.056 100.118 294.077 100.321C294.64 100.459 295.161 100.73 295.596 101.113C295.95 101.409 296.26 101.753 296.518 102.135C296.786 102.472 296.98 102.862 297.086 103.28Z" fill="#455A64"/>
<path d="M297.043 104.677C296.894 105.03 296.687 105.356 296.431 105.642C295.844 106.36 295.138 106.971 294.343 107.449C293.547 107.924 292.675 108.26 291.766 108.442C291.394 108.538 291.009 108.565 290.628 108.522C291.89 108.287 293.106 107.849 294.228 107.226C295.295 106.529 296.245 105.669 297.043 104.677V104.677Z" fill="#455A64"/>
<path d="M298.354 105.742C298.338 105.889 298.299 106.033 298.238 106.167C298.094 106.543 297.921 106.906 297.72 107.254C297.042 108.402 296.096 109.368 294.962 110.07C293.826 110.766 292.535 111.169 291.204 111.243C290.804 111.279 290.402 111.279 290.002 111.243C289.854 111.236 289.708 111.207 289.57 111.157C289.57 111.106 290.196 111.157 291.19 111.092C292.479 110.968 293.723 110.551 294.827 109.874C295.932 109.196 296.867 108.276 297.562 107.182C298.08 106.318 298.31 105.728 298.354 105.742Z" fill="#455A64"/>
<path d="M287.1 95.7416C286.737 95.7833 286.371 95.8049 286.006 95.8064C284.254 95.9347 282.587 96.6097 281.239 97.736C280.728 98.1608 280.447 98.456 280.418 98.456C280.605 98.1314 280.849 97.8435 281.138 97.6064C282.462 96.3668 284.199 95.6636 286.013 95.6336C286.379 95.6082 286.746 95.6447 287.1 95.7416V95.7416Z" fill="#455A64"/>
<path d="M301.212 100.688C300.855 101.409 300.307 102.018 299.628 102.45C298.949 102.881 298.164 103.119 297.36 103.136C298.11 102.91 298.834 102.606 299.52 102.229C300.135 101.774 300.702 101.258 301.212 100.688V100.688Z" fill="#455A64"/>
<path d="M301.111 138.56C299.563 135.27 288.151 130.014 288.151 130.014C287.075 131.866 285.584 133.443 283.795 134.622C280.915 136.414 277.51 135.774 274.939 133.837C272.513 132.001 273.348 128.415 273.348 128.415C273.348 128.415 260.798 127.782 257.184 129.754C253.57 131.727 251.554 137.509 251.554 137.509L247.039 147.747L251.784 154.688L253.865 156.704C253.865 156.704 259.358 162.298 269.496 164.048C278.957 165.682 287.165 161.658 287.165 161.658C292.205 159.966 296.604 155.898 300.65 150.296C300.665 150.318 302.911 142.419 301.111 138.56Z" fill="#455A64"/>
<path d="M251.604 131.54C251.604 131.54 254.556 127.839 254.786 126.356L255.953 118.436C255.953 118.436 255.521 117.543 254.398 118.558C253.274 119.574 253.541 121.525 253.541 121.525L252.598 123.195L252.058 121.575L252.475 116.175C252.475 116.175 252.864 112.294 252.18 112.51C251.496 112.726 251.028 113.756 250.855 115.434C250.682 117.111 250.481 119.228 250.481 119.228C250.481 119.228 250.373 119.883 250.085 118.652C249.797 117.421 250.423 112.791 250.366 112.129C250.308 111.466 250.675 109.846 249.746 109.674C248.818 109.501 248.76 111.675 248.76 111.675L247.745 118.501C247.745 118.501 247.651 115.621 247.622 115.117C247.594 114.613 247.752 113.101 247.673 112.237C247.594 111.373 247.248 110.797 246.83 110.754C246.636 110.709 246.432 110.741 246.26 110.843C246.089 110.945 245.963 111.109 245.909 111.301L245.642 117.313C245.642 117.313 245.642 120.092 245.556 120.236C245.47 120.38 244.836 118.882 244.836 118.882L244.634 116.852C244.634 116.852 244.778 114.094 244.102 113.821C243.425 113.547 243.252 114.066 243.252 114.066L243.036 119.106L243.598 125.06L244.951 131.05L247.154 131.482L251.604 131.54Z" fill="#E2AD9A"/>
<path d="M246.24 127.04C246.593 126.695 246.92 126.324 247.219 125.931C247.932 125.019 248.959 124.406 250.099 124.21C250.654 124.136 251.218 124.253 251.698 124.542L251.856 124.642L251.957 124.462C252.389 123.67 252.878 122.972 253.152 122.468C253.426 121.964 253.584 121.647 253.541 121.633C253.324 121.85 253.133 122.091 252.972 122.353C252.492 122.987 252.045 123.646 251.633 124.326L251.892 124.246C251.349 123.901 250.702 123.756 250.063 123.836C249.374 123.913 248.719 124.177 248.17 124.599C247.734 124.933 247.344 125.323 247.01 125.758C246.679 126.136 246.419 126.57 246.24 127.04V127.04Z" fill="#896357"/>
<path d="M273.125 128.422L274.939 125.578L279.655 131.77L279.137 134.557L280.26 131.878L288.785 126.91L288.425 130.467L284.566 135.464L279.468 137.581L275.71 136.177C275.71 136.177 272.779 135.111 272.83 134.874C272.88 134.636 273.125 128.422 273.125 128.422Z" fill="#455A64"/>
<path d="M277.258 134.701L277.69 137.07L279.432 137.523L281.009 135.774L280.613 133.707L278.546 133.131L277.258 134.701Z" fill="#C9C9C9"/>
<path d="M279.655 131.77C279.462 132.162 279.22 132.527 278.935 132.858C278.438 133.513 277.726 134.427 276.89 135.464L276.71 135.687L276.588 135.428C276.372 134.967 276.142 134.478 275.868 133.988C275.148 132.433 274.493 131.014 274.046 129.978C273.773 129.431 273.554 128.86 273.391 128.271C273.757 128.761 274.069 129.29 274.32 129.848C274.831 130.856 275.515 132.26 276.242 133.815L276.926 135.255L276.617 135.219C277.474 134.197 278.222 133.311 278.777 132.699C279.032 132.356 279.326 132.044 279.655 131.77V131.77Z" fill="#263238"/>
<path d="M288.619 129.834C288.161 130.359 287.654 130.841 287.107 131.274C286.142 132.145 284.789 133.333 283.284 134.622L281.21 136.4L280.98 136.594L280.93 136.299C280.699 135.003 280.512 133.902 280.39 133.117C280.301 132.708 280.258 132.29 280.26 131.871C280.424 132.258 280.538 132.665 280.598 133.081C280.778 133.851 281.009 134.946 281.268 136.234L280.987 136.134L283.039 134.355C284.544 133.066 285.919 131.914 286.934 131.094C287.458 130.626 288.022 130.204 288.619 129.834V129.834Z" fill="#263238"/>
<path d="M306.929 151.7L307.85 146.624C306.766 144.908 305.467 143.338 303.984 141.951C302.438 140.349 300.385 139.331 298.174 139.071C295.294 138.841 292.579 140.353 290.203 142.002C287.827 143.65 285.494 145.53 282.694 146.221C281.632 146.552 280.488 146.49 279.468 146.048C277.978 145.285 277.38 143.377 277.632 141.728C278.004 140.088 278.713 138.544 279.713 137.192L277.826 136.609C276.666 138.215 275.659 139.927 274.817 141.721C274.136 143.311 273.989 145.08 274.399 146.761C274.809 147.986 275.54 149.078 276.517 149.923C277.494 150.767 278.68 151.334 279.95 151.563C282.513 151.99 285.144 151.514 287.395 150.217C289.447 149.122 291.305 147.546 293.573 146.998C295.137 146.671 296.763 146.825 298.239 147.439C299.714 148.053 300.969 149.099 301.838 150.44L306.929 151.7Z" fill="#C9C9C9"/>
<path d="M253.354 156.56C253.253 156.56 254.074 152.182 255.139 146.826C256.205 141.469 257.198 137.142 257.299 137.163C257.4 137.185 256.579 141.541 255.506 146.898C254.434 152.254 253.44 156.61 253.354 156.56Z" fill="#263238"/>
<path d="M243.454 130.885L253.166 131.605L252.72 154.004L252.598 155.545C252.598 155.545 244.598 146.782 243.958 139.705C243.821 138.2 243.497 137.005 243.418 135.946C243.166 132.001 243.454 130.885 243.454 130.885Z" fill="#455A64"/>
<path d="M252.569 153.68C252.532 153.391 252.532 153.098 252.569 152.809C252.569 152.175 252.605 151.369 252.626 150.447C252.677 148.453 252.691 145.688 252.72 142.642C252.749 139.597 252.799 136.825 252.907 134.823C252.958 133.83 253.008 133.016 253.066 132.462C253.07 132.17 253.111 131.879 253.188 131.598C253.216 131.887 253.216 132.179 253.188 132.469C253.188 133.102 253.188 133.909 253.188 134.838C253.188 136.918 253.138 139.633 253.109 142.642C253.08 145.652 253.022 148.46 252.907 150.454C252.85 151.455 252.792 152.262 252.727 152.823C252.703 153.113 252.65 153.4 252.569 153.68V153.68Z" fill="#263238"/>
<path d="M243.878 127.76C243.89 127.834 243.89 127.909 243.878 127.983C243.878 128.149 243.835 128.365 243.806 128.631C243.749 129.2 243.619 130.071 243.526 131.122C243.197 136.315 244.154 141.508 246.312 146.242C248.454 150.909 251.722 154.969 255.823 158.058C258.137 159.777 260.676 161.17 263.369 162.198C266.054 163.243 268.877 163.893 271.75 164.127C274.422 164.378 277.115 164.261 279.756 163.782C282.151 163.369 284.487 162.665 286.711 161.686C287.721 161.257 288.709 160.776 289.67 160.246C290.585 159.721 291.442 159.159 292.248 158.626C293.054 158.094 293.782 157.51 294.408 156.927C295.034 156.344 295.697 155.818 296.23 155.264L297.72 153.702L298.858 152.298L299.34 151.7L299.729 151.146L300.326 150.274L300.708 149.742C300.748 149.677 300.794 149.617 300.845 149.562C300.845 149.562 300.845 149.634 300.737 149.763L300.391 150.31L299.815 151.21L299.448 151.779C299.297 151.966 299.138 152.175 298.973 152.391L297.85 153.831L296.41 155.415C295.877 155.984 295.229 156.51 294.588 157.114C293.947 157.719 293.148 158.238 292.428 158.85C291.708 159.462 290.765 159.966 289.843 160.506C288.878 161.058 287.883 161.556 286.862 161.996C279.381 165.3 270.896 165.51 263.261 162.579C260.525 161.533 257.947 160.113 255.6 158.36C251.455 155.231 248.163 151.111 246.024 146.379C243.869 141.59 242.953 136.336 243.36 131.101C243.475 130.021 243.634 129.186 243.713 128.617L243.814 127.969C243.828 127.897 243.85 127.827 243.878 127.76Z" fill="#263238"/>
<path d="M304.294 141.548C304.322 141.176 304.384 140.807 304.481 140.446C304.639 139.726 304.812 138.711 304.97 137.444C305.366 134.121 305.24 130.756 304.596 127.472C304.23 125.67 303.719 123.9 303.07 122.18C302.517 120.782 301.875 119.42 301.147 118.105C300.852 117.536 300.535 117.046 300.269 116.614C300.002 116.182 299.765 115.808 299.549 115.513C299.326 115.211 299.126 114.894 298.951 114.562C299.217 114.828 299.458 115.117 299.671 115.426C299.945 115.77 300.199 116.128 300.434 116.499C300.722 116.924 301.054 117.406 301.37 117.939C302.14 119.246 302.811 120.608 303.379 122.014C304.059 123.749 304.589 125.539 304.963 127.364C305.615 130.685 305.706 134.093 305.23 137.444C305.088 138.454 304.883 139.454 304.618 140.439C304.543 140.818 304.434 141.189 304.294 141.548V141.548Z" fill="#263238"/>
<path d="M273.766 102.43C273.423 102.507 273.073 102.548 272.722 102.553C272.383 102.553 272.002 102.61 271.498 102.675C270.994 102.74 270.475 102.783 269.885 102.898C268.491 103.122 267.113 103.435 265.759 103.834C264.107 104.337 262.494 104.962 260.935 105.706C259.388 106.47 257.898 107.346 256.478 108.327C255.326 109.142 254.227 110.03 253.188 110.984C252.727 111.38 252.353 111.776 252.007 112.107C251.662 112.438 251.381 112.748 251.158 112.993C250.94 113.254 250.699 113.495 250.438 113.713C250.624 113.412 250.839 113.13 251.078 112.87C251.287 112.604 251.554 112.287 251.885 111.934C252.216 111.582 252.605 111.171 253.03 110.761C254.057 109.772 255.152 108.856 256.306 108.018C259.14 105.974 262.307 104.437 265.666 103.474C267.038 103.087 268.436 102.798 269.849 102.61C270.454 102.51 271.001 102.488 271.483 102.438C271.966 102.387 272.376 102.38 272.722 102.38C273.07 102.369 273.42 102.386 273.766 102.43V102.43Z" fill="#263238"/>
<path d="M270.079 164.372C269.978 164.372 271.03 160.722 272.419 156.286C273.809 151.851 275.018 148.28 275.119 148.309C275.22 148.338 274.169 151.959 272.779 156.394C271.39 160.83 270.173 164.401 270.079 164.372Z" fill="#263238"/>
<path d="M301.363 95.5328C301.363 95.5328 301.363 95.6048 301.363 95.7416C301.312 95.9433 301.224 96.1337 301.104 96.3032C300.884 96.6248 300.585 96.8841 300.236 97.0557C299.886 97.2273 299.498 97.3054 299.11 97.2824C298.578 97.2118 298.078 96.9893 297.67 96.6416C297.255 96.27 296.733 96.0383 296.179 95.9792C295.569 95.9763 294.975 96.1792 294.494 96.5552C293.965 96.9833 293.482 97.466 293.054 97.9952C292.165 99.0275 291.118 99.9121 289.951 100.616C288.985 101.184 287.906 101.533 286.79 101.638C286.04 101.704 285.285 101.624 284.566 101.401C284.307 101.329 284.063 101.212 283.846 101.055C284.793 101.359 285.793 101.467 286.783 101.372C287.853 101.238 288.881 100.877 289.8 100.314C290.923 99.6134 291.933 98.7467 292.795 97.7432C293.246 97.2105 293.753 96.7278 294.307 96.3032C294.858 95.8826 295.536 95.6618 296.23 95.6768C296.845 95.7495 297.422 96.014 297.878 96.4328C298.24 96.7589 298.687 96.976 299.167 97.0592C299.512 97.072 299.854 97.0022 300.166 96.8556C300.478 96.7091 300.75 96.49 300.96 96.2168C301.117 96.0031 301.252 95.7739 301.363 95.5328Z" fill="#263238"/>
<path d="M301.291 100.796C301.291 100.796 301.464 100.796 301.752 100.875C302.17 100.988 302.569 101.166 302.933 101.401C303.219 101.581 303.456 101.83 303.621 102.126C303.786 102.422 303.873 102.754 303.876 103.093C303.818 103.498 303.671 103.886 303.448 104.23C303.224 104.573 302.928 104.863 302.58 105.08C301.919 105.537 301.137 105.788 300.334 105.8C299.68 105.801 299.036 105.638 298.462 105.325C298.082 105.118 297.743 104.845 297.461 104.518C297.266 104.281 297.194 104.13 297.209 104.115C297.628 104.492 298.089 104.818 298.584 105.087C299.128 105.343 299.725 105.469 300.326 105.454C301.058 105.414 301.763 105.164 302.357 104.734C302.659 104.546 302.92 104.298 303.122 104.004C303.324 103.71 303.463 103.378 303.53 103.028C303.53 102.745 303.461 102.466 303.329 102.215C303.197 101.965 303.007 101.749 302.774 101.588C302.44 101.347 302.08 101.145 301.702 100.983C301.435 100.897 301.284 100.818 301.291 100.796Z" fill="#263238"/>
<path d="M277.747 238.762C277.747 238.863 262.541 234.277 243.857 228.531C225.173 222.786 210.017 218.041 210.074 217.94C210.132 217.839 225.281 222.426 243.972 228.171C262.663 233.917 277.776 238.64 277.747 238.762Z" fill="#263238"/>
<path d="M276.48 241.707C276.48 241.808 261.274 237.229 242.59 231.483C223.906 225.738 208.8 220.993 208.8 220.892C208.8 220.791 223.999 225.37 242.69 231.123C261.382 236.876 276.523 241.614 276.48 241.707Z" fill="#263238"/>
<path d="M275.537 244.94C275.537 245.034 260.33 240.454 241.646 234.709C222.962 228.963 207.806 224.218 207.864 224.118C207.922 224.017 223.063 228.596 241.754 234.349C260.446 240.102 275.566 244.839 275.537 244.94Z" fill="#263238"/>
<path d="M274.579 248.166C274.579 248.266 259.373 243.68 240.689 237.934C222.005 232.189 206.849 227.444 206.906 227.343C206.964 227.242 222.113 231.829 240.804 237.574C259.495 243.32 274.608 248.065 274.579 248.166Z" fill="#263238"/>
<path d="M273.6 251.391C273.564 251.492 258.394 246.913 239.71 241.16C221.026 235.407 205.87 230.67 205.927 230.576C205.985 230.482 221.155 235.04 239.846 240.8C258.538 246.56 273.658 251.29 273.6 251.391Z" fill="#263238"/>
<path d="M259.063 181.76C259.06 181.926 259.036 182.09 258.991 182.25C258.948 182.581 258.804 183.034 258.646 183.639C258.322 184.834 257.818 186.519 257.17 188.679C255.874 192.92 254.016 198.759 251.935 205.167C249.854 211.575 247.918 217.407 246.506 221.598C245.786 223.664 245.232 225.349 244.814 226.558C244.62 227.113 244.454 227.559 244.332 227.905C244.286 228.065 244.223 228.219 244.145 228.366C244.166 228.199 244.204 228.035 244.26 227.876L244.678 226.515C245.059 225.291 245.599 223.592 246.254 221.518L251.575 205.052C253.656 198.651 255.535 192.812 256.91 188.6C257.58 186.526 258.12 184.827 258.509 183.61C258.682 183.02 258.847 182.559 258.919 182.25C258.958 182.084 259.006 181.92 259.063 181.76V181.76Z" fill="#E0E0E0"/>
<path d="M279.655 137.322C279.655 137.422 279.166 137.401 278.611 137.271C278.057 137.142 277.625 136.954 277.646 136.854C277.668 136.753 278.136 136.774 278.698 136.904C279.259 137.034 279.677 137.221 279.655 137.322Z" fill="#263238"/>
<path d="M293.076 192.38C293.04 192.474 277.87 187.808 259.186 181.954C240.502 176.101 225.346 171.277 225.403 171.154C225.461 171.032 240.602 175.719 259.294 181.573C277.985 187.426 293.105 192.279 293.076 192.38Z" fill="#EBEBEB"/>
<path d="M254.16 216.601C254.311 216.499 254.489 216.441 254.671 216.435C255.176 216.384 255.682 216.504 256.111 216.774C256.44 216.967 256.712 217.244 256.899 217.577C257.087 217.909 257.182 218.286 257.177 218.667C257.184 219.142 257.045 219.608 256.778 220C256.51 220.393 256.128 220.693 255.684 220.86C255.239 221.027 254.754 221.053 254.294 220.933C253.835 220.814 253.423 220.556 253.116 220.194C252.854 219.907 252.675 219.555 252.596 219.175C252.518 218.795 252.543 218.401 252.67 218.034C252.812 217.552 253.115 217.133 253.526 216.846C253.667 216.725 253.84 216.65 254.023 216.63C254.023 216.63 253.858 216.738 253.62 216.961C253.269 217.26 253.018 217.66 252.9 218.106C252.811 218.422 252.806 218.756 252.884 219.075C252.962 219.394 253.121 219.688 253.346 219.927C253.61 220.231 253.96 220.447 254.35 220.547C254.74 220.646 255.151 220.623 255.528 220.482C255.905 220.341 256.23 220.088 256.459 219.758C256.688 219.427 256.81 219.034 256.81 218.631C256.822 218.303 256.748 217.977 256.597 217.686C256.445 217.394 256.221 217.147 255.946 216.968C255.571 216.707 255.127 216.564 254.671 216.558C254.326 216.579 254.16 216.637 254.16 216.601Z" fill="#E0E0E0"/>
<path d="M260.59 197.312C260.74 197.208 260.918 197.15 261.101 197.146C261.605 197.097 262.111 197.216 262.541 197.485C262.869 197.679 263.139 197.957 263.325 198.289C263.511 198.622 263.605 198.997 263.599 199.378C263.607 199.853 263.467 200.319 263.2 200.711C262.933 201.104 262.551 201.404 262.106 201.571C261.662 201.738 261.176 201.764 260.717 201.645C260.257 201.525 259.846 201.267 259.538 200.905C259.277 200.618 259.097 200.266 259.019 199.886C258.94 199.506 258.965 199.112 259.092 198.745C259.24 198.285 259.529 197.884 259.92 197.6C260.062 197.484 260.234 197.411 260.417 197.391C260.417 197.391 260.258 197.499 260.014 197.715C259.664 198.019 259.413 198.42 259.294 198.867C259.202 199.183 259.194 199.517 259.271 199.836C259.348 200.156 259.507 200.45 259.733 200.689C260.008 200.969 260.355 201.169 260.736 201.266C261.116 201.364 261.516 201.356 261.893 201.243C262.261 201.087 262.577 200.83 262.804 200.501C263.031 200.172 263.159 199.785 263.174 199.386C263.188 199.059 263.116 198.734 262.966 198.444C262.816 198.153 262.592 197.907 262.318 197.73C261.939 197.47 261.494 197.325 261.036 197.312C260.784 197.29 260.597 197.348 260.59 197.312Z" fill="#E0E0E0"/>
<path d="M250.337 166.158C250.488 166.055 250.665 165.998 250.848 165.992C251.352 165.941 251.859 166.06 252.288 166.33C252.617 166.524 252.889 166.801 253.076 167.133C253.263 167.466 253.359 167.842 253.354 168.224C253.361 168.699 253.222 169.164 252.954 169.557C252.687 169.949 252.305 170.25 251.861 170.417C251.416 170.584 250.931 170.609 250.471 170.49C250.011 170.371 249.6 170.113 249.293 169.75C249.031 169.464 248.852 169.112 248.773 168.732C248.695 168.352 248.72 167.957 248.846 167.59C248.989 167.109 249.291 166.69 249.703 166.402C249.843 166.282 250.016 166.207 250.2 166.186C250.2 166.186 250.042 166.294 249.797 166.51C249.447 166.814 249.197 167.215 249.077 167.662C248.988 167.979 248.983 168.313 249.061 168.632C249.139 168.951 249.298 169.245 249.523 169.484C249.787 169.788 250.137 170.004 250.527 170.103C250.917 170.203 251.328 170.18 251.705 170.039C252.082 169.898 252.407 169.645 252.636 169.314C252.865 168.983 252.987 168.59 252.986 168.188C252.998 167.86 252.925 167.534 252.774 167.243C252.622 166.951 252.398 166.704 252.122 166.525C251.748 166.264 251.304 166.121 250.848 166.114C250.56 166.136 250.344 166.194 250.337 166.158Z" fill="#E0E0E0"/>
<path d="M249.214 151.707C249.307 151.707 247.637 157.244 245.484 164.005C243.331 170.766 241.495 176.245 241.394 176.194C241.294 176.144 242.964 170.658 245.124 163.89C247.284 157.122 249.12 151.678 249.214 151.707Z" fill="#EBEBEB"/>
<g opacity="0.3">
<path d="M211.27 214.16C211.27 214.16 221.083 185.238 224.842 170.96C219.881 176.893 214.286 183.704 211.37 190.861C208.436 198.344 208.4 206.652 211.27 214.16V214.16Z" fill="black"/>
</g>
<path d="M222.012 291.02C221.079 291.233 220.268 291.803 219.751 292.608C219.235 293.412 219.054 294.388 219.25 295.324C219.445 296.26 220 297.083 220.795 297.614C221.59 298.146 222.562 298.344 223.502 298.166C224.442 297.988 225.274 297.449 225.82 296.663C226.366 295.878 226.582 294.91 226.422 293.967C226.262 293.024 225.738 292.182 224.963 291.621C224.188 291.061 223.224 290.827 222.278 290.97" fill="#C9C9C9"/>
<path d="M335.052 367.765H333.497H331.92C331.92 367.196 331.92 366.613 331.92 366.008C331.92 364.244 331.92 362.574 331.87 361.328C331.812 359.298 331.754 359.298 331.646 359.298C331.538 359.298 331.481 359.298 331.423 361.328C331.387 362.581 331.366 364.244 331.366 366.008C331.366 366.613 331.366 367.196 331.366 367.765H328.903H311.342H297.065C297.065 367.21 297.065 366.649 297.065 366.066C297.065 364.294 297.065 362.631 297.007 361.386C296.95 359.355 296.892 359.355 296.784 359.355C296.676 359.355 296.618 359.355 296.561 361.386C296.561 362.631 296.51 364.302 296.51 366.066C296.51 366.649 296.51 367.21 296.51 367.758H259.531C259.531 367.218 259.531 366.67 259.531 366.094C259.531 364.33 259.531 362.667 259.481 361.414C259.423 359.384 259.366 359.384 259.258 359.384C259.15 359.384 259.092 359.384 259.034 361.414C258.998 362.667 258.977 364.33 258.977 366.094C258.977 366.663 258.977 367.218 258.977 367.758H246.737H222.581C222.581 367.225 222.581 366.685 222.581 366.116C222.581 364.352 222.581 362.689 222.523 361.436C222.466 359.406 222.415 359.406 222.3 359.406C222.185 359.406 222.134 359.406 222.077 361.436C222.077 362.689 222.026 364.352 222.026 366.116C222.026 366.685 222.026 367.225 222.026 367.758H185.616C185.616 367.225 185.616 366.685 185.616 366.123C185.616 364.359 185.616 362.696 185.558 361.443C185.501 359.413 185.443 359.413 185.335 359.413C185.227 359.413 185.17 359.413 185.112 361.443C185.076 362.696 185.054 364.359 185.054 366.123C185.054 366.685 185.054 367.225 185.054 367.758H148.644C148.644 367.225 148.644 366.692 148.644 366.13C148.644 364.359 148.644 362.696 148.594 361.45C148.536 359.42 148.478 359.42 148.37 359.42C148.262 359.42 148.205 359.42 148.147 361.45C148.111 362.703 148.09 364.366 148.09 366.13C148.09 366.692 148.09 367.225 148.09 367.758H111.665C111.665 367.239 111.665 366.699 111.665 366.145C111.665 364.381 111.665 362.718 111.607 361.465C111.55 359.434 111.499 359.434 111.384 359.434C111.269 359.434 111.218 359.434 111.161 361.465C111.161 362.718 111.11 364.381 111.11 366.145C111.11 366.699 111.11 367.239 111.11 367.758H74.7143C74.7143 367.239 74.7143 366.706 74.7143 366.152C74.7143 364.388 74.7143 362.725 74.6567 361.472C74.5991 359.442 74.5415 359.442 74.4335 359.442C74.3255 359.442 74.2679 359.442 74.2103 361.472C74.2103 362.725 74.1527 364.388 74.1527 366.152C74.1527 366.706 74.1527 367.239 74.1527 367.758H35.5391C35.5391 367.412 35.5391 367.038 35.5391 366.714C35.5391 365.094 35.5391 363.567 35.4815 362.394C35.4239 360.529 35.3664 360.529 35.2584 360.529C35.1504 360.529 35.0927 360.529 35.0351 362.394C34.9991 363.538 34.9776 365.065 34.9776 366.714C34.9776 367.066 34.9776 367.434 34.9776 367.75H25.1999V160.614L25.1351 98.132V81.1688V76.7624C25.1351 75.7688 25.1351 75.2648 25.1351 75.2648C25.1351 75.2419 25.126 75.2199 25.1098 75.2037C25.0936 75.1875 25.0717 75.1784 25.0488 75.1784C25.0251 75.1783 25.0023 75.1872 24.985 75.2032C24.9676 75.2193 24.957 75.2412 24.9551 75.2648C24.9551 75.2648 24.9551 75.7688 24.9551 76.7696L24.8976 98.132L24.8399 160.614L24.7823 367.851V368.038C24.7823 368.063 24.7922 368.087 24.8098 368.105C24.8273 368.122 24.8511 368.132 24.8759 368.132H34.9991C34.9991 369.14 34.9991 370.076 35.0423 370.832C35.0999 372.697 35.1575 372.697 35.2655 372.697C35.3735 372.697 35.4312 372.697 35.4888 370.832C35.4888 370.112 35.5247 369.14 35.5391 368.132H74.1599C74.1599 369.075 74.1599 369.954 74.2031 370.681C74.2607 372.704 74.3183 372.704 74.4263 372.704C74.5343 372.704 74.5919 372.704 74.6495 370.681C74.6495 369.961 74.6495 369.075 74.6927 368.132H111.125C111.125 369.075 111.125 369.961 111.168 370.688C111.226 372.711 111.283 372.711 111.391 372.711C111.499 372.711 111.557 372.711 111.614 370.688C111.614 369.968 111.65 369.082 111.658 368.132H148.097C148.097 369.09 148.097 369.968 148.14 370.702C148.198 372.726 148.248 372.726 148.363 372.726C148.478 372.726 148.529 372.726 148.586 370.702C148.586 369.982 148.586 369.09 148.63 368.132H185.062C185.062 369.09 185.062 369.975 185.105 370.71C185.162 372.733 185.22 372.733 185.328 372.733C185.436 372.733 185.494 372.733 185.551 370.71C185.551 369.99 185.551 369.09 185.594 368.132H222.026C222.026 369.09 222.026 369.982 222.07 370.717C222.127 372.74 222.185 372.74 222.293 372.74C222.401 372.74 222.458 372.74 222.516 370.717C222.516 369.997 222.552 369.09 222.566 368.132H246.773H259.013C259.013 369.104 259.013 369.997 259.056 370.738C259.114 372.762 259.171 372.762 259.279 372.762C259.387 372.762 259.445 372.762 259.502 370.738C259.502 370.018 259.538 369.097 259.546 368.132H296.525C296.525 369.111 296.525 370.018 296.568 370.767C296.626 372.79 296.683 372.79 296.791 372.79C296.899 372.79 296.957 372.79 297.014 370.767C297.014 370.047 297.05 369.111 297.058 368.132H307.735L328.925 368.096H331.394C331.394 369.104 331.394 370.033 331.438 370.796C331.495 372.819 331.553 372.819 331.661 372.819C331.769 372.819 331.826 372.819 331.884 370.796C331.884 370.033 331.92 369.097 331.927 368.096H333.497H335.052C335.075 368.094 335.097 368.084 335.113 368.066C335.13 368.049 335.138 368.026 335.138 368.002C335.17 367.991 335.196 367.967 335.21 367.937C335.224 367.907 335.225 367.872 335.214 367.84C335.202 367.809 335.179 367.783 335.149 367.769C335.118 367.755 335.083 367.753 335.052 367.765V367.765Z" fill="white"/>
<path d="M97.92 166.424C97.92 173.494 92.736 179.65 81.36 179.65C75.8376 179.65 70.02 178.11 66.1464 175.374L69.7896 168.303C73.0951 170.675 77.0685 171.936 81.1368 171.903C85.752 171.903 88.6032 169.966 88.6032 166.719C88.6032 163.58 86.5512 161.528 79.308 161.528H69.0552L71.1072 139.071H95.4504V146.48H78.804L78.1776 154.062H81.4248C93.2256 154.054 97.92 159.354 97.92 166.424Z" fill="white"/>
<path d="M101.657 159.015C101.657 145.846 108.958 138.38 118.757 138.38C128.556 138.38 135.857 145.846 135.857 159.015C135.857 172.184 128.621 179.65 118.757 179.65C108.893 179.65 101.657 172.184 101.657 159.015ZM126.569 159.015C126.569 149.95 123.372 146.192 118.757 146.192C114.142 146.192 111.01 149.95 111.01 159.015C111.01 168.08 114.199 171.838 118.757 171.838C123.314 171.838 126.569 168.08 126.569 159.015Z" fill="white"/>
<path d="M142.157 150.361C142.157 147.481 143.921 145.63 146.426 145.63C148.932 145.63 150.667 147.445 150.667 150.361C150.667 153.277 148.925 155.098 146.426 155.098C143.928 155.098 142.157 153.255 142.157 150.361ZM148.219 150.361C148.219 148.525 147.499 147.639 146.426 147.639C145.354 147.639 144.634 148.546 144.634 150.361C144.634 152.175 145.354 153.082 146.426 153.082C147.499 153.082 148.219 152.24 148.219 150.361V150.361ZM156.658 145.825H159.538L147.809 162.997H144.893L156.658 145.825ZM153.835 158.461C153.835 155.581 155.599 153.723 158.076 153.723C160.553 153.723 162.346 155.566 162.346 158.461C162.346 161.355 160.582 163.191 158.076 163.191C155.57 163.191 153.835 161.355 153.835 158.461ZM159.869 158.461C159.869 156.646 159.149 155.732 158.076 155.732C157.003 155.732 156.29 156.618 156.29 158.461C156.29 160.304 157.01 161.182 158.076 161.182C159.142 161.182 159.84 160.275 159.84 158.461H159.869Z" fill="#224091"/>
<path d="M157.291 196.023C157.291 196.124 137.606 196.21 113.328 196.21C89.0495 196.21 69.3647 196.124 69.3647 196.023C69.3647 195.922 89.0495 195.836 113.328 195.836C137.606 195.836 157.291 195.915 157.291 196.023Z" fill="white"/>
<path d="M157.291 203.799C157.291 203.9 137.606 203.986 113.328 203.986C89.0495 203.986 69.3647 203.9 69.3647 203.799C69.3647 203.698 89.0495 203.612 113.328 203.612C137.606 203.612 157.291 203.691 157.291 203.799Z" fill="white"/>
<path d="M157.291 211.575C157.291 211.676 137.606 211.762 113.328 211.762C89.0495 211.762 69.3647 211.676 69.3647 211.575C69.3647 211.474 89.0495 211.388 113.328 211.388C137.606 211.388 157.291 211.467 157.291 211.575Z" fill="white"/>
<defs>
<linearGradient id="paint0_linear_2369_117" x1="269.705" y1="-38.2539" x2="370.43" y2="136.207" gradientUnits="userSpaceOnUse">
<stop stop-color="white"/>
<stop offset="1" stop-color="white" stop-opacity="0"/>
</linearGradient>
<linearGradient id="paint1_linear_2369_117" x1="-29.0233" y1="-9.73932" x2="70.6129" y2="162.836" gradientUnits="userSpaceOnUse">
<stop stop-color="white"/>
<stop offset="1" stop-color="white" stop-opacity="0"/>
</linearGradient>
</defs>
</svg>
