<svg width="360" height="444" viewBox="0 0 360 444" fill="none" xmlns="http://www.w3.org/2000/svg">
<mask id="mask0_2369_743" style="mask-type:alpha" maskUnits="userSpaceOnUse" x="0" y="0" width="360" height="444">
<rect width="360" height="444" fill="#D9D9D9"/>
</mask>
<g mask="url(#mask0_2369_743)">
<rect width="360" height="450" fill="#224091"/>
<circle cx="281" cy="352" r="84" fill="#234399"/>
<path opacity="0.1" d="M217.808 -8.29126L319.929 -11.1894L380.403 103.26L314.953 158.393L217.808 -8.29126Z" fill="url(#paint0_linear_2369_743)"/>
<path opacity="0.1" d="M-34.3991 31.9578L-33.0513 -3.27313L-22.899 -8.24038L-1.07622 -9.0399L98.4855 155.293L45.487 157.235L-34.3991 31.9578Z" fill="url(#paint1_linear_2369_743)"/>
<circle cx="36" cy="199" r="83.5" stroke="#294BA6"/>
</g>
<path d="M262.546 60.1912L242.188 70.4015C241.442 70.7185 240.806 71.2478 240.359 71.9235C239.913 72.5993 239.675 73.3916 239.675 74.2017V83.723C239.657 92.3787 242.181 100.849 246.934 108.083C250.602 113.651 255.467 120.813 263.562 124.898H267.209C276.222 122.114 282.945 114.827 287.052 108.563C291.804 101.329 294.328 92.8588 294.311 84.2032V74.2017C294.311 73.3926 294.074 72.6012 293.628 71.9257C293.183 71.2502 292.549 70.7203 291.805 70.4015L268.615 60.5183C267.578 60.0799 263.576 59.7527 262.546 60.1912Z" fill="#E0E0E0"/>
<path d="M261.724 60.5184L238.534 70.4015C237.788 70.7185 237.152 71.2478 236.705 71.9236C236.259 72.5993 236.021 73.3916 236.021 74.2017V83.723C236.022 92.5439 238.639 101.166 243.541 108.5C248.443 115.833 255.411 121.547 263.562 124.919C272.568 122.135 279.291 114.848 283.405 108.584C288.158 101.343 290.682 92.8655 290.664 84.2032V74.2017C290.664 73.3916 290.426 72.5993 289.98 71.9236C289.533 71.2478 288.897 70.7185 288.151 70.4015L264.961 60.5184C264.448 60.303 263.898 60.1921 263.343 60.1921C262.787 60.1921 262.237 60.303 261.724 60.5184Z" fill="#F5F5F5"/>
<path d="M290.587 81.6211C290.619 81.765 290.633 81.9122 290.629 82.0595C290.629 82.3867 290.664 82.8043 290.685 83.3193C290.706 83.8343 290.741 84.5373 290.685 85.3168C290.629 86.0963 290.685 86.9872 290.56 87.9616C290.434 88.936 290.399 90.0496 290.198 91.1563C290.107 91.727 290.038 92.3186 289.919 92.9241C289.801 93.5296 289.655 94.1421 289.523 94.7755C288.881 97.5234 287.984 100.205 286.843 102.786C285.671 105.355 284.273 107.814 282.667 110.136C281.894 111.18 281.177 112.224 280.412 113.052C280.036 113.491 279.716 113.936 279.333 114.326L278.275 115.447C277.614 116.143 276.939 116.755 276.375 117.298C275.811 117.841 275.296 118.265 274.872 118.607L273.96 119.4C273.852 119.499 273.733 119.585 273.605 119.657C273.698 119.542 273.803 119.437 273.918 119.344L274.858 118.502C275.268 118.147 275.77 117.702 276.312 117.11C276.855 116.519 277.524 115.976 278.164 115.238L279.201 114.103C279.556 113.714 279.897 113.268 280.259 112.83C281.01 111.96 281.706 110.951 282.465 109.907C284.041 107.595 285.415 105.153 286.571 102.605C287.699 100.043 288.596 97.3857 289.251 94.6641L289.662 92.8267C289.787 92.2281 289.864 91.6365 289.961 91.0727C290.17 89.9452 290.253 88.8803 290.358 87.9059C290.462 86.9315 290.476 86.0546 290.532 85.2751C290.587 84.4955 290.58 83.8343 290.58 83.2845C290.58 82.7347 290.58 82.3519 290.58 82.0247C290.569 81.8903 290.571 81.755 290.587 81.6211Z" fill="#E0E0E0"/>
<path d="M261.613 102.32L248.312 91.7479L252.001 87.1055L260.924 94.1978L273.953 79.6166L278.373 83.5699L261.613 102.32Z" fill="white"/>
<path d="M324.448 112.294H321.928V98.5895C321.928 97.039 321.312 95.5519 320.216 94.4555C319.12 93.3591 317.632 92.7431 316.082 92.7431C314.531 92.7431 313.044 93.3591 311.948 94.4555C310.851 95.5519 310.236 97.039 310.236 98.5895V112.294H307.716V98.5895C307.716 96.3745 308.596 94.2501 310.162 92.6838C311.729 91.1175 313.853 90.2375 316.068 90.2375C318.283 90.2375 320.407 91.1175 321.974 92.6838C323.54 94.2501 324.42 96.3745 324.42 98.5895L324.448 112.294Z" fill="#EBEBEB"/>
<path d="M325.206 102.995H306.95C305.766 102.995 304.807 103.955 304.807 105.139V118.523C304.807 119.707 305.766 120.667 306.95 120.667H325.206C326.39 120.667 327.35 119.707 327.35 118.523V105.139C327.35 103.955 326.39 102.995 325.206 102.995Z" fill="#EBEBEB"/>
<path d="M317.808 112.287C318.032 112.059 318.209 111.79 318.328 111.493C318.448 111.197 318.508 110.88 318.504 110.561C318.507 110.098 318.381 109.643 318.14 109.248C317.898 108.852 317.551 108.533 317.138 108.324C316.724 108.116 316.261 108.027 315.799 108.068C315.338 108.109 314.897 108.278 314.527 108.556C314.157 108.834 313.872 109.21 313.704 109.642C313.536 110.074 313.492 110.543 313.577 110.999C313.662 111.454 313.872 111.876 314.185 112.218C314.497 112.56 314.898 112.808 315.344 112.934L314.815 115.287H317.175L316.701 112.934C317.113 112.816 317.488 112.593 317.787 112.287" fill="#FAFAFA"/>
<path d="M38.3153 312.31C35.6121 310.619 32.5575 309.569 29.3856 309.241C27.924 309.088 26.3302 309.13 25.1609 310.013C25.0251 310.091 24.9128 310.204 24.8356 310.34C24.7584 310.475 24.7193 310.63 24.7224 310.786C24.7937 311.007 24.9419 311.194 25.14 311.315C27.036 312.668 29.2662 313.476 31.5888 313.651C33.9113 313.827 36.2375 313.363 38.3153 312.31Z" fill="#E0E0E0"/>
<path d="M38.0856 312.06C36.0181 310.54 34.0875 308.842 32.3158 306.986C30.5404 305.116 29.2938 302.807 28.7035 300.297C28.586 299.925 28.5506 299.532 28.5999 299.145C28.6491 298.758 28.7819 298.387 28.9889 298.056C33.5825 301.648 37.1947 306.297 38.0856 312.06Z" fill="#E0E0E0"/>
<path d="M38.2666 312.275C37.843 309.763 37.8807 307.195 38.3779 304.696C38.889 302.177 40.3272 299.941 42.4078 298.432C43.2012 300.29 42.8602 302.434 42.3034 304.369C41.438 307.376 40.0861 310.221 38.3014 312.79" fill="#E0E0E0"/>
<path d="M42.7766 320.356C40.0713 320.793 37.5687 322.061 35.6148 323.982C33.5597 325.849 32.1285 328.304 31.5154 331.012C34.2019 330.845 36.4778 328.924 38.1274 326.836C39.7769 324.748 40.9114 322.388 42.7418 320.405" fill="#E0E0E0"/>
<path d="M43.758 321.644C42.6805 318.91 42.3027 315.95 42.6588 313.033C43.0149 310.116 44.0937 307.334 45.7973 304.94C47.3563 310.508 46.7786 316.772 43.758 321.644Z" fill="#E0E0E0"/>
<path d="M49.7088 328.736C47.2075 328.584 44.7168 329.17 42.5454 330.421C40.3741 331.672 38.6177 333.533 37.494 335.772C37.3478 336.072 37.2086 336.468 37.4174 336.726C37.5221 336.829 37.6506 336.904 37.7914 336.946C37.9323 336.987 38.0811 336.993 38.2248 336.963C40.633 336.809 42.7627 335.362 44.5236 333.712C46.2845 332.063 47.8226 330.156 49.7645 328.729" fill="#E0E0E0"/>
<path d="M49.5209 328.36C48.2385 324.232 48.1588 319.823 49.2912 315.651C49.7436 314.015 50.4953 312.296 52.0056 311.531C52.0661 311.49 52.1345 311.462 52.2064 311.449C52.2783 311.436 52.3521 311.437 52.4232 311.454C52.5454 311.519 52.6376 311.629 52.6807 311.76C53.1913 312.902 53.4112 314.153 53.321 315.401C53.2318 316.646 53.0409 317.882 52.7503 319.096C52.277 321.351 52.0543 323.773 50.7806 325.722C50.4899 326.191 50.2273 326.677 49.9942 327.177C49.7645 327.671 49.7645 327.873 49.5487 328.235" fill="#E0E0E0"/>
<path d="M65.2853 330.699C64.7554 328.379 64.738 325.971 65.2345 323.644C65.731 321.317 66.7293 319.126 68.1598 317.224C68.3616 316.953 68.633 316.667 68.9741 316.695C69.4891 316.744 69.6214 317.433 69.6005 317.948C69.387 322.517 67.8915 326.933 65.2853 330.692" fill="#E0E0E0"/>
<path d="M66.7051 331.673C69.4632 332.324 72.3296 332.368 75.1066 331.804C77.8836 331.239 80.5049 330.078 82.7897 328.402C80.0985 327.048 77.0207 326.672 74.0827 327.337C71.1734 328.033 68.5147 329.3 66.7051 331.673Z" fill="#E0E0E0"/>
<path d="M67.9022 328.715C70.9298 323.787 76.7275 320.572 82.5182 320.272C81.8222 322.625 79.9222 324.448 77.7437 325.555C75.5105 326.557 73.1496 327.246 70.728 327.601C69.7954 327.782 68.5147 327.984 67.944 328.715" fill="#E0E0E0"/>
<path d="M65.5846 314.356C66.5026 311.58 67.1278 308.716 67.4498 305.81C67.7733 302.885 67.1799 299.933 65.7516 297.36C62.9258 302.824 62.6405 309.192 65.501 314.656" fill="#E0E0E0"/>
<path d="M75.0919 309.568C78.3979 303.568 85.1352 298.773 91.949 298.098C89.3182 304.647 82.1494 309.707 75.0919 309.568Z" fill="#E0E0E0"/>
<path d="M73.0178 310.73C77.9386 311.482 82.1354 314.628 86.736 316.535C87.7022 316.997 88.7717 317.201 89.8402 317.127C90.3366 317.12 90.8191 316.962 91.2227 316.673C91.6264 316.384 91.9318 315.978 92.0978 315.51C92.2639 315.042 92.2826 314.535 92.1515 314.056C92.0203 313.577 91.7457 313.15 91.3644 312.832C90.7132 312.222 89.9464 311.749 89.1094 311.44C84.0982 309.352 78.7181 309.304 73.4424 310.57" fill="#E0E0E0"/>
<path d="M70.1642 314.182C71.2778 314.503 71.6606 315.08 72.5446 315.832C75.5641 318.398 79.1379 320.227 82.9846 321.177C83.3813 321.275 83.9033 321.316 84.1051 320.962C84.307 320.607 84.0564 320.266 83.8337 319.987C82.1678 318.027 80.0037 316.553 77.5697 315.721C75.1685 314.823 73.0874 313.744 70.2199 313.981" fill="#E0E0E0"/>
<path d="M66.9487 293.323C68.9687 295.186 71.356 296.604 73.957 297.489C76.5581 298.374 79.3154 298.704 82.0519 298.46C82.3061 298.468 82.5543 298.381 82.7479 298.216C83.1307 297.799 82.6714 297.158 82.2329 296.824C77.7924 293.344 72.4123 291.952 66.9626 293.344" fill="#E0E0E0"/>
<path d="M70.7628 291.924C73.4362 289.958 76.5365 288.652 79.8109 288.113C83.0852 287.573 86.4407 287.816 89.6035 288.82C87.1374 291.103 83.9751 292.491 80.6251 292.76C77.3141 293.064 73.9755 292.781 70.7628 291.924Z" fill="#E0E0E0"/>
<path d="M69.2455 282.34C68.814 277.907 69.0924 274.413 68.7862 269.959C68.7862 269.604 68.6887 269.179 68.3546 269.047C67.8883 268.873 67.5055 269.437 67.3524 269.91C66.7064 271.974 66.5406 274.157 66.8674 276.295C67.1943 278.432 68.0054 280.467 69.2386 282.243" fill="#E0E0E0"/>
<path d="M68.9254 282.828C71.8321 280.963 74.3379 278.538 76.296 275.694C77.7437 273.71 78.9686 271.337 78.6415 268.901C77.6205 268.928 76.6176 269.177 75.7028 269.631C74.788 270.086 73.9834 270.734 73.345 271.532C72.0809 273.136 71.1616 274.984 70.6445 276.96C70.0598 278.909 69.6492 280.914 68.9532 282.828" fill="#E0E0E0"/>
<path d="M76.1429 280.823C82.7616 278.381 88.8901 274.775 94.2389 270.174C92.0813 269.304 89.6105 269.826 87.4529 270.696C82.5547 272.552 78.5079 276.14 76.0802 280.781" fill="#E0E0E0"/>
<path d="M70.9577 285.257C74.283 285.729 77.6572 285.745 80.987 285.305C84.2374 284.763 87.3137 283.468 90.3482 282.194C90.6137 282.115 90.8413 281.942 90.9886 281.707C91.0344 281.566 91.037 281.414 90.996 281.272C90.9551 281.129 90.8725 281.002 90.7589 280.907C90.5239 280.723 90.2502 280.594 89.9585 280.531C86.6525 279.612 83.089 280.044 79.8386 281.136C76.7429 282.197 73.7664 283.578 70.9577 285.257Z" fill="#E0E0E0"/>
<path d="M51.936 293.476C49.6601 288.883 49.848 283.524 51.7759 278.791C53.1679 280.879 53.328 283.579 53.0774 286.092C52.8269 288.604 52.0613 291.18 52.0056 293.699" fill="#E0E0E0"/>
<path d="M42.8254 288.89C39.9774 288.852 37.153 289.409 34.533 290.526C31.913 291.643 29.5552 293.295 27.6108 295.377C30.4871 295.722 33.4004 295.183 35.9628 293.831C38.4996 292.485 40.8923 290.883 43.1038 289.05" fill="#E0E0E0"/>
<path d="M36.7145 286.844C33.9305 286.621 31.2648 286.28 28.5922 287.094C27.2437 287.474 25.9929 288.14 24.9252 289.047C23.8574 289.953 22.9977 291.08 22.4047 292.349C25.026 292.559 27.6556 292.062 30.019 290.908C32.3683 289.757 34.6092 288.397 36.7145 286.844Z" fill="#E0E0E0"/>
<path d="M45.7625 286.941C43.2638 285.305 40.6956 283.635 37.7863 282.953C34.877 282.271 31.5223 282.779 29.4761 284.971C31.8286 286.363 34.6891 286.516 37.4244 286.516C40.1597 286.516 43.5005 286.482 46.0757 287.393" fill="#E0E0E0"/>
<path d="M45.7764 287.073C41.503 282.897 39.8882 275.339 41.6004 269.604C44.9725 274.768 46.4484 280.942 45.7764 287.073Z" fill="#E0E0E0"/>
<path d="M57.504 275.186C58.3114 273.306 58.896 271.344 59.592 269.437C60.2509 267.502 61.2634 265.706 62.5778 264.14C63.9095 262.553 65.8119 261.553 67.8744 261.356C67.2156 264.247 65.9619 266.969 64.1932 269.349C62.4246 271.729 60.1796 273.714 57.6014 275.179" fill="#E0E0E0"/>
<path d="M55.416 277.663C54.0866 275.826 52.5415 273.334 50.7319 271.963C48.9223 270.592 46.5559 269.764 44.3635 270.286C45.5068 272.289 47.1008 273.998 49.0191 275.279C50.9375 276.559 53.1275 277.376 55.416 277.663Z" fill="#E0E0E0"/>
<path d="M55.8266 275.339C54.8793 273.147 54.179 270.857 53.7386 268.511C53.3013 266.136 53.679 263.684 54.8105 261.551C57.156 265.984 57.9146 270.745 55.9728 275.374" fill="#E0E0E0"/>
<path d="M57.5527 261.544C58.8821 257.152 62.905 253.888 67.255 252.426C67.7922 252.206 68.3752 252.12 68.9532 252.176C69.2421 252.206 69.5156 252.321 69.7387 252.507C69.9619 252.693 70.1245 252.941 70.206 253.22C70.3661 253.965 69.7466 254.612 69.162 255.134C65.7667 258.035 61.8169 260.216 57.5527 261.544Z" fill="#E0E0E0"/>
<path d="M57.6014 257.974C57.7685 255.134 57.9425 252.259 58.8682 249.573C59.7938 246.886 61.5686 244.374 64.1508 243.197C64.5893 246.058 63.3295 248.905 61.8053 251.368C60.281 253.832 58.4436 256.157 57.5318 258.906" fill="#E0E0E0"/>
<path d="M57.504 259.922C56.4043 256.721 56.293 252.649 54.372 249.858C53.0287 247.909 50.892 246.58 49.7297 244.513C49.0317 246.495 49.129 248.67 50.0011 250.582C50.8737 252.473 52.0756 254.193 53.5507 255.663C54.9427 257.18 56.1816 258.322 57.504 259.922Z" fill="#E0E0E0"/>
<path d="M57.5527 354.265C57.4692 354.265 57.3926 332.898 57.3857 306.54C57.3787 280.183 57.4483 258.809 57.5318 258.809C57.6154 258.809 57.6919 280.169 57.6989 306.54C57.7058 332.912 57.6362 354.265 57.5527 354.265Z" fill="#E0E0E0"/>
<path d="M76.2264 290.247C75.971 290.377 75.7028 290.479 75.426 290.553L73.2127 291.298C71.3474 291.931 68.7862 292.85 66.0091 293.992C63.2321 295.133 60.6569 296.128 59.1814 297.409C58.5835 297.899 58.107 298.521 57.7894 299.225C57.5736 299.727 57.5388 300.033 57.511 300.033C57.4831 300.033 57.511 299.949 57.511 299.803C57.5463 299.592 57.5999 299.385 57.671 299.184C57.9498 298.438 58.4089 297.773 59.0074 297.249C59.9001 296.494 60.8991 295.875 61.9723 295.411C63.1555 294.855 64.471 294.277 65.863 293.706C68.647 292.565 71.2291 291.674 73.1153 291.089C74.0618 290.797 74.8274 290.581 75.3634 290.435C75.6445 290.345 75.9335 290.282 76.2264 290.247Z" fill="#E0E0E0"/>
<path d="M82.3512 275.213C82.2859 275.302 82.2086 275.382 82.1215 275.45L81.4255 276.097L78.8642 278.422L70.3452 286.008C67.0183 288.973 64.1438 291.799 62.1533 293.929C61.151 294.994 60.3646 295.878 59.8286 296.49L59.2092 297.186C59.1445 297.274 59.0671 297.351 58.9795 297.416C59.0314 297.318 59.0945 297.227 59.1674 297.144C59.2927 296.97 59.4806 296.713 59.7382 296.4C60.2462 295.759 61.0118 294.855 61.9932 293.769C64.564 290.959 67.2822 288.287 70.1364 285.765C73.4772 282.814 76.5118 280.155 78.7181 278.248C79.8038 277.315 80.6947 276.557 81.342 275.993L82.038 275.394C82.1336 275.32 82.239 275.259 82.3512 275.213Z" fill="#E0E0E0"/>
<path d="M66.7678 289.022C66.6773 288.98 67.3733 287.38 68.0693 285.347C68.7653 283.315 69.0924 281.61 69.1829 281.624C69.1107 282.932 68.8336 284.222 68.3616 285.445C68.0627 286.312 67.7165 287.162 67.3246 287.992C67.1847 288.358 66.9975 288.705 66.7678 289.022Z" fill="#E0E0E0"/>
<path d="M57.5736 301.954C57.3785 301.778 57.2056 301.58 57.0586 301.362L55.7431 299.678C54.6434 298.251 53.1192 296.281 51.407 294.11C49.6949 291.938 48.1289 290.024 46.9874 288.625L45.672 286.983C45.4959 286.788 45.3397 286.576 45.2057 286.349C45.4089 286.517 45.5953 286.703 45.7625 286.906C46.1035 287.275 46.5907 287.825 47.1545 288.507C48.3377 289.899 49.9385 291.778 51.6506 293.936C53.3628 296.093 54.8592 298.112 55.9171 299.546C56.453 300.242 56.8706 300.875 57.156 301.293C57.3173 301.498 57.4573 301.72 57.5736 301.954Z" fill="#E0E0E0"/>
<path d="M53.4742 296.699C52.6489 295.786 52.061 294.684 51.762 293.49C51.4364 292.442 51.3043 291.343 51.3722 290.247H51.5114C51.4924 290.38 51.4475 290.507 51.3792 290.623C51.3792 290.623 51.3792 290.477 51.3792 290.226H51.5184C51.5834 291.294 51.7655 292.351 52.0613 293.379C52.4516 294.518 52.9238 295.628 53.4742 296.699Z" fill="#E0E0E0"/>
<path d="M48.1915 290.08C47.8213 289.802 47.4195 289.568 46.9944 289.384C45.9171 289.059 44.7826 288.969 43.6675 289.12C42.5383 289.202 41.4182 289.381 40.3198 289.655C39.8633 289.796 39.3984 289.908 38.9278 289.99C39.3341 289.739 39.7783 289.556 40.2432 289.447C41.3452 289.106 42.4823 288.891 43.6327 288.806C44.7872 288.653 45.9617 288.78 47.057 289.175C47.5286 289.336 47.9296 289.656 48.1915 290.08Z" fill="#E0E0E0"/>
<path d="M46.9387 288.437C46.9387 288.486 46.2427 288.159 45.1013 287.741C42.1268 286.729 38.9439 286.49 35.8514 287.045C34.6682 287.254 33.9583 287.477 33.9374 287.428C34.0871 287.332 34.2518 287.262 34.4246 287.219C34.8798 287.06 35.3448 286.93 35.8166 286.83C37.3719 286.489 38.9686 286.376 40.5564 286.496C42.1413 286.619 43.7002 286.971 45.1848 287.54C45.6331 287.711 46.0701 287.911 46.4933 288.138C46.6562 288.214 46.8065 288.315 46.9387 288.437Z" fill="#E0E0E0"/>
<path d="M57.504 281.624C56.9591 280.104 56.5127 278.551 56.1677 276.974C55.7181 275.423 55.3693 273.845 55.1237 272.248C55.6692 273.768 56.1178 275.321 56.467 276.898C56.9125 278.449 57.2589 280.028 57.504 281.624Z" fill="#E0E0E0"/>
<path d="M57.6154 281.624C57.1875 280.662 56.6921 279.731 56.1329 278.84C55.5061 277.996 54.7714 277.237 53.9474 276.585C54.2581 276.664 54.5463 276.814 54.7896 277.023C55.4099 277.474 55.9489 278.027 56.3834 278.659C57.0484 279.521 57.4734 280.544 57.6154 281.624Z" fill="#E0E0E0"/>
<path d="M57.5527 342.872C57.5527 342.872 57.4553 342.357 57.2117 341.48C56.8705 340.203 56.4042 338.962 55.8197 337.777C53.7618 333.911 51.2169 330.326 48.2472 327.107C46.5559 325.172 44.9134 323.349 43.5214 321.602C42.2683 320.069 41.1374 318.44 40.1388 316.73C39.4672 315.575 38.8967 314.364 38.4336 313.111C38.2735 312.665 38.1622 312.317 38.0995 312.081C38.0588 311.96 38.0285 311.837 38.009 311.712C38.009 311.712 38.19 312.199 38.545 313.069C39.0507 314.294 39.6462 315.481 40.3267 316.618C41.3466 318.301 42.4863 319.909 43.7371 321.428C45.1291 323.154 46.7856 324.964 48.4769 326.898C51.4682 330.137 54.0063 333.766 56.0215 337.686C56.6032 338.89 57.0536 340.152 57.3648 341.452C57.4472 341.805 57.51 342.163 57.5527 342.524C57.5634 342.639 57.5634 342.756 57.5527 342.872Z" fill="#E0E0E0"/>
<path d="M74.4307 323.815C74.1447 323.995 73.8497 324.16 73.5468 324.309C72.7448 324.758 71.9771 325.265 71.25 325.827C70.1728 326.66 69.1649 327.579 68.2363 328.576C67.1784 329.689 66.0926 330.984 64.979 332.376C62.7588 335.16 60.6778 337.638 59.411 339.607C58.7777 340.582 58.3183 341.403 58.019 341.981C57.876 342.288 57.7133 342.585 57.5318 342.872C57.5318 342.872 57.5318 342.781 57.6154 342.621C57.6989 342.461 57.7685 342.224 57.9077 341.925C58.3027 341.089 58.749 340.277 59.244 339.496C60.9346 336.958 62.768 334.518 64.7354 332.188C65.849 330.796 66.9557 329.501 68.0345 328.381C68.9837 327.388 70.0151 326.478 71.1178 325.66C71.8698 325.097 72.6712 324.603 73.512 324.184C73.7377 324.068 73.9701 323.966 74.208 323.878C74.3518 323.822 74.4261 323.801 74.4307 323.815Z" fill="#E0E0E0"/>
<path d="M74.7578 329.996C74.1411 330.131 73.5154 330.222 72.8856 330.267C71.3837 330.421 69.8994 330.714 68.4521 331.144C67.0205 331.609 65.6788 332.315 64.4849 333.232C63.5731 333.928 63.1416 334.52 63.0929 334.492C63.0442 334.464 63.1625 334.318 63.3643 334.06C63.655 333.697 63.9815 333.363 64.3387 333.065C65.5228 332.076 66.8863 331.325 68.3546 330.852C69.8201 330.414 71.3311 330.148 72.8578 330.058C73.4879 329.979 74.1239 329.958 74.7578 329.996Z" fill="#E0E0E0"/>
<path d="M63.6427 333.803C63.5453 333.747 64.3874 332.459 65.0347 330.726C65.682 328.993 65.7934 327.448 65.8978 327.469C65.9572 327.801 65.9572 328.14 65.8978 328.471C65.8028 329.277 65.6208 330.071 65.3549 330.838C65.0686 331.595 64.7048 332.32 64.2691 333.002C64.1073 333.303 63.8954 333.573 63.6427 333.803Z" fill="#E0E0E0"/>
<path d="M79.8943 307.209C79.8036 307.277 79.7026 307.331 79.595 307.369L78.7181 307.765C78.3283 307.932 77.862 308.141 77.3261 308.42C76.7902 308.698 76.1777 308.976 75.5374 309.359L74.5212 309.937C74.1662 310.146 73.8252 310.382 73.4424 310.633C72.6907 311.085 71.939 311.649 71.1317 312.22C69.4258 313.514 67.8161 314.931 66.3154 316.458C64.8426 318.003 63.4863 319.655 62.2577 321.4C61.7078 322.228 61.1719 323.001 60.7404 323.766C60.5246 324.142 60.295 324.504 60.1001 324.866L59.592 325.91C59.2301 326.564 58.9726 327.191 58.715 327.727C58.4575 328.263 58.2626 328.736 58.1095 329.119C57.9564 329.501 57.8381 329.773 57.7406 330.01C57.7024 330.116 57.6535 330.219 57.5945 330.316C57.6077 330.203 57.6383 330.092 57.685 329.989L57.9982 329.077C58.1374 328.68 58.3114 328.193 58.555 327.65C58.7986 327.107 59.0422 326.467 59.3971 325.806C59.5642 325.465 59.7451 325.11 59.9261 324.748C60.107 324.386 60.3367 324.052 60.5594 323.634C60.984 322.855 61.513 322.075 62.0558 321.24C64.4988 317.668 67.5272 314.533 71.0134 311.969C71.8277 311.398 72.5933 310.842 73.3519 310.396C73.7347 310.167 74.0897 309.923 74.4446 309.7L75.4817 309.13C76.1359 308.761 76.7623 308.489 77.2982 308.232C77.7513 308.006 78.216 307.804 78.6902 307.626L79.595 307.278C79.6923 307.245 79.7925 307.222 79.8943 307.209Z" fill="#E0E0E0"/>
<path d="M66.552 316.159C66.6623 315.73 66.906 315.348 67.248 315.066C68.0714 314.35 69.1217 313.948 70.213 313.932C71.2798 313.927 72.337 314.133 73.3241 314.537C73.7409 314.672 74.1368 314.864 74.5003 315.108C74.0743 315.028 73.6571 314.907 73.2545 314.746C72.2784 314.409 71.2527 314.237 70.2199 314.238C69.196 314.26 68.2059 314.609 67.3942 315.233C67.0894 315.519 66.8078 315.829 66.552 316.159Z" fill="#E0E0E0"/>
<path d="M64.5406 318.219C64.9368 317.347 65.2198 316.428 65.3827 315.484C65.4391 314.529 65.376 313.57 65.1948 312.63C65.3739 312.865 65.4933 313.14 65.5428 313.431C65.9028 314.807 65.7313 316.268 65.0626 317.523C64.7981 317.997 64.5684 318.24 64.5406 318.219Z" fill="#E0E0E0"/>
<path d="M42.7906 345.934C43.2499 354.105 45.7138 362.408 49.5 370.809H65.9604C69.5726 362.492 71.8625 354.203 72.2662 345.934H42.7906Z" fill="#E0E0E0"/>
<path d="M69.6005 359.151C69.6005 359.235 64.1786 359.304 57.497 359.304C50.8154 359.304 45.3936 359.235 45.3936 359.151C45.3936 359.068 50.8085 358.984 57.504 358.984C64.1995 358.984 69.6005 359.068 69.6005 359.151Z" fill="#FAFAFA"/>
<path d="M69.2316 362.109C69.2316 362.193 64.1508 362.262 57.8868 362.262C51.6228 362.262 46.535 362.193 46.535 362.109C46.535 362.026 51.6158 361.956 57.8868 361.956C64.1578 361.956 69.2316 362.026 69.2316 362.109Z" fill="#FAFAFA"/>
<path d="M49.7645 351.328C49.9686 353.85 49.9686 356.385 49.7645 358.907C49.5603 356.385 49.5603 353.85 49.7645 351.328Z" fill="#FAFAFA"/>
<path d="M58.5828 351.328C58.787 353.941 58.787 356.566 58.5828 359.179C58.3786 356.566 58.3786 353.941 58.5828 351.328Z" fill="#FAFAFA"/>
<path d="M66.8652 351.231C67.0694 353.897 67.0694 356.575 66.8652 359.242C66.661 356.575 66.661 353.897 66.8652 351.231Z" fill="#FAFAFA"/>
<path d="M71.7442 351.328C71.7442 351.412 65.3897 351.481 57.5527 351.481C49.7158 351.481 43.3474 351.412 43.3474 351.328C43.3474 351.244 49.7088 351.175 57.5527 351.175C65.3966 351.175 71.7442 351.21 71.7442 351.328Z" fill="#FAFAFA"/>
<path d="M327.127 275.137C328.634 274.471 329.912 273.379 330.804 271.995C331.696 270.611 332.162 268.995 332.146 267.349C332.146 262.699 328.666 258.913 324.288 258.899C319.91 258.885 316.374 262.63 316.36 267.251C316.329 268.911 316.789 270.543 317.683 271.941C318.578 273.339 319.866 274.442 321.385 275.109C309.24 276.94 309.79 290.136 309.79 290.136L338.514 290.268C338.514 290.268 339.168 276.953 327.127 275.137Z" fill="#EBEBEB"/>
<path d="M198.006 83.2358C199.063 83.028 200.038 82.5175 200.812 81.7663C201.585 81.0152 202.124 80.0556 202.362 79.0041C202.561 78.3294 202.619 77.6213 202.534 76.9232C202.45 76.2251 202.224 75.5516 201.871 74.9436C201.517 74.3356 201.044 73.806 200.479 73.3871C199.914 72.9681 199.27 72.6686 198.586 72.5067C197.901 72.3448 197.191 72.3241 196.499 72.4456C195.806 72.5672 195.145 72.8286 194.557 73.2138C193.969 73.5991 193.465 74.1001 193.077 74.6863C192.688 75.2726 192.424 75.9318 192.298 76.6238C192.031 77.679 192.082 78.79 192.446 79.8159C192.811 80.8419 193.471 81.7366 194.345 82.3867C186.32 81.7533 184.726 90.2584 184.726 90.2584L203.031 94.5945C203.031 94.5945 205.425 86.152 198.006 83.2358Z" fill="#EBEBEB"/>
<path d="M327.914 154.089C328.792 153.54 329.489 152.745 329.92 151.804C330.35 150.862 330.495 149.815 330.336 148.792C330.284 148.115 330.093 147.456 329.776 146.855C329.459 146.254 329.022 145.725 328.492 145.3C327.963 144.874 327.351 144.562 326.696 144.383C326.041 144.203 325.356 144.159 324.684 144.255C324.011 144.35 323.366 144.582 322.786 144.937C322.207 145.291 321.707 145.761 321.316 146.317C320.925 146.873 320.653 147.502 320.515 148.167C320.377 148.833 320.378 149.519 320.515 150.184C320.644 151.22 321.077 152.194 321.759 152.983C322.442 153.773 323.344 154.341 324.35 154.618C316.966 156.852 318.49 165.009 318.49 165.009L336.363 162.51C336.363 162.51 335.563 154.137 327.914 154.089Z" fill="#F5F5F5"/>
<path d="M41.1341 156.615L31.4806 148.938L34.1532 145.57L40.633 150.713L50.0846 140.141L53.2932 143.008L41.1341 156.615Z" fill="#F5F5F5"/>
<path d="M333.579 371.053C333.579 371.157 263.875 371.234 177.919 371.234C91.963 371.234 22.2446 371.157 22.2446 371.053C22.2446 370.948 91.9282 370.872 177.919 370.872C263.91 370.872 333.579 370.955 333.579 371.053Z" fill="white"/>
<path d="M54.3024 167.73L32.9561 178.442C32.1817 178.779 31.5231 179.336 31.0617 180.043C30.6003 180.751 30.3564 181.578 30.36 182.423V192.41C30.3355 201.495 32.9808 210.387 37.9673 217.981C41.8162 223.842 46.9178 231.331 55.4021 235.611H59.2301C68.6818 232.73 75.7322 225.053 80.0405 218.482C85.029 210.889 87.6767 201.997 87.6547 192.911V182.423C87.6536 181.575 87.4038 180.745 86.9362 180.038C86.4686 179.33 85.8037 178.775 85.0238 178.442L60.6708 168.078C59.592 167.619 55.416 167.271 54.3024 167.73Z" fill="#224091"/>
<path opacity="0.3" d="M54.3024 167.73L32.9561 178.442C32.1817 178.779 31.5231 179.336 31.0617 180.043C30.6003 180.751 30.3564 181.578 30.36 182.423V192.41C30.3355 201.495 32.9808 210.387 37.9673 217.981C41.8162 223.842 46.9178 231.331 55.4021 235.611H59.2301C68.6818 232.73 75.7322 225.053 80.0405 218.482C85.029 210.889 87.6767 201.997 87.6547 192.911V182.423C87.6536 181.575 87.4038 180.745 86.9362 180.038C86.4686 179.33 85.8037 178.775 85.0238 178.442L60.6708 168.078C59.592 167.619 55.416 167.271 54.3024 167.73Z" fill="black"/>
<path d="M53.4463 168.078L29.1211 178.442C28.3413 178.775 27.6764 179.33 27.2088 180.038C26.7412 180.745 26.4913 181.575 26.4902 182.423V192.41C26.4908 201.66 29.2347 210.702 34.3749 218.392C39.5151 226.081 46.8207 232.074 55.3673 235.611C64.812 232.73 71.8625 225.053 76.1777 218.482C81.1662 210.889 83.8139 201.997 83.7919 192.911V182.423C83.7914 181.575 83.5426 180.747 83.0763 180.039C82.61 179.332 81.9465 178.776 81.168 178.442L56.808 168.078C56.2758 167.855 55.7044 167.74 55.1272 167.74C54.55 167.74 53.9785 167.855 53.4463 168.078Z" fill="#EBEBEB"/>
<path opacity="0.3" d="M60.9132 213.379C69.1236 210.194 73.1978 200.957 70.0132 192.746C66.8286 184.536 57.5911 180.462 49.3807 183.646C41.1703 186.831 37.0961 196.069 40.2807 204.279C43.4653 212.489 52.7028 216.564 60.9132 213.379Z" fill="#939393"/>
<path d="M55.1376 199.398C58.7932 199.398 61.7566 196.435 61.7566 192.779C61.7566 189.124 58.7932 186.16 55.1376 186.16C51.482 186.16 48.5186 189.124 48.5186 192.779C48.5186 196.435 51.482 199.398 55.1376 199.398Z" fill="white"/>
<path d="M43.055 208.906C44.1195 206.678 45.7995 204.803 47.8962 203.5C49.993 202.198 52.4189 201.523 54.887 201.556C57.4179 201.556 59.9018 202.239 62.0772 203.533C64.2526 204.826 66.0389 206.682 67.248 208.906C67.248 208.906 63.3434 214.682 54.72 214.474C52.4851 214.465 50.28 213.961 48.263 212.998C46.2461 212.035 44.4675 210.637 43.055 208.906Z" fill="white"/>
<path d="M71.083 198.514C71.075 198.429 71.075 198.342 71.083 198.257C71.083 198.069 71.083 197.818 71.0203 197.505C71.0203 197.338 71.0203 197.15 71.0203 196.948C71.0203 196.746 70.9507 196.524 70.9159 196.252C70.8433 195.7 70.7317 195.153 70.5818 194.617C70.2035 193.13 69.6053 191.709 68.807 190.399C67.7601 188.661 66.3898 187.139 64.7702 185.917C62.8137 184.429 60.5342 183.423 58.1165 182.98C55.3407 182.469 52.4788 182.709 49.8271 183.676C49.1095 183.925 48.4116 184.227 47.7391 184.58C47.0667 184.949 46.4202 185.363 45.8042 185.819C45.1777 186.291 44.5803 186.8 44.0155 187.343C43.4619 187.917 42.9458 188.527 42.4704 189.167C41.496 190.487 40.7372 191.953 40.2223 193.51C39.1364 196.739 39.1364 200.234 40.2223 203.463C40.7342 205.022 41.4932 206.488 42.4704 207.806C42.9457 208.448 43.4618 209.06 44.0155 209.636C44.5786 210.18 45.1761 210.687 45.8042 211.154C47.0126 212.075 48.3584 212.801 49.7923 213.304C52.444 214.271 55.3059 214.511 58.0817 214C60.2862 213.585 62.3781 212.709 64.2204 211.429C66.0627 210.149 67.6139 208.495 68.7722 206.574C69.5616 205.273 70.1505 203.86 70.5192 202.384C70.6685 201.845 70.7801 201.296 70.8533 200.741C70.8533 200.505 70.9368 200.282 70.9577 200.045C70.9786 199.809 70.9577 199.656 70.9577 199.489L71.0203 198.73C71.0132 198.644 71.0132 198.558 71.0203 198.472C71.0278 198.558 71.0278 198.644 71.0203 198.73C71.0203 198.925 71.0203 199.175 71.0203 199.496C71.0203 199.663 71.0203 199.851 71.0203 200.052C71.0203 200.254 70.9646 200.484 70.9298 200.748C70.8742 201.31 70.7718 201.867 70.6236 202.412C70.2705 203.92 69.6858 205.363 68.8906 206.692C66.9992 209.921 64.0364 212.386 60.5169 213.657C56.9974 214.929 53.1437 214.927 49.6253 213.652C48.9088 213.395 48.2112 213.088 47.5373 212.734C46.8522 212.348 46.1962 211.913 45.5746 211.432C44.9272 210.957 44.3133 210.439 43.7371 209.88C43.1831 209.301 42.667 208.688 42.192 208.042C41.1901 206.695 40.41 205.196 39.8813 203.602C39.3527 201.957 39.0735 200.242 39.053 198.514C39.0724 196.786 39.354 195.07 39.8882 193.426C40.4117 191.832 41.1897 190.332 42.192 188.986C42.6813 188.332 43.2113 187.709 43.7789 187.121C44.3529 186.562 44.9645 186.044 45.6094 185.569C46.2265 185.098 46.8753 184.67 47.5512 184.288C48.225 183.932 48.9226 183.622 49.6392 183.362C52.3458 182.382 55.2651 182.141 58.0956 182.666C60.3408 183.098 62.4679 184.004 64.3344 185.325C66.2009 186.645 67.7638 188.349 68.9184 190.322C69.7138 191.653 70.2984 193.1 70.6514 194.61C70.7995 195.152 70.902 195.706 70.9577 196.266C70.9577 196.51 71.0342 196.732 71.0482 196.962V197.526C71.0482 197.846 71.0482 198.097 71.0482 198.285C71.0661 198.36 71.0778 198.437 71.083 198.514Z" fill="#263238"/>
<path d="M83.7084 190.204C83.7409 190.357 83.7572 190.514 83.7571 190.67C83.7571 191.004 83.7571 191.443 83.8128 191.993C83.8685 192.543 83.8685 193.266 83.8128 194.081C83.8128 194.491 83.8128 194.923 83.8128 195.389C83.8128 195.856 83.8128 196.343 83.7223 196.851C83.6249 197.874 83.5553 199.001 83.3395 200.199C83.249 200.797 83.1725 201.417 83.0472 202.05C82.9219 202.683 82.7688 203.331 82.6296 203.999C81.9603 206.876 81.0284 209.686 79.8456 212.392C78.6233 215.086 77.1629 217.664 75.4817 220.097C74.6743 221.19 73.9296 222.248 73.1222 223.16C72.7325 223.619 72.3706 224.085 71.9878 224.496L70.8811 225.665C70.1851 226.438 69.4891 227.057 68.8906 227.607C68.3897 228.1 67.8623 228.564 67.3106 228.999L66.2806 229.834C66.1676 229.936 66.0439 230.024 65.9117 230.099C66.0106 229.982 66.1201 229.875 66.2388 229.779L67.2202 228.895C67.6586 228.519 68.1806 228.052 68.7514 227.503C69.3221 226.953 70.0181 226.306 70.6932 225.533L71.779 224.35C72.1548 223.939 72.475 223.473 72.8926 223.013C73.679 222.102 74.4098 221.044 75.2102 219.944C76.8623 217.521 78.3014 214.959 79.5115 212.288C80.6877 209.593 81.6194 206.798 82.2955 203.936L82.727 202.001C82.8523 201.375 82.9358 200.755 83.0402 200.164C83.263 198.981 83.3465 197.86 83.4578 196.844C83.5205 196.336 83.5622 195.849 83.5762 195.389L83.6388 194.088C83.7014 193.273 83.6875 192.57 83.6875 192C83.6875 191.429 83.6875 191.018 83.6875 190.677C83.6826 190.519 83.6896 190.361 83.7084 190.204Z" fill="#263238"/>
<path d="M252.948 371.053H88.3716C87.2934 371.035 86.2293 370.804 85.2401 370.374C84.251 369.945 83.3563 369.324 82.6071 368.549C81.8579 367.773 81.269 366.857 80.874 365.854C80.479 364.85 80.2856 363.779 80.305 362.701V111.152C80.2856 110.074 80.479 109.003 80.874 107.999C81.269 106.996 81.8579 106.08 82.6071 105.304C83.3563 104.529 84.251 103.908 85.2401 103.479C86.2293 103.049 87.2934 102.818 88.3716 102.8H252.948C254.026 102.818 255.089 103.049 256.078 103.479C257.067 103.908 257.961 104.529 258.71 105.305C259.458 106.081 260.047 106.996 260.441 108C260.835 109.003 261.028 110.074 261.007 111.152V362.715C261.026 363.791 260.832 364.861 260.437 365.863C260.042 366.865 259.453 367.779 258.705 368.553C257.956 369.327 257.063 369.947 256.075 370.376C255.087 370.804 254.024 371.035 252.948 371.053Z" fill="#263238"/>
<path d="M173.813 358.852C173.839 360.371 173.412 361.864 172.587 363.141C171.762 364.417 170.576 365.419 169.179 366.019C167.783 366.618 166.239 366.789 164.746 366.509C163.252 366.228 161.875 365.51 160.791 364.445C159.707 363.379 158.965 362.016 158.659 360.527C158.352 359.038 158.496 357.492 159.072 356.086C159.647 354.679 160.628 353.475 161.89 352.628C163.151 351.781 164.637 351.328 166.157 351.328C168.169 351.311 170.106 352.094 171.542 353.505C172.977 354.916 173.794 356.839 173.813 358.852Z" fill="#455A64"/>
<path d="M189.173 116.985H152.285C151.942 116.979 151.602 116.906 151.287 116.77C150.972 116.633 150.686 116.436 150.447 116.189C150.208 115.942 150.02 115.65 149.893 115.331C149.767 115.011 149.705 114.67 149.71 114.326C149.699 113.631 149.964 112.961 150.447 112.461C150.929 111.961 151.591 111.673 152.285 111.66H189.173C189.868 111.673 190.529 111.961 191.012 112.461C191.495 112.961 191.76 113.631 191.748 114.326C191.754 114.67 191.692 115.011 191.565 115.331C191.439 115.65 191.251 115.942 191.012 116.189C190.772 116.436 190.487 116.633 190.172 116.77C189.856 116.906 189.517 116.979 189.173 116.985Z" fill="#455A64"/>
<path d="M255.161 121.947H85.8521V345.962H255.161V121.947Z" fill="white"/>
<path d="M255.161 121.947H247.937V345.962H255.161V121.947Z" fill="#F5F5F5"/>
<path d="M251.542 202.433C250.945 202.431 250.373 202.192 249.952 201.77C249.53 201.347 249.294 200.775 249.294 200.178V150.629C249.294 150.033 249.53 149.46 249.952 149.037C250.373 148.615 250.945 148.376 251.542 148.374C252.14 148.374 252.713 148.612 253.136 149.035C253.559 149.458 253.797 150.031 253.797 150.629V200.178C253.797 200.776 253.559 201.349 253.136 201.772C252.713 202.195 252.14 202.433 251.542 202.433Z" fill="#E0E0E0"/>
<path d="M233.077 172.929H108.242C107.29 172.929 106.376 172.551 105.703 171.877C105.029 171.204 104.651 170.29 104.651 169.338C104.651 168.385 105.029 167.472 105.703 166.798C106.376 166.125 107.29 165.747 108.242 165.747H233.077C234.029 165.747 234.943 166.125 235.616 166.798C236.29 167.472 236.668 168.385 236.668 169.338C236.668 170.29 236.29 171.204 235.616 171.877C234.943 172.551 234.029 172.929 233.077 172.929Z" fill="#E0E0E0"/>
<path d="M213.874 146.704H135.345C134.392 146.704 133.479 146.326 132.805 145.652C132.132 144.979 131.753 144.065 131.753 143.113C131.753 142.16 132.132 141.247 132.805 140.573C133.479 139.9 134.392 139.521 135.345 139.521H213.874C214.827 139.521 215.74 139.9 216.414 140.573C217.087 141.247 217.466 142.16 217.466 143.113C217.466 144.065 217.087 144.979 216.414 145.652C215.74 146.326 214.827 146.704 213.874 146.704Z" fill="#224091"/>
<path d="M215.35 187.385H125.97C125.017 187.385 124.104 187.007 123.43 186.333C122.757 185.66 122.378 184.746 122.378 183.794C122.378 182.841 122.757 181.928 123.43 181.254C124.104 180.581 125.017 180.202 125.97 180.202H215.35C215.821 180.202 216.288 180.295 216.724 180.476C217.16 180.656 217.556 180.921 217.889 181.254C218.223 181.588 218.487 181.984 218.668 182.419C218.848 182.855 218.941 183.322 218.941 183.794C218.941 184.265 218.848 184.732 218.668 185.168C218.487 185.604 218.223 186 217.889 186.333C217.556 186.667 217.16 186.931 216.724 187.112C216.288 187.292 215.821 187.385 215.35 187.385Z" fill="#E0E0E0"/>
<path d="M174.996 250.408H106.224C105.272 250.408 104.358 250.03 103.685 249.356C103.011 248.683 102.633 247.769 102.633 246.817C102.633 246.345 102.726 245.878 102.906 245.442C103.087 245.007 103.351 244.611 103.685 244.277C104.018 243.944 104.414 243.679 104.85 243.499C105.285 243.318 105.752 243.225 106.224 243.225H174.996C175.467 243.225 175.934 243.318 176.37 243.499C176.806 243.679 177.202 243.944 177.535 244.277C177.869 244.611 178.133 245.007 178.314 245.442C178.494 245.878 178.587 246.345 178.587 246.817C178.587 247.769 178.209 248.683 177.535 249.356C176.862 250.03 175.948 250.408 174.996 250.408Z" fill="#E0E0E0"/>
<path d="M231.059 235.354H106.224C105.272 235.354 104.358 234.975 103.685 234.302C103.011 233.628 102.633 232.715 102.633 231.762C102.633 231.291 102.726 230.824 102.906 230.389C103.087 229.954 103.351 229.558 103.685 229.225C104.019 228.892 104.414 228.628 104.85 228.449C105.286 228.269 105.753 228.177 106.224 228.178H231.059C231.53 228.177 231.997 228.269 232.432 228.449C232.868 228.628 233.264 228.892 233.598 229.225C233.931 229.558 234.196 229.954 234.376 230.389C234.557 230.824 234.65 231.291 234.65 231.762C234.65 232.234 234.557 232.701 234.377 233.137C234.196 233.572 233.932 233.968 233.598 234.302C233.265 234.635 232.869 234.9 232.433 235.08C231.997 235.261 231.53 235.354 231.059 235.354Z" fill="#E0E0E0"/>
<path d="M231.059 276.612H121.794C119.81 276.612 118.202 278.22 118.202 280.204C118.202 282.187 119.81 283.795 121.794 283.795H231.059C233.042 283.795 234.65 282.187 234.65 280.204C234.65 278.22 233.042 276.612 231.059 276.612Z" fill="#E0E0E0"/>
<path d="M231.059 299.128H106.224C105.272 299.128 104.358 298.75 103.685 298.076C103.011 297.403 102.633 296.489 102.633 295.537C102.636 294.587 103.016 293.677 103.689 293.006C104.363 292.336 105.274 291.959 106.224 291.959H231.059C231.53 291.959 231.997 292.052 232.433 292.233C232.869 292.413 233.265 292.678 233.598 293.011C233.932 293.345 234.196 293.74 234.377 294.176C234.557 294.612 234.65 295.079 234.65 295.551C234.646 296.501 234.266 297.411 233.593 298.081C232.92 298.752 232.009 299.128 231.059 299.128Z" fill="#E0E0E0"/>
<path d="M231.059 314.732H106.224C105.272 314.732 104.358 314.354 103.685 313.68C103.011 313.007 102.633 312.093 102.633 311.141C102.633 310.188 103.011 309.275 103.685 308.601C104.358 307.928 105.272 307.55 106.224 307.55H231.059C231.53 307.55 231.997 307.642 232.433 307.823C232.869 308.003 233.265 308.268 233.598 308.601C233.932 308.935 234.196 309.331 234.377 309.767C234.557 310.202 234.65 310.669 234.65 311.141C234.65 312.093 234.272 313.007 233.598 313.68C232.925 314.354 232.011 314.732 231.059 314.732Z" fill="#E0E0E0"/>
<path d="M111.841 280.204C111.841 280.942 111.622 281.663 111.212 282.277C110.801 282.891 110.218 283.369 109.536 283.651C108.854 283.933 108.104 284.007 107.38 283.862C106.656 283.718 105.991 283.362 105.47 282.839C104.948 282.317 104.594 281.651 104.45 280.927C104.307 280.203 104.382 279.453 104.666 278.771C104.949 278.09 105.428 277.508 106.043 277.099C106.657 276.689 107.379 276.472 108.117 276.473C109.105 276.475 110.052 276.869 110.751 277.568C111.449 278.268 111.841 279.216 111.841 280.204Z" fill="#224091"/>
<path d="M231.059 221.329H121.787C120.834 221.329 119.921 220.951 119.247 220.277C118.574 219.604 118.195 218.69 118.195 217.738C118.195 216.785 118.574 215.872 119.247 215.198C119.921 214.525 120.834 214.146 121.787 214.146H231.059C231.53 214.146 231.997 214.239 232.433 214.42C232.869 214.6 233.265 214.865 233.598 215.198C233.932 215.532 234.196 215.928 234.377 216.363C234.557 216.799 234.65 217.266 234.65 217.738C234.65 218.209 234.557 218.676 234.377 219.112C234.196 219.548 233.932 219.944 233.598 220.277C233.265 220.611 232.869 220.875 232.433 221.056C231.997 221.236 231.53 221.329 231.059 221.329Z" fill="#E0E0E0"/>
<path d="M108.117 221.468C110.177 221.468 111.848 219.798 111.848 217.738C111.848 215.677 110.177 214.007 108.117 214.007C106.057 214.007 104.387 215.677 104.387 217.738C104.387 219.798 106.057 221.468 108.117 221.468Z" fill="#224091"/>
<path d="M227.572 337.568H199.558C198.04 337.568 196.585 336.965 195.512 335.892C194.439 334.819 193.836 333.364 193.836 331.847C193.836 330.33 194.439 328.874 195.512 327.802C196.585 326.729 198.04 326.126 199.558 326.126H227.572C229.089 326.126 230.544 326.729 231.617 327.802C232.69 328.874 233.293 330.33 233.293 331.847C233.293 333.364 232.69 334.819 231.617 335.892C230.544 336.965 229.089 337.568 227.572 337.568Z" fill="#224091"/>
<path d="M83.256 67.6036L54.2189 82.1709C53.1563 82.6226 52.25 83.3768 51.6127 84.3395C50.9754 85.3023 50.6352 86.4312 50.6345 87.5858V101.172C50.6001 113.536 54.2016 125.638 60.991 135.972C66.2249 143.92 73.157 154.109 84.7037 159.928H89.9098C102.758 156.01 112.349 145.563 118.216 136.633C125.005 126.299 128.607 114.197 128.573 101.833V87.5858C128.574 86.4343 128.238 85.3076 127.606 84.3452C126.974 83.3828 126.073 82.6268 125.016 82.1709L91.9142 68.056C90.4387 67.4505 84.7315 66.9772 83.256 67.6036Z" fill="#EBEBEB"/>
<path opacity="0.3" d="M83.256 67.6036L54.2189 82.1709C53.1563 82.6226 52.25 83.3768 51.6127 84.3395C50.9754 85.3023 50.6352 86.4312 50.6345 87.5858V101.172C50.6001 113.536 54.2016 125.638 60.991 135.972C66.2249 143.92 73.157 154.109 84.7037 159.928H89.9098C102.758 156.01 112.349 145.563 118.216 136.633C125.005 126.299 128.607 114.197 128.573 101.833V87.5858C128.574 86.4343 128.238 85.3076 127.606 84.3452C126.974 83.3828 126.073 82.6268 125.016 82.1709L91.9142 68.056C90.4387 67.4505 84.7315 66.9772 83.256 67.6036Z" fill="black"/>
<path d="M82.0867 68.056L49.0058 82.1709C47.9441 82.6229 47.0387 83.3773 46.4026 84.3402C45.7665 85.303 45.4277 86.4318 45.4284 87.5858V101.172C45.4301 113.752 49.1625 126.049 56.1535 136.507C63.1445 146.966 73.0801 155.117 84.7037 159.928C97.5518 156.01 107.143 145.563 113.003 136.633C119.795 126.301 123.397 114.198 123.36 101.833V87.5858C123.36 86.4318 123.021 85.303 122.385 84.3402C121.749 83.3773 120.844 82.6229 119.782 82.1709L86.736 68.056C86.0014 67.7412 85.2106 67.5789 84.4114 67.5789C83.6122 67.5789 82.8213 67.7412 82.0867 68.056Z" fill="#EBEBEB"/>
<path d="M123.255 98.1719C123.264 98.2249 123.264 98.279 123.255 98.332C123.255 98.4573 123.255 98.6104 123.255 98.7983C123.255 99.2437 123.29 99.8423 123.318 100.601C123.346 101.36 123.387 102.334 123.318 103.448C123.318 104.004 123.318 104.596 123.262 105.222C123.262 105.543 123.262 105.863 123.262 106.197C123.262 106.531 123.199 106.893 123.165 107.22C123.025 108.612 122.935 110.143 122.643 111.765C122.51 112.572 122.406 113.421 122.239 114.277C122.072 115.133 121.863 116.017 121.668 116.922C120.749 120.834 119.47 124.653 117.847 128.33C116.189 131.989 114.209 135.495 111.931 138.804C110.832 140.294 109.843 141.735 108.73 142.98C108.194 143.607 107.706 144.24 107.184 144.797L105.681 146.398C104.748 147.442 103.788 148.27 102.988 149.043C102.577 149.418 102.208 149.78 101.853 150.094L100.879 150.88L99.4867 152.021L99.1178 152.314C99.0343 152.376 98.9856 152.404 98.9856 152.397C98.9856 152.39 98.9856 152.356 99.09 152.279L99.438 151.966L100.781 150.776L101.763 149.92C102.118 149.606 102.459 149.224 102.876 148.848C103.663 148.068 104.602 147.233 105.521 146.182L107.004 144.567C107.519 144.01 107.999 143.377 108.521 142.751C109.6 141.512 110.609 140.071 111.681 138.575C113.936 135.272 115.9 131.779 117.548 128.135C119.156 124.477 120.435 120.682 121.369 116.797C121.571 115.899 121.759 115.022 121.954 114.173C122.148 113.324 122.232 112.475 122.371 111.667C122.677 110.053 122.782 108.528 122.935 107.143C122.977 106.802 123.012 106.447 123.046 106.134C123.081 105.821 123.046 105.48 123.088 105.167C123.116 104.54 123.144 103.949 123.172 103.392C123.248 102.285 123.227 101.304 123.227 100.552V98.8053V98.332C123.226 98.2773 123.235 98.2229 123.255 98.1719Z" fill="#263238"/>
<path d="M97.4962 116.428H93.9674V97.2254C93.9053 95.0932 93.0146 93.0691 91.4845 91.5829C89.9543 90.0967 87.9052 89.2653 85.772 89.2653C83.6389 89.2653 81.5898 90.0967 80.0596 91.5829C78.5295 93.0691 77.6388 95.0932 77.5766 97.2254V116.428H74.0479V97.2254C74.1225 94.1654 75.3904 91.2558 77.581 89.118C79.7716 86.9801 82.7112 85.7834 85.772 85.7834C88.8329 85.7834 91.7725 86.9801 93.9631 89.118C96.1537 91.2558 97.4216 94.1654 97.4962 97.2254V116.428Z" fill="#BFBFBF"/>
<path d="M97.531 103.399H74.0201C71.7868 103.399 69.9763 105.209 69.9763 107.443V124.119C69.9763 126.352 71.7868 128.163 74.0201 128.163H97.531C99.7643 128.163 101.575 126.352 101.575 124.119V107.443C101.575 105.209 99.7643 103.399 97.531 103.399Z" fill="white"/>
<path d="M97.531 128.163C97.8848 128.125 98.2359 128.065 98.5819 127.982C99.4251 127.738 100.165 127.225 100.69 126.522C101.214 125.818 101.493 124.962 101.484 124.084C101.484 123.27 101.484 122.386 101.484 121.432C101.484 119.532 101.484 117.368 101.484 114.973C101.484 112.579 101.484 109.969 101.484 107.157C101.432 106.456 101.191 105.783 100.786 105.208C100.382 104.633 99.8294 104.179 99.1874 103.893C98.5027 103.611 97.7607 103.497 97.0229 103.559H94.6843L74.0201 103.552C73.1515 103.552 72.3082 103.844 71.6262 104.382C70.9443 104.92 70.4636 105.672 70.2617 106.517C70.1714 106.938 70.134 107.368 70.1503 107.798V111.716C70.1503 115.196 70.1503 118.481 70.1503 121.648C70.213 123.221 69.8858 124.843 70.6932 126.082C71.0506 126.69 71.5661 127.191 72.1848 127.53C72.8036 127.869 73.5027 128.035 74.208 128.009H82.038L93.3758 128.072H96.4522H97.2526C97.3452 128.063 97.4384 128.063 97.531 128.072C97.4384 128.082 97.3451 128.082 97.2526 128.072H96.4522H93.3758L82.038 128.128H74.208C73.6329 128.154 73.0587 128.061 72.5207 127.856C71.9827 127.651 71.4925 127.338 71.0802 126.937C70.668 126.535 70.3425 126.053 70.1239 125.52C69.9053 124.988 69.7982 124.416 69.8093 123.84V121.648C69.8093 118.481 69.8093 115.161 69.8093 111.716V107.825C69.7884 107.358 69.8281 106.89 69.9276 106.433C70.1537 105.521 70.681 104.712 71.424 104.137C72.1731 103.544 73.0997 103.221 74.0549 103.218H94.6426H96.9811C97.7657 103.158 98.5533 103.287 99.2779 103.594C99.9703 103.903 100.565 104.395 100.999 105.016C101.433 105.638 101.69 106.366 101.742 107.122C101.742 109.962 101.742 112.565 101.742 114.959C101.742 117.354 101.742 119.518 101.742 121.418C101.742 122.372 101.742 123.256 101.742 124.07C101.743 124.832 101.53 125.58 101.129 126.228C100.584 127.128 99.7063 127.778 98.6863 128.037C98.3124 128.151 97.9205 128.193 97.531 128.163Z" fill="#263238"/>
<path d="M88.1976 116.421C88.5161 116.103 88.7687 115.726 88.9407 115.31C89.1127 114.894 89.2008 114.449 89.1998 113.999C89.2039 113.351 89.0267 112.714 88.6883 112.161C88.3499 111.608 87.8636 111.16 87.2844 110.869C86.7052 110.577 86.0561 110.453 85.4102 110.511C84.7644 110.569 84.1475 110.806 83.6291 111.195C83.1107 111.585 82.7115 112.111 82.4765 112.716C82.2415 113.32 82.18 113.978 82.299 114.616C82.4179 115.253 82.7126 115.844 83.1498 116.323C83.587 116.802 84.1493 117.149 84.7733 117.326L84.0286 120.625H87.3346L86.6386 117.326C87.2162 117.161 87.7413 116.849 88.1628 116.421" fill="#EBEBEB"/>
<path d="M303.763 141.254V169.456C303.825 174.328 304.542 181.984 296.803 181.734C290.128 181.038 288.353 174.683 288.305 170.131C288.305 167.974 288.256 166.171 288.235 165.955C288.235 165.955 280.927 165.357 280.308 158.132C280.008 154.652 279.98 147.407 280.029 140.858C280.059 137.466 281.364 134.209 283.685 131.736C286.007 129.262 289.174 127.753 292.557 127.508L293.253 127.46C300.819 127.348 303.888 133.703 303.763 141.254Z" fill="#FFBF9D"/>
<path d="M288.256 165.955C291.595 165.699 294.79 164.491 297.464 162.475C297.464 162.475 295.557 167.925 288.298 167.8L288.256 165.955Z" fill="#FF9A6C"/>
<path d="M292.397 143.823C292.543 143.969 293.378 143.294 294.582 143.266C295.787 143.238 296.67 143.823 296.824 143.669C296.977 143.516 296.74 143.328 296.343 143.057C295.814 142.701 295.185 142.521 294.548 142.542C293.915 142.562 293.305 142.784 292.808 143.175C292.446 143.482 292.327 143.753 292.397 143.823Z" fill="#263238"/>
<path d="M292.376 147.24C292.391 147.496 292.505 147.736 292.696 147.908C292.886 148.08 293.136 148.17 293.392 148.159C293.517 148.16 293.641 148.135 293.756 148.088C293.872 148.04 293.976 147.97 294.064 147.881C294.151 147.792 294.22 147.686 294.266 147.57C294.312 147.454 294.335 147.33 294.332 147.205C294.316 146.951 294.201 146.713 294.013 146.542C293.825 146.37 293.577 146.279 293.323 146.286C293.198 146.286 293.074 146.311 292.959 146.359C292.844 146.407 292.739 146.477 292.651 146.566C292.563 146.655 292.493 146.76 292.446 146.876C292.399 146.991 292.375 147.115 292.376 147.24Z" fill="#263238"/>
<path d="M289.369 152.272C288.77 152.132 288.155 152.067 287.539 152.077C287.254 152.077 286.982 152.028 286.92 151.841C286.873 151.549 286.917 151.25 287.045 150.984C287.268 150.288 287.49 149.544 287.741 148.764C288.68 145.604 289.342 143.015 289.216 142.98C289.091 142.946 288.221 145.472 287.281 148.632C287.059 149.411 286.843 150.156 286.634 150.866C286.483 151.221 286.461 151.617 286.572 151.987C286.618 152.085 286.687 152.17 286.773 152.237C286.859 152.303 286.959 152.349 287.066 152.369C287.228 152.388 287.391 152.388 287.553 152.369C288.16 152.409 288.77 152.377 289.369 152.272Z" fill="#263238"/>
<path d="M292.912 138.672C293.03 138.944 293.998 138.742 295.16 138.797C296.322 138.853 297.248 139.111 297.408 138.853C297.464 138.735 297.283 138.484 296.893 138.248C296.374 137.956 295.793 137.792 295.198 137.768C294.603 137.743 294.01 137.86 293.469 138.108C293.058 138.31 292.863 138.547 292.912 138.672Z" fill="#263238"/>
<path d="M281.421 140.482C281.553 140.705 282.493 140.482 283.641 140.426C284.79 140.37 285.729 140.537 285.855 140.308C285.903 140.196 285.715 140.002 285.319 139.828C284.782 139.613 284.205 139.518 283.627 139.549C283.042 139.565 282.468 139.708 281.943 139.967C281.553 140.169 281.365 140.377 281.421 140.482Z" fill="#263238"/>
<path d="M270.48 134.378C270.521 134.231 270.59 134.094 270.685 133.974C270.779 133.855 270.896 133.755 271.03 133.682C271.607 133.419 272.244 133.316 272.874 133.383C274.802 133.347 276.681 132.776 278.303 131.733C279.06 130.645 279.905 129.621 280.83 128.671C283.022 126.416 284.818 124.877 286.683 124.126C289.091 123.158 293.121 122.734 295.633 123.43C298.146 124.126 300.401 126.13 300.756 128.698C302.148 127.508 304.278 127.522 305.997 128.211H306.039C307.946 128.907 309.031 130.912 309.595 132.861C310.159 134.809 310.403 136.897 311.433 138.644C311.648 139.006 311.906 139.445 311.718 139.828C311.631 139.966 311.504 140.075 311.353 140.14C311.203 140.204 311.036 140.222 310.876 140.189C310.553 140.12 310.25 139.983 309.985 139.786C310.201 140.301 310.41 140.809 310.625 141.317C309.929 141.438 309.213 141.393 308.537 141.185C308.186 142.922 307.733 144.637 307.18 146.321C306.468 146.237 305.749 146.413 305.155 146.815C304.459 147.421 304.187 148.555 303.067 148.124C302.503 147.901 301.988 146.732 301.793 146.14C300.534 142.286 300.119 138.205 300.575 134.176C299.783 133.333 298.838 132.648 297.791 132.158L297.875 132.234C295.856 131.538 293.573 130.842 291.659 131.789C290.177 132.526 289.307 134.065 288.179 135.269C287.159 136.413 285.916 137.338 284.527 137.988C283.138 138.638 281.631 138.998 280.099 139.048C279.994 141.08 280.161 143.955 280.057 146.008L278.345 142.751C278.21 142.525 278.087 142.293 277.976 142.055V141.985C277.804 141.588 277.612 141.2 277.398 140.823C277.161 141.013 276.864 141.113 276.56 141.103C276.256 141.093 275.966 140.975 275.741 140.77C275.517 140.565 275.373 140.286 275.336 139.985C275.299 139.683 275.372 139.378 275.54 139.125C275.711 138.888 275.918 138.679 276.152 138.505C275.904 138.747 275.597 138.92 275.261 139.007C274.925 139.093 274.573 139.091 274.238 138.999C273.907 138.898 273.618 138.691 273.417 138.409C273.215 138.127 273.113 137.786 273.125 137.44C273.154 137.207 273.243 136.986 273.383 136.798C273.523 136.61 273.71 136.462 273.925 136.368C273.029 136.44 272.132 136.242 271.35 135.798C270.793 135.498 270.292 135.018 270.48 134.378Z" fill="#263238"/>
<path d="M298.466 129.541C298.718 129.752 298.951 129.985 299.162 130.237C299.734 130.924 300.116 131.75 300.269 132.631C300.395 133.235 300.458 133.851 300.457 134.468C300.457 135.164 300.408 135.86 300.352 136.598C300.287 137.385 300.27 138.175 300.304 138.964C300.323 139.386 300.377 139.805 300.464 140.217C300.529 140.657 300.703 141.074 300.972 141.428C301.098 141.569 301.259 141.674 301.438 141.734C301.618 141.794 301.809 141.806 301.995 141.769C302.348 141.705 302.669 141.523 302.907 141.254C303.3 140.716 303.541 140.081 303.603 139.417H303.456C303.672 139.963 303.968 140.475 304.333 140.934C304.684 141.357 305.181 141.63 305.725 141.7C305.981 141.725 306.239 141.68 306.47 141.568C306.686 141.455 306.863 141.28 306.978 141.066C307.083 140.869 307.135 140.649 307.131 140.426C307.12 140.218 307.037 140.021 306.895 139.869L306.818 139.939C307.249 140.43 307.777 140.826 308.37 141.101C308.579 141.194 308.739 141.257 308.85 141.289L309.024 141.331L308.864 141.261C308.753 141.213 308.593 141.15 308.398 141.052C307.824 140.761 307.313 140.359 306.895 139.869L306.818 139.939C306.937 140.09 307.005 140.275 307.014 140.467C307.022 140.659 306.971 140.849 306.867 141.011C306.764 141.199 306.606 141.352 306.414 141.449C306.198 141.553 305.956 141.592 305.718 141.561C305.21 141.502 304.743 141.254 304.41 140.865C304.06 140.413 303.777 139.914 303.568 139.382L303.463 139.152L303.415 139.403C303.34 140.038 303.1 140.643 302.719 141.157C302.501 141.393 302.213 141.554 301.897 141.616C301.74 141.648 301.577 141.639 301.425 141.589C301.272 141.539 301.135 141.45 301.027 141.331C300.777 140.999 300.616 140.608 300.561 140.196C300.475 139.793 300.419 139.383 300.394 138.971C300.361 138.187 300.377 137.401 300.443 136.619C300.485 135.867 300.533 135.157 300.526 134.482C300.522 133.857 300.452 133.234 300.318 132.624C300.148 131.726 299.742 130.89 299.141 130.202C298.956 129.945 298.727 129.721 298.466 129.541Z" fill="#455A64"/>
<path d="M276.118 136.563L276.18 136.612C276.237 136.66 276.298 136.705 276.361 136.744C276.456 136.822 276.559 136.889 276.667 136.946C276.81 137.03 276.956 137.107 277.106 137.176C278.074 137.615 279.136 137.806 280.196 137.733C281.774 137.626 283.287 137.065 284.553 136.118C286.085 134.952 287.36 133.483 288.298 131.803C288.827 130.933 289.251 130.035 289.69 129.207C290.139 128.398 290.702 127.657 291.36 127.007C291.939 126.417 292.657 125.981 293.448 125.74C293.806 125.641 294.177 125.599 294.548 125.615C294.885 125.641 295.217 125.711 295.536 125.824C296.098 126.015 296.613 126.323 297.046 126.729C297.374 127.035 297.649 127.392 297.861 127.787C298.029 128.132 298.153 128.496 298.23 128.872C298.23 128.872 298.23 128.872 298.23 128.796C298.23 128.719 298.23 128.664 298.195 128.573C298.137 128.291 298.043 128.017 297.916 127.759C297.429 126.801 296.591 126.069 295.578 125.713C295.243 125.596 294.894 125.524 294.541 125.497C294.156 125.481 293.771 125.523 293.399 125.622C292.585 125.863 291.845 126.306 291.249 126.91C290.592 127.567 290.036 128.318 289.599 129.137C289.119 129.972 288.687 130.863 288.172 131.733C287.241 133.392 285.984 134.845 284.477 136.007C283.237 136.946 281.754 137.509 280.203 137.628C279.159 137.711 278.111 137.539 277.148 137.127C276.793 136.961 276.449 136.772 276.118 136.563Z" fill="#455A64"/>
<path d="M275.463 133.39C275.463 133.39 275.547 133.466 275.721 133.57C275.966 133.719 276.222 133.849 276.486 133.96C276.88 134.128 277.288 134.26 277.704 134.357C278.214 134.477 278.734 134.547 279.257 134.566C279.781 134.579 280.305 134.544 280.823 134.461C281.242 134.391 281.654 134.284 282.055 134.141C282.327 134.048 282.593 133.934 282.848 133.8C282.944 133.757 283.035 133.703 283.119 133.64C283.119 133.64 282.709 133.814 282.02 134.03C281.618 134.149 281.209 134.242 280.795 134.308C280.288 134.379 279.776 134.409 279.264 134.399C278.751 134.376 278.242 134.313 277.739 134.211C277.329 134.121 276.927 134 276.535 133.849C275.867 133.591 275.477 133.362 275.463 133.39Z" fill="#455A64"/>
<path d="M281.372 143.823C281.512 143.969 282.347 143.294 283.558 143.266C284.769 143.238 285.646 143.823 285.799 143.669C285.952 143.516 285.708 143.328 285.319 143.057C284.786 142.701 284.156 142.521 283.516 142.542C282.885 142.561 282.278 142.783 281.783 143.175C281.414 143.482 281.296 143.753 281.372 143.823Z" fill="#263238"/>
<path d="M282.604 147.24C282.62 147.494 282.735 147.732 282.923 147.903C283.111 148.075 283.359 148.166 283.614 148.159C283.739 148.16 283.863 148.136 283.978 148.088C284.094 148.04 284.199 147.97 284.287 147.881C284.376 147.792 284.445 147.687 284.492 147.571C284.539 147.455 284.562 147.33 284.56 147.205C284.542 146.95 284.426 146.712 284.237 146.541C284.048 146.37 283.799 146.279 283.544 146.286C283.419 146.286 283.296 146.311 283.181 146.359C283.066 146.407 282.962 146.478 282.875 146.567C282.787 146.655 282.718 146.76 282.672 146.876C282.625 146.992 282.602 147.115 282.604 147.24Z" fill="#263238"/>
<path d="M303.575 146.648C303.693 146.586 308.447 144.818 308.635 149.766C308.823 154.715 303.825 153.894 303.811 153.755C303.798 153.615 303.575 146.648 303.575 146.648Z" fill="#FFBF9D"/>
<path d="M305.28 151.82C305.28 151.82 305.37 151.875 305.517 151.938C305.725 152.018 305.956 152.018 306.164 151.938C306.475 151.722 306.723 151.427 306.882 151.083C307.041 150.739 307.105 150.359 307.069 149.982C307.068 149.557 306.971 149.138 306.783 148.757C306.729 148.602 306.637 148.463 306.516 148.352C306.394 148.242 306.247 148.163 306.087 148.124C305.988 148.104 305.885 148.119 305.795 148.166C305.705 148.213 305.634 148.289 305.593 148.381C305.531 148.521 305.593 148.618 305.538 148.632C305.482 148.646 305.433 148.555 305.461 148.347C305.487 148.224 305.55 148.112 305.642 148.026C305.776 147.921 305.945 147.869 306.115 147.88C306.32 147.913 306.513 147.998 306.676 148.125C306.839 148.253 306.967 148.42 307.048 148.611C307.281 149.038 307.403 149.517 307.403 150.003C307.403 150.998 306.943 151.952 306.234 152.188C306.102 152.233 305.963 152.247 305.826 152.23C305.688 152.213 305.557 152.166 305.44 152.091C305.28 151.938 305.231 151.827 305.28 151.82Z" fill="#FF9A6C"/>
<path d="M292.891 153.26C292.933 153.26 292.933 153.553 292.766 153.956C292.523 154.499 292.126 154.959 291.624 155.279C291.136 155.608 290.556 155.773 289.968 155.752C289.516 155.71 289.272 155.557 289.272 155.522C289.272 155.488 289.55 155.522 289.968 155.522C290.499 155.483 291.011 155.311 291.457 155.021C291.908 154.732 292.286 154.344 292.564 153.887C292.752 153.504 292.836 153.246 292.891 153.26Z" fill="#263238"/>
<path d="M317.808 348.955L319.284 365.659L324.517 378.576C324.603 378.801 324.64 379.042 324.626 379.283C324.612 379.523 324.546 379.758 324.435 379.971C324.323 380.184 324.167 380.371 323.977 380.52C323.787 380.668 323.568 380.774 323.334 380.831C323.057 380.914 322.765 380.932 322.481 380.883C322.196 380.835 321.926 380.722 321.692 380.553C318.706 378.382 307.939 370.391 307.82 369.354C307.667 368.004 304.918 351.558 304.918 351.558L317.808 348.955Z" fill="#455A64"/>
<path d="M323.376 380.852L307.563 367.468L307.723 368.707C307.827 369.403 307.841 369.751 308.315 370.176C312.517 373.982 316.932 377.547 321.539 380.852C321.822 380.985 322.131 381.053 322.443 381.053C322.756 381.053 323.065 380.985 323.348 380.852H323.376Z" fill="#263238"/>
<path d="M310.639 362.248C310.871 362.368 311.047 362.572 311.133 362.818C311.218 363.064 311.206 363.333 311.099 363.571C310.959 363.8 310.741 363.971 310.485 364.052C310.229 364.133 309.952 364.117 309.707 364.009C309.465 363.881 309.282 363.666 309.194 363.407C309.106 363.148 309.12 362.866 309.233 362.617C309.402 362.391 309.648 362.236 309.924 362.181C310.2 362.125 310.487 362.174 310.73 362.318" fill="white"/>
<path d="M318.462 373.962C318.567 374.004 318.866 373.085 319.854 372.514C320.482 372.208 321.158 372.013 321.852 371.937C321.852 371.895 321.622 371.79 321.204 371.777C320.653 371.772 320.112 371.919 319.638 372.201C319.177 372.468 318.804 372.865 318.567 373.343C318.414 373.704 318.414 373.955 318.462 373.962Z" fill="#263238"/>
<path d="M319.98 376.071C320.07 376.14 320.578 375.535 321.469 375.201C322.031 375.038 322.603 374.91 323.181 374.818C322.888 374.684 322.569 374.618 322.247 374.625C321.925 374.633 321.609 374.713 321.323 374.86C320.307 375.25 319.896 376.036 319.98 376.071Z" fill="#263238"/>
<path d="M315.783 371.338C316.48 370.785 317.217 370.285 317.989 369.842C318.824 369.5 319.682 369.219 320.557 368.999C319.609 368.857 318.64 369.038 317.808 369.514C316.374 370.204 315.72 371.296 315.783 371.338Z" fill="#263238"/>
<path d="M314.885 366.285C314.94 366.382 315.88 365.895 317.147 365.728C318.414 365.561 319.464 365.728 319.492 365.638C318.745 365.279 317.9 365.181 317.091 365.359C316.272 365.408 315.494 365.735 314.885 366.285Z" fill="#263238"/>
<path d="M314.328 361.385C315.06 361.018 315.859 360.8 316.676 360.745C317.494 360.69 318.314 360.799 319.089 361.065C319.089 361.023 318.901 360.835 318.462 360.654C317.885 360.428 317.264 360.333 316.646 360.376C316.028 360.411 315.428 360.59 314.892 360.898C314.474 361.135 314.286 361.35 314.328 361.385Z" fill="#263238"/>
<path d="M316.52 359.812C316.52 359.812 316.562 359.583 316.479 359.179C316.356 358.604 316.12 358.06 315.783 357.578C315.553 357.198 315.206 356.902 314.794 356.736C314.651 356.693 314.499 356.693 314.356 356.735C314.212 356.777 314.084 356.859 313.987 356.973C313.904 357.084 313.844 357.211 313.811 357.346C313.777 357.481 313.771 357.622 313.792 357.759C313.913 358.332 314.228 358.846 314.685 359.213C315.142 359.58 315.712 359.777 316.298 359.77C316.883 359.78 317.458 359.618 317.952 359.305C318.447 358.992 318.839 358.542 319.082 358.01C319.137 357.88 319.162 357.739 319.155 357.598C319.147 357.457 319.108 357.319 319.04 357.195C318.951 357.075 318.828 356.983 318.687 356.932C318.545 356.881 318.392 356.874 318.246 356.91C317.825 357.046 317.445 357.285 317.14 357.606C316.707 358.004 316.346 358.476 316.075 358.998C315.963 359.182 315.891 359.389 315.866 359.603C316.264 358.925 316.758 358.308 317.335 357.773C317.608 357.503 317.942 357.303 318.309 357.188C318.388 357.166 318.472 357.169 318.549 357.196C318.626 357.224 318.693 357.274 318.741 357.341C318.779 357.426 318.799 357.517 318.799 357.609C318.799 357.702 318.779 357.793 318.741 357.877C318.519 358.329 318.175 358.709 317.748 358.975C317.321 359.241 316.828 359.381 316.326 359.381C315.829 359.383 315.346 359.218 314.955 358.912C314.564 358.607 314.287 358.178 314.168 357.696C314.134 357.506 314.174 357.309 314.279 357.147C314.331 357.082 314.402 357.035 314.482 357.011C314.561 356.988 314.646 356.989 314.725 357.014C315.074 357.155 315.372 357.397 315.581 357.71C316.021 358.347 316.34 359.06 316.52 359.812Z" fill="#263238"/>
<path d="M275.672 349.818L276.326 363.981C276.326 363.981 261.23 369.368 261.084 371.999L290.351 371.783L290.288 349.672L275.672 349.818Z" fill="#455A64"/>
<path d="M285.367 362.722C285.643 362.79 285.882 362.96 286.037 363.197C286.192 363.435 286.251 363.723 286.203 364.002C286.118 364.277 285.935 364.509 285.687 364.655C285.44 364.801 285.147 364.848 284.866 364.789C284.576 364.717 284.324 364.538 284.161 364.287C283.998 364.036 283.936 363.733 283.989 363.438C284.105 363.156 284.322 362.928 284.598 362.799C284.874 362.67 285.188 362.65 285.479 362.742" fill="#E0E0E0"/>
<path d="M290.351 371.783L290.253 369.556L262.225 370.593C262.225 370.593 260.931 371.136 261.084 371.985L290.351 371.783Z" fill="#263238"/>
<path d="M275.853 363.856C275.853 363.988 276.549 364.044 277.245 364.469C277.941 364.893 278.331 365.457 278.463 365.401C278.595 365.345 278.373 364.573 277.51 364.072C276.647 363.571 275.818 363.724 275.853 363.856Z" fill="#263238"/>
<path d="M272.791 365.06C272.791 365.192 273.382 365.415 273.87 365.979C274.357 366.543 274.51 367.148 274.649 367.141C274.788 367.134 274.879 366.369 274.252 365.68C273.626 364.99 272.798 364.935 272.791 365.06Z" fill="#263238"/>
<path d="M271.079 368.526C271.211 368.526 271.399 367.886 271.03 367.134C270.661 366.382 269.986 366.118 269.923 366.229C269.861 366.341 270.285 366.73 270.577 367.336C270.87 367.942 270.939 368.519 271.079 368.526Z" fill="#263238"/>
<path d="M276.083 360.599C276.145 360.724 276.779 360.536 277.607 360.599C278.435 360.661 279.048 360.877 279.117 360.766C279.187 360.654 278.588 360.174 277.635 360.132C276.681 360.091 276.048 360.494 276.083 360.599Z" fill="#263238"/>
<path d="M270.577 248.097C270.577 248.912 273.974 362.137 273.974 362.137H292.07L295.738 265.282C295.738 265.282 300.018 315.922 300.018 317.015C300.018 318.108 303.791 362.68 303.791 362.68L320.564 361.392L319.458 259.456L317.411 244.506L270.577 248.097Z" fill="#263238"/>
<path d="M297.624 261.697C297.395 261.827 297.149 261.925 296.893 261.989C296.413 262.157 295.71 262.386 294.847 262.685L294.687 262.734V262.574C294.589 261.217 294.471 259.393 294.367 257.396C294.248 255.231 294.165 253.276 294.123 251.828C294.123 251.132 294.088 250.54 294.088 250.144C294.068 249.936 294.082 249.727 294.13 249.524C294.188 249.723 294.221 249.929 294.228 250.137C294.276 250.533 294.325 251.111 294.374 251.814C294.485 253.206 294.61 255.19 294.722 257.382C294.833 259.379 294.91 261.203 294.951 262.567L294.777 262.456C295.654 262.212 296.364 262.017 296.865 261.892C297.111 261.803 297.365 261.737 297.624 261.697Z" fill="#455A64"/>
<path d="M296.232 249.928C296.232 249.928 296.288 249.837 296.476 249.775C296.74 249.705 297.021 249.729 297.269 249.844C297.456 249.913 297.616 250.04 297.725 250.207C297.834 250.373 297.887 250.571 297.875 250.77C297.851 251.022 297.746 251.258 297.575 251.445C297.404 251.631 297.177 251.755 296.928 251.8C296.675 251.838 296.416 251.805 296.181 251.706C295.945 251.606 295.741 251.444 295.592 251.236C295.487 251.076 295.431 250.888 295.431 250.697C295.431 250.505 295.487 250.318 295.592 250.157C295.736 249.942 295.946 249.778 296.19 249.691C296.371 249.628 296.476 249.642 296.483 249.656C296.489 249.67 296.072 249.789 295.821 250.262C295.748 250.388 295.713 250.533 295.72 250.679C295.727 250.825 295.777 250.965 295.863 251.083C295.976 251.232 296.126 251.348 296.299 251.419C296.471 251.49 296.66 251.513 296.844 251.487C297.017 251.454 297.175 251.37 297.299 251.246C297.423 251.122 297.507 250.963 297.54 250.791C297.554 250.648 297.523 250.505 297.452 250.38C297.381 250.255 297.274 250.156 297.144 250.095C296.865 249.944 296.546 249.886 296.232 249.928Z" fill="#455A64"/>
<path d="M304.542 251.104C304.445 251.104 304.306 250.617 304.236 250.004C304.166 249.392 304.187 248.884 304.285 248.877C304.382 248.87 304.521 249.357 304.591 249.97C304.661 250.582 304.64 251.104 304.542 251.104Z" fill="#455A64"/>
<path d="M305.795 250.972C305.698 250.972 305.614 250.45 305.614 249.802C305.614 249.155 305.684 248.633 305.788 248.633C305.892 248.633 305.969 249.155 305.969 249.802C305.969 250.45 305.899 250.972 305.795 250.972Z" fill="#455A64"/>
<path d="M283.989 251.751C283.892 251.751 283.739 251.174 283.648 250.443C283.558 249.712 283.565 249.1 283.648 249.093C283.732 249.086 283.899 249.67 283.989 250.408C284.08 251.146 284.087 251.744 283.989 251.751Z" fill="#455A64"/>
<path d="M285.514 251.863C285.192 251.473 285.033 250.975 285.068 250.471C284.993 249.984 285.105 249.486 285.381 249.079C285.486 249.079 285.381 249.719 285.43 250.471C285.479 251.222 285.611 251.835 285.514 251.863Z" fill="#455A64"/>
<path d="M279.792 250.352C279.8 250.519 279.779 250.687 279.73 250.847C279.642 251.298 279.521 251.742 279.368 252.176C278.852 253.637 278.094 255.002 277.127 256.213C276.122 257.461 274.929 258.546 273.591 259.428C273.18 259.7 272.752 259.946 272.31 260.166C272.15 260.256 271.979 260.329 271.802 260.382C271.802 260.34 272.457 259.978 273.452 259.261C274.732 258.352 275.88 257.27 276.862 256.046C277.811 254.852 278.582 253.527 279.152 252.113C279.577 251.034 279.737 250.338 279.792 250.352Z" fill="#455A64"/>
<path d="M318.908 257.981C318.729 258.033 318.544 258.062 318.358 258.064C317.853 258.104 317.346 258.104 316.841 258.064C315.188 257.905 313.599 257.351 312.205 256.449C310.886 255.585 309.821 254.383 309.122 252.969C308.919 252.558 308.76 252.126 308.649 251.682C308.592 251.526 308.566 251.36 308.572 251.195C308.628 251.195 308.781 251.89 309.331 252.886C310.065 254.232 311.119 255.377 312.4 256.22C313.75 257.091 315.276 257.652 316.868 257.862C318.114 258.001 318.901 257.925 318.908 257.981Z" fill="#455A64"/>
<path d="M289.432 315.317C289.432 315.394 286.411 314.739 282.737 313.869C279.062 312.999 276.097 312.22 276.125 312.143C276.152 312.067 279.145 312.714 282.82 313.591C286.495 314.468 289.453 315.24 289.432 315.317Z" fill="#455A64"/>
<path d="M318.581 311.197C318.622 311.266 316.012 312.623 312.755 314.238C309.498 315.853 306.811 317.099 306.769 317.022C306.728 316.946 309.338 315.588 312.595 313.981C315.852 312.373 318.539 311.127 318.581 311.197Z" fill="#455A64"/>
<path d="M261.794 209.755L264.265 212.852V207.527H272.06C272.06 207.527 272.923 219.714 272.756 222.31C272.571 223.664 272.252 224.995 271.802 226.285C271.57 227.035 271.147 227.713 270.576 228.253C270.005 228.793 269.305 229.176 268.542 229.367C267.78 229.557 266.981 229.547 266.223 229.339C265.465 229.131 264.774 228.731 264.216 228.178C263.344 227.329 262.53 226.422 261.78 225.463C258.3 221.009 252.565 210.151 252.565 210.151L258.578 206.56L261.794 209.755Z" fill="#FFBF9D"/>
<path d="M261.3 209.184C261.594 209.679 261.934 210.145 262.316 210.576C263.012 211.39 263.889 212.511 264.926 213.722C265.963 214.933 266.951 216.005 267.71 216.736C268.094 217.157 268.54 217.519 269.032 217.807C268.679 217.366 268.298 216.947 267.891 216.555C267.195 215.789 266.234 214.696 265.197 213.485C263.144 211.021 261.39 209.1 261.3 209.184Z" fill="#FF9A6C"/>
<path d="M279.57 172.317L287.79 169.087L302.928 168.231L310.041 170.939L300.29 176.354L291.882 176.047L279.57 172.317Z" fill="#FFBF9D"/>
<path d="M269.874 249.642C270.619 249.768 320.216 251.877 320.216 251.877L318.504 207.256L318.358 198.5L315.574 171.976C315.574 171.976 308.154 169.421 304.375 168.203C304.375 168.203 300.394 172.379 292.822 172.24C285.423 172.136 283.878 170.465 283.878 170.465L273.535 174.433C273.535 174.433 266.179 177.07 264.912 180.328C263.645 183.585 261.432 201.591 261.432 201.591H272.157L271.872 233.586L269.874 249.642Z" fill="#455A64"/>
<g opacity="0.2">
<path d="M301.062 190.12L302.6 201.368L310.041 204.688L315.539 200.004V189.564L301.062 190.12Z" fill="black"/>
</g>
<path d="M315.344 193.336C315.344 193.426 312.254 193.503 308.44 193.503C304.626 193.503 301.529 193.426 301.529 193.336C303.828 193.161 306.135 193.103 308.44 193.162C310.743 193.103 313.047 193.161 315.344 193.336Z" fill="#263238"/>
<path d="M266.534 184.984C266.569 185.081 266.597 185.182 266.617 185.283C266.666 185.506 266.729 185.784 266.812 186.139C267.079 187.213 267.409 188.271 267.8 189.306C268.295 190.636 268.991 192.202 269.847 193.955C270.703 195.709 271.385 197.804 272.143 200.032C272.143 202.704 272.143 205.6 272.088 208.683C272.018 215.504 271.949 221.677 271.907 226.18C271.865 228.394 271.837 230.196 271.809 231.484C271.809 232.082 271.795 232.563 271.768 232.924C271.771 233.092 271.759 233.26 271.733 233.426C271.721 233.256 271.721 233.087 271.733 232.918C271.733 232.565 271.733 232.085 271.733 231.477C271.733 230.196 271.733 228.387 271.733 226.173C271.733 221.67 271.788 215.497 271.823 208.683C271.823 205.627 271.879 202.704 271.9 200.032V200.08C271.155 197.853 270.438 195.786 269.659 194.011C268.914 192.483 268.25 190.917 267.668 189.32C267.292 188.275 266.987 187.205 266.756 186.118C266.687 185.736 266.631 185.422 266.603 185.242C266.572 185.158 266.549 185.072 266.534 184.984Z" fill="#263238"/>
<path d="M319.116 179.778C319.141 180.095 319.141 180.414 319.116 180.731C319.116 181.427 319.061 182.277 319.019 183.321C318.929 185.562 318.81 188.554 318.678 191.86C318.546 195.166 318.393 198.166 318.295 200.407C318.233 201.451 318.184 202.321 318.142 202.996C318.141 203.314 318.108 203.631 318.045 203.943C318.019 203.626 318.019 203.307 318.045 202.99C318.045 202.294 318.045 201.444 318.093 200.4C318.149 198.208 318.246 195.187 318.386 191.854C318.525 188.52 318.678 185.492 318.817 183.314C318.887 182.221 318.956 181.337 319.019 180.724C319.024 180.407 319.056 180.09 319.116 179.778Z" fill="#263238"/>
<g opacity="0.3">
<path d="M266.562 186.62C266.373 191.517 268.123 196.292 271.434 199.906C270.424 195.306 267.905 191.025 266.562 186.62Z" fill="black"/>
</g>
<g opacity="0.3">
<path d="M288.346 230.767C290.678 230.456 292.805 229.272 294.297 227.454C295.867 225.701 297.212 223.757 298.299 221.67C299.702 218.831 300.499 215.731 300.638 212.566C297.749 220.313 293.518 226.438 288.346 230.767Z" fill="black"/>
</g>
<path d="M301.556 209.191C301.552 209.287 301.538 209.383 301.515 209.476C301.466 209.699 301.403 209.963 301.334 210.284C301.264 210.604 301.153 211.056 301 211.543C300.846 212.031 300.7 212.587 300.478 213.193C299.99 214.618 299.418 216.012 298.765 217.369C297.169 220.691 295.119 223.776 292.675 226.535C291.678 227.661 290.609 228.721 289.474 229.709C289.008 230.147 288.541 230.495 288.144 230.816C287.748 231.136 287.4 231.393 287.1 231.595L286.404 232.061C286.244 232.159 286.161 232.215 286.154 232.201C286.215 232.127 286.285 232.062 286.363 232.006L287.01 231.491C287.295 231.282 287.636 231.01 288.019 230.676C288.402 230.342 288.854 229.98 289.314 229.542C290.413 228.532 291.456 227.464 292.439 226.34C293.629 224.954 294.738 223.499 295.759 221.983C296.757 220.456 297.668 218.874 298.487 217.244C299.145 215.904 299.733 214.531 300.248 213.13C300.485 212.539 300.652 211.982 300.812 211.502C300.972 211.021 301.104 210.604 301.201 210.263C301.299 209.922 301.368 209.692 301.438 209.476C301.508 209.26 301.542 209.184 301.556 209.191Z" fill="#263238"/>
<path d="M300.123 195.229C300.112 195.383 300.091 195.537 300.06 195.688C300.004 196.016 299.928 196.447 299.837 196.983C299.747 197.519 299.608 198.229 299.406 199.015C299.204 199.802 299.023 200.714 298.71 201.688C298.571 202.175 298.417 202.69 298.257 203.226C298.097 203.762 297.888 204.305 297.694 204.869C297.325 206.017 296.824 207.2 296.302 208.453C294.015 213.861 290.943 218.901 287.184 223.41C286.3 224.426 285.472 225.415 284.623 226.264C284.205 226.695 283.815 227.127 283.412 227.51C283.008 227.892 282.625 228.268 282.249 228.616C281.553 229.312 280.802 229.918 280.161 230.447C279.521 230.976 279.006 231.414 278.547 231.755L277.496 232.549C277.381 232.649 277.255 232.736 277.12 232.806C277.221 232.694 277.333 232.591 277.454 232.5L278.463 231.658C278.909 231.303 279.451 230.864 280.043 230.314C280.635 229.765 281.352 229.18 282.068 228.449L283.21 227.336C283.607 226.946 283.989 226.514 284.4 226.083C285.242 225.227 286.056 224.238 286.933 223.215C290.66 218.713 293.725 213.703 296.037 208.335C296.552 207.089 297.053 205.92 297.429 204.785C297.631 204.214 297.84 203.679 298.007 203.15C298.174 202.621 298.327 202.113 298.48 201.625C298.8 200.658 299.002 199.76 299.218 198.974C299.434 198.187 299.587 197.512 299.698 196.955C299.809 196.398 299.914 196.002 299.983 195.675C300.014 195.521 300.06 195.372 300.123 195.229Z" fill="#263238"/>
<path d="M260.931 181.358L280.029 210.395C280.12 210.532 280.17 210.693 280.172 210.857C280.175 211.022 280.129 211.184 280.042 211.324C279.954 211.463 279.829 211.575 279.679 211.644C279.53 211.714 279.364 211.74 279.201 211.717L257.207 208.933C257.092 208.917 256.98 208.878 256.88 208.818C256.779 208.759 256.692 208.679 256.623 208.585L235.617 179.896C235.513 179.764 235.45 179.603 235.436 179.435C235.422 179.267 235.458 179.099 235.539 178.951C235.619 178.803 235.742 178.681 235.89 178.602C236.039 178.523 236.208 178.489 236.376 178.504L259.003 180.175C259.394 180.21 259.771 180.335 260.105 180.541C260.44 180.746 260.722 181.025 260.931 181.358Z" fill="#E0E0E0"/>
<path d="M260.931 181.358C260.884 181.263 260.825 181.174 260.757 181.093C260.563 180.853 260.327 180.65 260.061 180.495C259.608 180.258 259.104 180.136 258.592 180.14L256.56 179.973L243.517 178.95L239.195 178.616L236.898 178.442C236.696 178.442 236.522 178.442 236.292 178.442C236.057 178.449 235.833 178.541 235.659 178.699C235.482 178.86 235.369 179.079 235.338 179.316C235.308 179.553 235.362 179.793 235.492 179.994L241.603 188.38C245.918 194.276 250.651 200.755 255.627 207.562C255.948 207.987 256.233 208.397 256.581 208.843C256.688 208.961 256.821 209.052 256.971 209.107C257.107 209.155 257.25 209.183 257.395 209.191L258.175 209.288L261.251 209.678L267.264 210.43L278.637 211.822C278.874 211.822 279.069 211.884 279.333 211.898C279.469 211.899 279.603 211.873 279.729 211.822C279.854 211.771 279.968 211.695 280.064 211.599C280.246 211.412 280.353 211.164 280.363 210.903C280.353 210.649 280.26 210.404 280.099 210.207L278.623 207.952L275.839 203.776L270.856 196.238C267.807 191.652 265.344 187.928 263.624 185.346L261.641 182.388C261.418 182.068 261.244 181.81 261.112 181.629C261.056 181.539 260.993 181.453 260.924 181.372C260.972 181.468 261.025 181.561 261.084 181.65L261.578 182.43C262.024 183.126 262.671 184.135 263.499 185.422L270.64 196.385L275.589 203.943L278.373 208.154L279.82 210.36C279.945 210.507 280.019 210.69 280.029 210.882C280.022 211.065 279.948 211.238 279.82 211.369C279.691 211.498 279.516 211.57 279.333 211.571C279.145 211.571 278.888 211.516 278.672 211.495L267.278 210.04L261.265 209.281L258.189 208.892L257.416 208.794C257.301 208.785 257.186 208.764 257.075 208.732C256.977 208.694 256.889 208.634 256.818 208.558C256.511 208.14 256.205 207.729 255.899 207.305C250.915 200.512 246.155 194.039 241.854 188.144C239.689 185.207 237.643 182.409 235.722 179.792C235.65 179.688 235.608 179.568 235.599 179.442C235.591 179.317 235.616 179.191 235.673 179.079C235.73 178.967 235.817 178.872 235.923 178.805C236.03 178.739 236.153 178.702 236.279 178.699C236.439 178.699 236.661 178.699 236.849 178.734L239.146 178.901L243.475 179.207L256.56 180.112L258.606 180.251C259.105 180.234 259.6 180.342 260.047 180.564C260.395 180.762 260.697 181.033 260.931 181.358Z" fill="#263238"/>
<path d="M235.617 179.917C235.768 179.956 235.922 179.979 236.077 179.987L237.413 180.126L242.382 180.564L259.281 181.956L259.149 181.88C260.207 183.453 261.3 185.081 262.392 186.752C266.854 193.607 270.744 199.913 273.689 204.395C275.15 206.644 276.368 208.439 277.217 209.678L278.206 211.07C278.312 211.24 278.436 211.398 278.574 211.543C278.483 211.366 278.381 211.194 278.268 211.028L277.336 209.574L273.904 204.235C271.023 199.718 267.16 193.399 262.699 186.536C261.606 184.845 260.506 183.216 259.441 181.664L259.393 181.594H259.344L242.438 180.342L237.462 180.008L236.118 179.931C235.952 179.914 235.785 179.909 235.617 179.917Z" fill="#263238"/>
<path d="M248.709 184.351C248.722 184.293 248.747 184.238 248.781 184.19C248.816 184.142 248.86 184.102 248.911 184.071C248.961 184.041 249.018 184.021 249.076 184.012C249.135 184.004 249.195 184.008 249.252 184.024C249.476 184.075 249.681 184.188 249.844 184.351C249.947 184.445 250.014 184.573 250.033 184.711C250.052 184.85 250.022 184.991 249.948 185.109C249.732 185.381 249.252 185.276 249.015 185.054C248.909 184.972 248.824 184.865 248.771 184.742C248.717 184.619 248.696 184.484 248.709 184.351Z" fill="white"/>
<path d="M258.982 200.623C258.982 200.623 259.845 198.535 257.646 198.285C254.987 198.146 252.322 198.146 249.663 198.285C249.663 198.285 246.496 198.619 247.164 200.888C247.164 200.888 245.299 202.558 246.301 204.368C247.303 206.177 247.693 205.634 247.693 205.634C247.693 205.634 247.429 207.841 249.085 208.168C249.085 208.168 250.895 210.304 252.565 210.172C254.235 210.04 261.3 206.637 261.766 205.996C262.232 205.356 262.901 204.952 262.504 204.208C262.504 204.208 263.367 202.252 261.502 201.952C261.516 201.918 261.383 200.296 258.982 200.623Z" fill="#FFBF9D"/>
<path d="M248.946 201.368C249.435 201.47 249.936 201.507 250.435 201.479C251.354 201.479 252.621 201.479 254.02 201.479C255.225 201.514 256.431 201.444 257.625 201.27C258.571 201.048 258.947 200.491 258.906 200.477C258.497 200.736 258.044 200.918 257.569 201.013C256.699 201.159 255.412 201.069 254.013 201.117C252.614 201.166 251.347 201.18 250.428 201.222C249.93 201.211 249.432 201.26 248.946 201.368Z" fill="#FF9A6C"/>
<path d="M250.519 204.709C250.666 204.795 250.829 204.849 250.999 204.869C251.457 204.962 251.925 204.992 252.391 204.959C253.07 204.907 253.742 204.784 254.395 204.59C255.133 204.388 255.92 204.103 256.748 203.853C257.518 203.598 258.314 203.432 259.121 203.358C259.819 203.423 260.521 203.283 261.14 202.955C261.381 202.791 261.553 202.543 261.62 202.259C261.665 202.047 261.635 201.825 261.536 201.632C261.362 201.319 261.126 201.298 261.133 201.312C261.14 201.326 261.3 201.41 261.404 201.695C261.471 201.888 261.466 202.099 261.391 202.29C261.316 202.48 261.175 202.637 260.994 202.732C260.399 202.994 259.746 203.092 259.1 203.017C258.265 203.069 257.439 203.228 256.644 203.491L254.305 204.263C253.673 204.46 253.026 204.604 252.37 204.695C251.754 204.737 251.136 204.741 250.519 204.709Z" fill="#FF9A6C"/>
<path d="M252.885 207.527C253.392 207.498 253.893 207.402 254.375 207.242C255.279 207.012 256.518 206.657 257.855 206.219C259.191 205.78 260.416 205.328 261.279 204.973C261.769 204.819 262.237 204.602 262.671 204.326C262.629 204.228 260.458 205.022 257.799 205.864C255.14 206.706 252.857 207.43 252.885 207.527Z" fill="#FF9A6C"/>
<path d="M252.321 210.144C252.737 210.181 253.156 210.134 253.553 210.005C254.524 209.769 255.469 209.436 256.372 209.01C257.43 208.53 258.356 208.036 259.024 207.681C259.406 207.519 259.762 207.304 260.082 207.04C258.749 207.471 257.456 208.018 256.219 208.676C254.138 209.678 252.307 210.04 252.321 210.144Z" fill="#FF9A6C"/>
<path d="M322.631 190.246C322.631 190.246 318.135 208.258 312.518 214.912C307.076 221.357 298.55 218.392 295.599 210.04C292.648 201.688 287.386 182.68 287.386 182.68L293.845 177.739L304.981 199.377L310.013 184.629L322.631 190.246Z" fill="#FFBF9D"/>
<path d="M287.685 183.195L282.945 176.326C282.255 176.177 281.58 175.967 280.927 175.699C280.391 175.386 279.862 172.658 279.876 172.129C279.89 171.6 278.957 170.354 279.333 169.999C279.709 169.644 280.976 169.623 280.906 169.115C280.906 169.004 279.966 167.862 280.704 167.027C281.111 166.758 281.564 166.567 282.041 166.463L281.964 163.84C281.964 163.84 283.356 160.749 284.825 161.87C284.825 161.87 290.274 166.046 290.824 166.742C291.374 167.438 293.476 176.131 293.845 177.767" fill="#FFBF9D"/>
<path d="M293.845 177.753C293.837 177.597 293.814 177.444 293.775 177.293C293.699 176.959 293.608 176.528 293.49 175.985C293.239 174.843 292.856 173.201 292.341 171.175C292.077 170.159 291.792 169.087 291.423 167.869C291.332 167.577 291.235 167.278 291.109 166.972C290.966 166.66 290.745 166.389 290.469 166.185C289.968 165.747 289.446 165.315 288.91 164.877C287.831 164.007 286.683 163.102 285.493 162.176C285.192 161.909 284.855 161.686 284.49 161.515C284.278 161.464 284.056 161.464 283.843 161.515C283.63 161.565 283.432 161.666 283.266 161.807C282.644 162.348 282.147 163.018 281.811 163.77V163.812C281.811 164.069 281.811 164.341 281.811 164.612C281.811 165.225 281.811 165.837 281.867 166.436L281.992 166.269C281.663 166.348 281.342 166.455 281.031 166.589C280.858 166.661 280.7 166.765 280.565 166.895C280.445 167.035 280.355 167.199 280.301 167.375C280.212 167.723 280.241 168.09 280.384 168.419C280.442 168.576 280.514 168.728 280.6 168.872L280.718 169.073V169.122C280.722 169.138 280.722 169.155 280.718 169.171C280.718 169.227 280.579 169.31 280.447 169.359C280.314 169.408 280.168 169.456 280.022 169.505C279.871 169.545 279.722 169.594 279.577 169.651C279.394 169.704 279.235 169.817 279.124 169.971C279.052 170.15 279.052 170.35 279.124 170.528C279.166 170.678 279.22 170.825 279.284 170.967C279.403 171.245 279.535 171.509 279.632 171.767C279.682 171.884 279.71 172.009 279.716 172.136C279.719 172.285 279.733 172.434 279.758 172.581C279.799 172.867 279.848 173.145 279.911 173.423C280.019 173.96 280.166 174.488 280.349 175.003C280.437 175.273 280.58 175.521 280.767 175.734C280.994 175.881 281.243 175.992 281.505 176.061C281.985 176.207 282.458 176.326 282.897 176.43L282.82 176.381L286.3 181.365L287.274 182.715C287.382 182.878 287.503 183.031 287.636 183.174C287.547 183.001 287.447 182.834 287.337 182.673L286.418 181.281C285.59 180.049 284.428 178.33 283.001 176.228V176.187H283.008C282.563 176.075 282.096 175.95 281.616 175.804C281.393 175.74 281.18 175.647 280.983 175.525C280.833 175.342 280.719 175.132 280.649 174.906C280.471 174.402 280.331 173.886 280.231 173.361C280.175 173.089 280.127 172.818 280.085 172.54C280.085 172.407 280.085 172.261 280.085 172.136C280.079 171.974 280.046 171.814 279.987 171.663C279.883 171.377 279.751 171.113 279.639 170.841C279.578 170.714 279.53 170.581 279.493 170.445C279.455 170.341 279.455 170.228 279.493 170.124C279.573 170.041 279.674 169.981 279.786 169.95C279.924 169.896 280.066 169.849 280.21 169.811C280.356 169.762 280.509 169.721 280.662 169.658C280.854 169.599 281.014 169.466 281.108 169.289C281.133 169.232 281.145 169.17 281.143 169.108C281.141 169.064 281.129 169.022 281.108 168.983V168.927L280.99 168.725C280.915 168.593 280.85 168.456 280.795 168.315C280.683 168.054 280.658 167.763 280.725 167.487C280.762 167.353 280.829 167.229 280.92 167.125C281.025 167.033 281.145 166.96 281.275 166.909C281.568 166.783 281.871 166.681 282.18 166.603L282.305 166.568V166.436C282.305 165.837 282.27 165.232 282.249 164.619C282.249 164.348 282.249 164.069 282.249 163.819V163.895C282.559 163.193 283.017 162.566 283.593 162.058C283.716 161.944 283.866 161.862 284.028 161.819C284.191 161.777 284.362 161.775 284.525 161.814C284.85 161.973 285.151 162.175 285.423 162.413C286.62 163.338 287.769 164.236 288.847 165.099C289.39 165.531 289.912 165.955 290.406 166.38C290.657 166.557 290.856 166.797 290.984 167.076C291.102 167.361 291.2 167.661 291.297 167.946C291.666 169.115 291.993 170.222 292.244 171.224C292.766 173.222 293.197 174.843 293.497 176.006C293.643 176.542 293.754 176.973 293.838 177.3C293.824 177.451 293.827 177.602 293.845 177.753Z" fill="#FF9A6C"/>
<path d="M282.041 166.463C282.041 166.519 282.59 166.463 283.433 166.561C283.937 166.639 284.434 166.753 284.922 166.902C285.561 166.993 286.21 166.993 286.85 166.902C287.399 166.825 287.958 166.874 288.485 167.045C289.012 167.216 289.493 167.505 289.891 167.89C290.2 168.233 290.447 168.626 290.622 169.053C290.625 168.805 290.578 168.559 290.482 168.33C290.386 168.101 290.244 167.895 290.065 167.723C289.703 167.325 289.256 167.013 288.757 166.811C288.144 166.574 287.482 166.49 286.829 166.568C286.217 166.644 285.597 166.644 284.985 166.568C284.482 166.428 283.967 166.337 283.446 166.296C282.971 166.259 282.494 166.315 282.041 166.463Z" fill="#FF9A6C"/>
<path d="M283.968 166.317C284.045 166.359 284.268 166.039 284.24 165.587C284.212 165.134 283.955 164.849 283.885 164.891C283.815 164.932 283.885 165.239 283.885 165.587C283.885 165.935 283.878 166.282 283.968 166.317Z" fill="#FF9A6C"/>
<path d="M280.739 169.213C282.116 169.344 283.505 169.236 284.845 168.892C285.332 168.733 285.845 168.667 286.356 168.698C286.752 168.785 287.101 169.015 287.337 169.345C287.542 169.673 287.724 170.014 287.88 170.368C287.904 169.946 287.784 169.529 287.539 169.185C287.289 168.78 286.888 168.49 286.425 168.377C285.873 168.313 285.313 168.367 284.783 168.538C282.576 169.039 280.739 169.115 280.739 169.213Z" fill="#FF9A6C"/>
<path d="M280.015 171.69C280.347 171.768 280.692 171.768 281.024 171.69C281.644 171.621 282.479 171.405 283.384 171.224C283.802 171.131 284.229 171.089 284.658 171.099C284.99 171.105 285.311 171.222 285.569 171.433C285.8 171.646 285.958 171.926 286.022 172.233C286.022 172.233 286.084 172.143 286.077 171.955C286.049 171.69 285.928 171.444 285.736 171.259C285.454 170.981 285.081 170.815 284.685 170.793C284.219 170.76 283.75 170.796 283.293 170.897C282.361 171.078 281.553 171.328 280.955 171.454C280.634 171.501 280.32 171.58 280.015 171.69Z" fill="#FF9A6C"/>
<path d="M281.616 173.653C281.56 173.695 282.027 174.182 282.876 174.182L282.709 174.036C282.709 174.182 282.709 174.328 282.757 174.474C282.78 175.071 282.912 175.659 283.147 176.207C283.24 175.62 283.221 175.02 283.092 174.44L283.029 174.001V173.848H282.883C282.455 173.83 282.03 173.765 281.616 173.653Z" fill="#FF9A6C"/>
<path d="M315.518 172.004C315.518 172.004 324.726 174.231 324.705 186.446C324.684 198.66 321.921 204.688 321.921 204.688L304.946 195.424L308.76 185.938L315.518 172.004Z" fill="#455A64"/>
<path d="M321.921 204.688C321.799 204.652 321.682 204.601 321.573 204.535L320.585 204.034L316.966 202.126L304.862 195.605L304.723 195.535L304.779 195.389L305.691 193.009C306.776 190.19 307.779 187.504 308.753 185.061C309.226 183.843 309.672 182.68 310.096 181.581C310.467 180.559 310.916 179.568 311.44 178.616C312.139 177.191 313.194 175.971 314.502 175.073C314.869 174.843 315.275 174.68 315.699 174.593C315.807 174.57 315.916 174.556 316.026 174.551H316.145C315.588 174.667 315.057 174.884 314.579 175.191C313.323 176.11 312.32 177.331 311.662 178.741C311.162 179.69 310.732 180.674 310.375 181.685C309.964 182.778 309.526 183.94 309.059 185.165L306.025 193.127L305.113 195.508L305.029 195.285L317.112 201.918L320.676 203.922L321.629 204.479C321.734 204.538 321.832 204.608 321.921 204.688Z" fill="#263238"/>
<defs>
<linearGradient id="paint0_linear_2369_743" x1="269.705" y1="-38.2539" x2="370.43" y2="136.207" gradientUnits="userSpaceOnUse">
<stop stop-color="white"/>
<stop offset="1" stop-color="white" stop-opacity="0"/>
</linearGradient>
<linearGradient id="paint1_linear_2369_743" x1="-29.0234" y1="-9.73932" x2="70.6129" y2="162.836" gradientUnits="userSpaceOnUse">
<stop stop-color="white"/>
<stop offset="1" stop-color="white" stop-opacity="0"/>
</linearGradient>
</defs>
</svg>
